<?xml version="1.0" standalone="no"?><!DOCTYPE svg PUBLIC "-//W3C//DTD SVG 1.1//EN" "http://www.w3.org/Graphics/SVG/1.1/DTD/svg11.dtd"><svg t="1686279304877" class="icon" viewBox="0 0 1024 1024" version="1.1" xmlns="http://www.w3.org/2000/svg" p-id="12132" xmlns:xlink="http://www.w3.org/1999/xlink" width="32" height="32"><path d="M512 128c211.2 0 384 172.8 384 384s-172.8 384-384 384-384-172.8-384-384 172.8-384 384-384m0-64C262.4 64 64 262.4 64 512s198.4 448 448 448 448-198.4 448-448-198.4-448-448-448z" p-id="12133"></path><path d="M320 512m-32 0a32 32 0 1 0 64 0 32 32 0 1 0-64 0Z" p-id="12134"></path><path d="M704 512m-32 0a32 32 0 1 0 64 0 32 32 0 1 0-64 0Z" p-id="12135"></path><path d="M512 320m-32 0a32 32 0 1 0 64 0 32 32 0 1 0-64 0Z" p-id="12136"></path><path d="M512 704m-32 0a32 32 0 1 0 64 0 32 32 0 1 0-64 0Z" p-id="12137"></path><path d="M320 480h384v64H320z" p-id="12138"></path><path d="M480 320h64v384h-64z" p-id="12139"></path></svg>