<?xml version="1.0" standalone="no"?><!DOCTYPE svg PUBLIC "-//W3C//DTD SVG 1.1//EN" "http://www.w3.org/Graphics/SVG/1.1/DTD/svg11.dtd"><svg t="1694497712305" class="icon gray" viewBox="0 0 1024 1024" version="1.1" xmlns="http://www.w3.org/2000/svg" p-id="3026" xmlns:xlink="http://www.w3.org/1999/xlink" width="100" height="100"><path d="M512.8 927.65c-82.97 0-165.93-5.84-248.32-17.53l-0.2-0.03c-23.32-3.49-46.81-15.1-66.15-32.69-19.79-18.01-32.92-40.21-36.97-62.52l-0.04-0.24c-14.73-85.45-21.15-172.11-19.09-257.59 2.06-85.46 12.66-172.1 31.5-257.51l53.71 11.85c-36.14 163.83-40.16 329.97-11.95 493.77 4.1 22.19 31.75 46.69 57.02 50.52a1712.285 1712.285 0 0 0 480.98 0c25.27-3.83 52.92-28.34 57.01-50.53 28.21-163.8 24.19-329.93-11.95-493.77l53.71-11.85c18.84 85.42 29.44 172.06 31.5 257.51 2.06 85.47-4.36 172.14-19.09 257.59l-0.04 0.24c-4.05 22.3-17.18 44.51-36.97 62.52-19.34 17.6-42.83 29.21-66.15 32.69l-0.2 0.03a1765.711 1765.711 0 0 1-248.31 17.54z" class="icon-out" p-id="3027"></path><path d="M921.38 332.96H102.66c-14.16 0-25.64-11.48-25.64-25.64v-3.73c0-14.16 11.48-25.64 25.64-25.64h818.73c14.16 0 25.64 11.48 25.64 25.64v3.73c-0.01 14.16-11.49 25.64-25.65 25.64z" class="icon-out" p-id="3028"></path><path d="M367.21 805.77h-2.56c-14.48 0-26.22-11.74-26.22-26.22V431.99c0-14.48 11.74-26.22 26.22-26.22h2.56c14.48 0 26.22 11.74 26.22 26.22v347.56c0 14.49-11.74 26.22-26.22 26.22zM661.4 805.77h-2.56c-14.48 0-26.22-11.74-26.22-26.22V431.99c0-14.48 11.74-26.22 26.22-26.22h2.56c14.48 0 26.22 11.74 26.22 26.22v347.56c0 14.49-11.74 26.22-26.22 26.22z" class="icon-in" p-id="3029"></path><path d="M786.11 322.05l-48.07-26.73c24.95-44.87 28.29-88.34 10.14-132.77-5.56-3.25-21.61-9.19-42.32-10.42-129.2-7.27-260.31-7.27-389.6 0-20.65 1.22-36.68 7.16-42.24 10.42-18.15 44.43-14.82 87.9 10.14 132.77l-48.07 26.73c-34.04-61.21-37.74-123.49-10.97-185.09l0.21-0.48c15.56-34.01 80.41-38.81 87.75-39.25 131.42-7.39 264.61-7.39 395.94 0 7.42 0.44 72.26 5.24 87.83 39.25l0.22 0.48c26.77 61.6 23.09 123.88-10.96 185.09z m-36.39-158.46z m-477.24 0z" class="icon-out" p-id="3030"></path></svg>