<?xml version="1.0" standalone="no"?><!DOCTYPE svg PUBLIC "-//W3C//DTD SVG 1.1//EN" "http://www.w3.org/Graphics/SVG/1.1/DTD/svg11.dtd"><svg t="1694663041457" class="icon" viewBox="0 0 1024 1024" version="1.1" xmlns="http://www.w3.org/2000/svg" p-id="1836" xmlns:xlink="http://www.w3.org/1999/xlink" width="100" height="100"><path d="M795.969 641.938c-44.844 0-85.094 20.015-112.219 51.515L454.39 561.11c4.157-15.53 6.344-31.937 6.344-48.78 0-16.845-2.187-33.25-6.343-48.782l230.234-132.89c27.125 30.952 66.938 50.53 111.453 50.53 81.813 0 148.094-66.28 148.094-148.093C944.172 151.28 877.782 85 795.969 85s-148.094 66.281-148.094 148.094c0 14.11 1.969 27.781 5.688 40.687L427.155 404.484c-34.344-49.875-91.765-82.578-156.844-82.578C165.204 321.906 80 407.11 80 512.328S165.203 702.75 270.313 702.75c65.078 0 122.609-32.703 156.953-82.578l225.968 130.484c-3.5 12.578-5.359 25.703-5.359 39.375 0 81.813 66.281 148.094 148.094 148.094 81.812 0 148.093-66.281 148.093-148.094 0-81.812-66.28-148.093-148.093-148.093z m0-492.079c45.937 0 83.234 37.297 83.234 83.235 0 45.937-37.297 83.234-83.234 83.234-45.938 0-83.235-37.297-83.235-83.234 0-45.938 37.297-83.235 83.235-83.235zM270.312 637.781c-69.234 0-125.453-56.11-125.453-125.453 0-69.344 56.22-125.453 125.453-125.453 69.235 0 125.454 56.11 125.454 125.453 0 69.344-56.11 125.453-125.454 125.453z m525.657 234.39c-45.39 0-82.14-36.75-82.14-82.14s36.75-82.14 82.14-82.14 82.14 36.75 82.14 82.14c0.11 45.39-36.75 82.14-82.14 82.14z" p-id="1837" data-spm-anchor-id="a313x.manage_type_myprojects.0.i0.1adc3a813mH6xq" class="icon-out"></path></svg>