<?xml version="1.0" standalone="no"?><!DOCTYPE svg PUBLIC "-//W3C//DTD SVG 1.1//EN" "http://www.w3.org/Graphics/SVG/1.1/DTD/svg11.dtd"><svg t="1694497146325" class="icon" viewBox="0 0 1024 1024" version="1.1" xmlns="http://www.w3.org/2000/svg" p-id="1778" xmlns:xlink="http://www.w3.org/1999/xlink" width="100" height="100"><path d="M127.94 530.03c-6.67 0-13.32-2.65-18.24-7.89-9.43-10.06-8.95-25.85 1.1-35.3 3.67-3.45 91.45-84.93 234.32-126.4 84.14-24.42 169.95-29.79 255.04-15.96 105.79 17.19 210.4 64.23 310.94 139.81 11.04 8.3 13.26 23.97 4.96 35.01-8.29 11.03-23.97 13.26-35 4.96-169.55-127.45-344.5-166.61-519.99-116.38-131.94 37.76-215.21 114.63-216.04 115.41a25.01 25.01 0 0 1-17.09 6.74z" class="icon-in" p-id="1779"></path><path d="M509 688.98c-54.54 0-109.01-7.83-162.8-23.44-142.87-41.46-230.65-122.95-234.32-126.4-10.06-9.46-10.54-25.28-1.08-35.34 9.45-10.05 25.25-10.54 35.31-1.11 0.83 0.77 84.1 77.65 216.04 115.41 175.5 50.22 350.44 11.07 519.99-116.38 11.04-8.3 26.71-6.07 35 4.96 8.3 11.04 6.08 26.71-4.96 35.01C811.64 617.26 707.03 664.3 601.24 681.5c-30.69 4.98-61.47 7.48-92.24 7.48z" class="icon-in" p-id="1780"></path><path d="M506.82 741.13c-141.09 0-275.99-70.27-401.17-209.03l-17.53-19.43 16.87-20c1.64-1.95 41.06-48.3 108.65-95.76 39.76-27.92 81.2-50.54 123.19-67.25 52.97-21.08 106.94-32.74 160.4-34.67 146.39-5.28 287.79 60.95 420.32 196.86l18.69 19.16-16.92 20.74c-1.7 2.09-42.53 51.76-111.93 102.32-40.88 29.79-83.37 53.81-126.29 71.39-54.25 22.23-109.31 34.19-163.66 35.54-3.53 0.08-7.09 0.13-10.62 0.13z m-337.8-229c110.37 114.93 226.81 171.73 346.5 168.89 106.58-2.53 197.54-52.73 255.07-94.39 37.87-27.42 66.74-54.92 84-72.79-114.02-109.7-233.21-163.13-354.69-158.92-105.44 3.67-194.27 50.96-250.22 89.99-36.31 25.32-63.96 50.6-80.66 67.22z" class="icon-out" p-id="1781"></path><path d="M505.25 671.33c-87.55 0-158.78-71.23-158.78-158.78s71.23-158.78 158.78-158.78S664.02 425 664.02 512.55 592.8 671.33 505.25 671.33z m0-257.56c-54.47 0-98.78 44.31-98.78 98.78s44.31 98.78 98.78 98.78 98.78-44.31 98.78-98.78-44.32-98.78-98.78-98.78z" class="icon-in" p-id="1782"></path></svg>