<?xml version="1.0" standalone="no"?><!DOCTYPE svg PUBLIC "-//W3C//DTD SVG 1.1//EN" "http://www.w3.org/Graphics/SVG/1.1/DTD/svg11.dtd"><svg t="1694741344887" class="icon" viewBox="0 0 1024 1024" version="1.1" xmlns="http://www.w3.org/2000/svg" p-id="4938" width="24" height="24" xmlns:xlink="http://www.w3.org/1999/xlink"><path d="M934.101333 416.426667h-220.373333c-26.752 0-47.232-20.48-47.232-47.232s20.48-47.232 47.232-47.232h173.141333V148.821333c0-26.752 20.48-47.232 47.232-47.232S981.333333 122.069333 981.333333 148.821333v220.373344c0 25.173333-20.48 47.232-47.232 47.232z" fill="#344" p-id="4939" data-spm-anchor-id="a313x.search_index.0.i10.30723a81IiaItd" class="selected"></path><path d="M509.098667 978.389333C249.344 978.389333 38.4 767.530667 38.4 507.733333 38.4 247.978667 249.344 37.034667 509.098667 37.034667A472.32 472.32 0 0 1 943.530667 325.12c9.472 23.637333-1.536 51.968-25.173344 61.44-23.594667 9.386667-51.925333-1.621333-61.397333-25.216a377.898667 377.898667 0 0 0-347.861333-229.845333A376.234667 376.234667 0 0 0 132.864 507.733333a376.234667 376.234667 0 0 0 376.234667 376.234667c190.464 0 351.018667-141.653333 373.077333-329.002667 3.114667-25.173333 26.752-44.074667 51.925333-40.96 25.173333 3.157333 44.074667 26.794667 40.96 51.968-28.373333 234.538667-228.266667 412.416-465.962666 412.416z" fill="#344" p-id="4940" data-spm-anchor-id="a313x.search_index.0.i9.30723a81IiaItd" class="selected"></path></svg>