<?xml version="1.0" standalone="no"?><!DOCTYPE svg PUBLIC "-//W3C//DTD SVG 1.1//EN" "http://www.w3.org/Graphics/SVG/1.1/DTD/svg11.dtd"><svg t="1694510472502" class="icon" viewBox="0 0 1024 1024" version="1.1" xmlns="http://www.w3.org/2000/svg" p-id="1918" xmlns:xlink="http://www.w3.org/1999/xlink" width="100" height="100"><path d="M828.038 898.796H195.962c-39.409 0-71.471-32.062-71.471-71.471V195.249c0-39.409 32.062-71.471 71.471-71.471h89.621c10.382 0 18.798 8.416 18.798 18.798s-8.416 18.798-18.798 18.798h-89.621c-18.679 0-33.875 15.196-33.875 33.875v632.076c0 18.679 15.196 33.875 33.875 33.875h632.076c18.679 0 33.875-15.196 33.875-33.875V340.256L674.088 161.374h-96.215c-10.382 0-18.798-8.416-18.798-18.798s8.416-18.798 18.798-18.798h111.253l210.383 200.365v503.182c0 39.409-32.062 71.471-71.471 71.471z" class="icon-out" p-id="1919" data-spm-anchor-id="a313x.manage_type_myprojects.0.i6.1adc3a8106MMa8" ></path><path d="M756.239 863.629h-37.597V643.456c0-7.062-5.744-12.807-12.806-12.807H317.11c-7.061 0-12.806 5.745-12.806 12.807v220.173h-37.596V643.456c0-27.792 22.61-50.402 50.402-50.402h388.727c27.792 0 50.402 22.61 50.402 50.402v220.173z" class="icon-out" p-id="1920" data-spm-anchor-id="a313x.manage_type_myprojects.0.i7.1adc3a8106MMa8" ></path><path d="M547.818 325.374H317.11c-27.792 0-50.402-22.61-50.402-50.402V151.895c0-27.792 22.61-50.402 50.402-50.402h230.708c27.791 0 50.4 22.61 50.4 50.402v123.077c0.001 27.791-22.609 50.402-50.4 50.402zM317.11 139.089c-7.061 0-12.806 5.745-12.806 12.806v123.077c0 7.061 5.745 12.806 12.806 12.806h230.708c7.061 0 12.805-5.745 12.805-12.806V151.895c0-7.061-5.744-12.806-12.805-12.806H317.11z" class="icon-middle" p-id="1921"></path><path d="M621.717 155.654c0-17.454-14.149-31.604-31.604-31.604H359.405c-17.455 0-31.604 14.15-31.604 31.604v9.871h-0.157V316.17c0 17.454 14.149 31.604 31.604 31.604h230.708c17.454 0 31.604-14.15 31.604-31.604V166.069h0.156v-10.415z" class="icon-middle" opacity=".4" p-id="1922"></path></svg>