<?xml version="1.0" standalone="no"?><!DOCTYPE svg PUBLIC "-//W3C//DTD SVG 1.1//EN" "http://www.w3.org/Graphics/SVG/1.1/DTD/svg11.dtd"><svg height="1524" node-id="1" sillyvg="true" template-height="1524" template-width="1051" version="1.1" viewBox="0 0 1051 1524" width="1051" xmlns="http://www.w3.org/2000/svg" xmlns:xlink="http://www.w3.org/1999/xlink"><defs node-id="58"><linearGradient gradientUnits="objectBoundingBox" id="linearGradient-1" node-id="5" spreadMethod="pad" x1="0" x2="1" y1="0.5" y2="0.5"><stop offset="0" stop-color="#252424"></stop><stop offset="1" stop-color="#181818"></stop></linearGradient><linearGradient gradientUnits="objectBoundingBox" id="linearGradient-2" node-id="8" spreadMethod="pad" x1="0.0161995" x2="1" y1="0.5" y2="0.5"><stop offset="0" stop-color="#a5a5a5"></stop><stop offset="1" stop-color="#7b7a7a"></stop></linearGradient></defs><g node-id="71"><path d="M 529.26 912.15 L 1044.67 1137.99 L 533.47 1488.98 L 3.61 1258.27 Z" fill="#6f6e6e" fill-rule="nonzero" group-id="1" id="矩形备份-88" node-id="13" stroke="none" target-height="576.82996" target-width="1041.06" target-x="3.61" target-y="912.15"></path><path d="M 536.59 164.61 L 525.59 919.48 L 8.91 1263.94 L 2.47 512.73 Z" fill="#bababa" fill-rule="nonzero" group-id="1" id="矩形" node-id="14" stroke="none" target-height="1099.33" target-width="534.12006" target-x="2.47" target-y="164.61"></path><path d="M 536.59 164.61 L 525.59 919.48 L 1045.71 1141.62 L 1050.50 402.80 Z" fill="#959494" fill-rule="nonzero" group-id="1" id="矩形" node-id="15" stroke="none" target-height="977.01" target-width="524.91" target-x="525.59" target-y="164.61"></path><g node-id="72"><g node-id="76"><path d="M 16.24 1281.85 L 73.70 1283.48 L 73.70 1312.70 L 73.88 1314.03 L 73.70 1315.35 L 73.70 1318.50 L 71.76 1318.44 L 70.21 1319.74 L 68.20 1321.00 L 65.63 1322.22 L 61.49 1323.64 L 56.44 1324.77 L 51.09 1325.46 L 45.15 1325.71 L 40.64 1325.56 L 36.49 1325.17 L 32.66 1324.55 L 28.87 1323.65 L 25.65 1322.61 L 22.93 1321.43 L 20.37 1319.94 L 18.54 1318.43 L 17.29 1316.90 L 16.24 1316.87 L 16.24 1281.85 Z" fill="url(#linearGradient-1)" fill-rule="nonzero" group-id="1,2,6" id="形状结合" node-id="18" stroke="none" target-height="43.859985" target-width="57.64" target-x="16.24" target-y="1281.85"></path><path d="M 73.88 1285.11 L 73.63 1286.62 L 72.95 1288.08 L 71.76 1289.53 L 69.96 1291.01 L 67.30 1292.55 L 63.92 1293.96 L 59.65 1295.20 L 55.31 1296.05 L 50.49 1296.59 L 45.15 1296.79 L 39.81 1296.59 L 34.99 1296.05 L 30.65 1295.20 L 26.39 1293.96 L 23.00 1292.55 L 20.34 1291.01 L 18.54 1289.53 L 17.35 1288.08 L 16.67 1286.62 L 16.42 1285.11 L 16.67 1283.61 L 17.35 1282.15 L 18.54 1280.69 L 20.34 1279.22 L 23.00 1277.68 L 26.39 1276.27 L 30.65 1275.03 L 34.99 1274.18 L 39.81 1273.64 L 45.15 1273.43 L 50.49 1273.64 L 55.31 1274.18 L 59.65 1275.03 L 63.92 1276.27 L 67.30 1277.68 L 69.96 1279.22 L 71.76 1280.69 L 72.95 1282.15 L 73.63 1283.61 L 73.88 1285.11 Z" fill="#000000" fill-rule="nonzero" group-id="1,2,6" id="形状结合" node-id="19" stroke="none" target-height="23.359985" target-width="57.46" target-x="16.42" target-y="1273.43"></path></g><g node-id="77"><path d="M 36.47 1261.42 L 55.62 1262.59 L 55.62 1287.85 L 55.11 1287.82 L 53.86 1288.74 L 51.67 1289.57 L 49.14 1290.06 L 46.05 1290.26 L 43.44 1290.12 L 41.21 1289.76 L 39.19 1289.17 L 37.78 1288.47 L 36.77 1287.56 L 36.47 1286.65 L 36.47 1286.68 L 36.47 1261.42 Z" fill="url(#linearGradient-2)" fill-rule="nonzero" group-id="1,2,7" id="形状结合备份" node-id="21" stroke="none" target-height="28.839966" target-width="19.149998" target-x="36.47" target-y="1261.42"></path><path d="M 55.62 1260.27 L 55.32 1261.20 L 54.31 1262.12 L 52.90 1262.83 L 50.88 1263.44 L 48.65 1263.80 L 46.05 1263.94 L 43.44 1263.80 L 41.21 1263.44 L 39.19 1262.83 L 37.78 1262.12 L 36.78 1261.20 L 36.47 1260.27 L 36.78 1259.35 L 37.78 1258.43 L 39.19 1257.72 L 41.21 1257.11 L 43.44 1256.75 L 46.05 1256.61 L 48.65 1256.75 L 50.88 1257.11 L 52.90 1257.72 L 54.31 1258.43 L 55.32 1259.35 L 55.62 1260.27 Z" fill="#585858" fill-rule="nonzero" group-id="1,2,7" id="形状结合备份-2" node-id="22" stroke="none" target-height="7.329956" target-width="19.149998" target-x="36.47" target-y="1256.61"></path></g></g><g node-id="73"><g node-id="78"><path d="M 470.63 1479.73 L 528.09 1481.36 L 528.09 1510.58 L 528.27 1511.91 L 528.09 1513.23 L 528.09 1516.38 L 526.15 1516.32 L 524.60 1517.62 L 522.59 1518.88 L 520.02 1520.10 L 515.88 1521.52 L 510.83 1522.65 L 505.48 1523.34 L 499.54 1523.59 L 495.03 1523.44 L 490.88 1523.05 L 487.05 1522.43 L 483.26 1521.53 L 480.04 1520.49 L 477.32 1519.31 L 474.76 1517.82 L 472.93 1516.31 L 471.68 1514.78 L 470.63 1514.75 L 470.63 1479.73 Z" fill="url(#linearGradient-1)" fill-rule="nonzero" group-id="1,3,8" id="形状结合" node-id="25" stroke="none" target-height="43.859985" target-width="57.640015" target-x="470.63" target-y="1479.73"></path><path d="M 528.27 1482.99 L 528.02 1484.50 L 527.34 1485.95 L 526.16 1487.41 L 524.35 1488.89 L 521.70 1490.43 L 518.31 1491.84 L 514.04 1493.08 L 509.70 1493.93 L 504.88 1494.47 L 499.54 1494.67 L 494.20 1494.47 L 489.38 1493.93 L 485.04 1493.08 L 480.78 1491.84 L 477.39 1490.43 L 474.73 1488.89 L 472.93 1487.41 L 471.74 1485.95 L 471.06 1484.50 L 470.81 1482.99 L 471.06 1481.49 L 471.74 1480.03 L 472.93 1478.57 L 474.73 1477.10 L 477.39 1475.56 L 480.78 1474.15 L 485.04 1472.91 L 489.38 1472.06 L 494.20 1471.52 L 499.54 1471.31 L 504.88 1471.52 L 509.70 1472.06 L 514.04 1472.91 L 518.31 1474.15 L 521.70 1475.56 L 524.35 1477.10 L 526.16 1478.57 L 527.34 1480.03 L 528.02 1481.49 L 528.27 1482.99 Z" fill="#000000" fill-rule="nonzero" group-id="1,3,8" id="形状结合" node-id="26" stroke="none" target-height="23.359985" target-width="57.460022" target-x="470.81" target-y="1471.31"></path></g><g node-id="79"><path d="M 490.86 1459.30 L 510.01 1460.47 L 510.01 1485.73 L 509.50 1485.70 L 508.25 1486.62 L 506.06 1487.45 L 503.53 1487.94 L 500.44 1488.13 L 497.83 1488.00 L 495.60 1487.64 L 493.58 1487.05 L 492.17 1486.35 L 491.17 1485.44 L 490.86 1484.53 L 490.86 1484.56 L 490.86 1459.30 Z" fill="url(#linearGradient-2)" fill-rule="nonzero" group-id="1,3,9" id="形状结合备份" node-id="28" stroke="none" target-height="28.829956" target-width="19.150024" target-x="490.86" target-y="1459.3"></path><path d="M 510.01 1458.15 L 509.71 1459.08 L 508.71 1460.00 L 507.29 1460.71 L 505.27 1461.32 L 503.04 1461.68 L 500.44 1461.82 L 497.83 1461.68 L 495.60 1461.32 L 493.58 1460.71 L 492.17 1460.00 L 491.17 1459.08 L 490.86 1458.15 L 491.17 1457.23 L 492.17 1456.31 L 493.58 1455.60 L 495.60 1454.99 L 497.83 1454.63 L 500.44 1454.49 L 503.04 1454.63 L 505.27 1454.99 L 507.29 1455.60 L 508.71 1456.31 L 509.71 1457.23 L 510.01 1458.15 Z" fill="#585858" fill-rule="nonzero" group-id="1,3,9" id="形状结合备份-2" node-id="29" stroke="none" target-height="7.329956" target-width="19.150024" target-x="490.86" target-y="1454.49"></path></g></g><path d="M 2.47 511.25 L 530.15 743.77 L 530.52 1490.43 L 2.47 1259.04 L 2.47 511.25 Z M 273.64 740.10 L 273.82 850.03 L 280.73 856.16 L 286.88 862.32 L 292.30 868.50 L 297.06 874.71 L 301.17 880.96 L 304.69 887.27 L 307.63 893.65 L 310.01 900.11 L 311.86 906.66 L 313.18 913.34 L 313.97 920.16 L 314.23 927.15 L 313.95 934.32 L 313.05 943.01 L 311.70 950.76 L 309.94 957.63 L 307.82 963.73 L 305.36 969.12 L 302.59 973.87 L 299.51 978.05 L 296.12 981.69 L 292.41 984.85 L 288.36 987.55 L 283.94 989.80 L 279.11 991.60 L 273.82 992.95 L 273.82 1079.51 L 439.05 1151.91 L 487.31 1130.48 L 487.07 895.42 L 451.65 818.90 L 273.64 740.10 Z M 67.44 651.82 L 32.03 698.03 L 31.79 932.88 L 80.04 995.62 L 245.27 1064.69 L 245.27 978.13 L 238.86 970.93 L 233.05 963.52 L 227.80 955.89 L 223.11 948.03 L 218.96 939.93 L 215.34 931.56 L 212.24 922.92 L 209.67 913.98 L 207.62 904.72 L 206.11 895.12 L 205.15 885.15 L 204.86 877.14 L 205.19 870.15 L 206.06 864.05 L 207.40 858.74 L 209.16 854.12 L 211.32 850.11 L 213.87 846.64 L 216.81 843.66 L 220.17 841.12 L 223.99 839.01 L 228.33 837.34 L 233.27 836.11 L 238.88 835.39 L 245.27 835.22 L 245.45 725.44 L 67.44 651.82 Z" fill="#e3e3e2" fill-rule="nonzero" group-id="1" id="形状结合" node-id="30" stroke="none" target-height="979.18005" target-width="528.05005" target-x="2.47" target-y="511.25"></path><path d="M 28.35 1004.50 L 504.31 1214.23 L 504.64 1444.23 L 28.35 1235.52 Z" fill="#e3e3e2" fill-rule="nonzero" group-id="1" id="矩形" node-id="31" stroke="#979797" stroke-linecap="butt" stroke-width="0.5" target-height="439.72998" target-width="476.29" target-x="28.35" target-y="1004.5"></path><path d="M 31.79 533.23 L 507.74 742.96 L 508.07 826.39 L 31.79 617.68 Z" fill="#e3e3e2" fill-rule="nonzero" group-id="1" id="矩形备份-87" node-id="32" stroke="#979797" stroke-linecap="butt" stroke-width="0.5" target-height="293.16003" target-width="476.28" target-x="31.79" target-y="533.23"></path><path d="M 54.18 581.31 L 54.05 575.39 L 54.27 573.48 L 54.94 571.78 L 56.03 570.31 L 57.44 569.17 L 59.11 568.42 L 61.01 568.12 L 62.98 568.35 L 64.81 569.12 L 67.29 570.83 L 69.47 572.77 L 71.36 574.94 L 72.98 577.37 L 74.29 579.97 L 75.25 582.69 L 75.87 585.54 L 76.14 588.54 L 76.25 593.83 L 76.03 595.77 L 75.35 597.49 L 74.26 598.97 L 72.82 600.13 L 71.13 600.89 L 69.21 601.20 L 67.29 600.98 L 65.49 600.26 L 63.02 598.62 L 60.85 596.75 L 58.96 594.64 L 57.33 592.28 L 56.02 589.73 L 55.06 587.07 L 54.45 584.27 L 54.18 581.31 Z" fill="#ffa200" fill-opacity="0.82" fill-rule="nonzero" group-id="1" id="路径-16备份-5" node-id="33" stroke="none" target-height="33.080017" target-width="22.2" target-x="54.05" target-y="568.12"></path><path d="M 46.85 581.31 L 46.72 575.39 L 46.94 573.48 L 47.62 571.78 L 48.70 570.31 L 50.11 569.17 L 51.78 568.42 L 53.69 568.12 L 55.65 568.35 L 57.48 569.12 L 59.96 570.83 L 62.14 572.77 L 64.03 574.94 L 65.65 577.37 L 66.96 579.97 L 67.92 582.69 L 68.54 585.54 L 68.81 588.54 L 68.92 593.83 L 68.71 595.77 L 68.02 597.49 L 66.93 598.97 L 65.49 600.13 L 63.80 600.89 L 61.88 601.20 L 59.96 600.98 L 58.17 600.26 L 55.69 598.62 L 53.52 596.75 L 51.63 594.64 L 50.01 592.28 L 48.69 589.73 L 47.73 587.07 L 47.12 584.27 L 46.85 581.31 Z" fill="#000000" fill-rule="nonzero" group-id="1,4,10" id="path-3" node-id="36" stroke="none" target-height="33.080017" target-width="22.199997" target-x="46.72" target-y="568.12"></path><path d="M 46.85 581.31 L 46.72 575.39 L 46.94 573.48 L 47.62 571.78 L 48.70 570.31 L 50.11 569.17 L 51.78 568.42 L 53.69 568.12 L 55.65 568.35 L 57.48 569.12 L 59.96 570.83 L 62.14 572.77 L 64.03 574.94 L 65.65 577.37 L 66.96 579.97 L 67.92 582.69 L 68.54 585.54 L 68.81 588.54 L 68.92 593.83 L 68.71 595.77 L 68.02 597.49 L 66.93 598.97 L 65.49 600.13 L 63.80 600.89 L 61.88 601.20 L 59.96 600.98 L 58.17 600.26 L 55.69 598.62 L 53.52 596.75 L 51.63 594.64 L 50.01 592.28 L 48.69 589.73 L 47.73 587.07 L 47.12 584.27 L 46.85 581.31 Z" fill="#ff0000" fill-opacity="0.82" fill-rule="evenodd" group-id="1,4,11" id="path-3" node-id="38" stroke="none" target-height="33.080017" target-width="22.199997" target-x="46.72" target-y="568.12"></path><path d="M 409.35 720.15 L 485.28 754.58 L 484.50 806.62 L 408.33 772.90 Z" fill="#b4b4b4" fill-rule="nonzero" group-id="1" id="矩形备份-87" node-id="39" stroke="#433e3e" stroke-linecap="butt" stroke-width="0.5" target-height="86.46997" target-width="76.95001" target-x="408.33" target-y="720.15"></path><path d="M 262.45 1104.30 L 262.78 1334.30" fill="#e3e3e2" fill-rule="nonzero" group-id="1" id="路径" node-id="40" stroke="#979797" stroke-linecap="butt" stroke-width="0.5" target-height="230" target-width="0.32998657" target-x="262.45" target-y="1104.3"></path><path d="M 1049.34 397.63 L 1049.61 1143.01 L 529.62 1490.25 L 529.84 743.44 L 1049.34 397.63 Z M 963.79 613.34 L 615.44 845.96 L 615.44 1141.02 L 963.79 908.40 L 963.79 613.34 Z" fill="#bababa" fill-rule="nonzero" group-id="1" id="形状结合" node-id="41" stroke="none" target-height="1092.62" target-width="519.99" target-x="529.62" target-y="397.63"></path><path d="M 529.26 157.28 L 1049.61 399.13 L 532.92 743.59 L 0.50 510.66 Z" fill="#ffffff" fill-rule="nonzero" group-id="1" id="矩形" node-id="42" stroke="none" target-height="586.31006" target-width="1049.11" target-x="0.5" target-y="157.28"></path><path d="M 502.55 204.80 L 573.87 204.80 L 575.05 205.04 L 575.99 205.68 L 576.63 206.62 L 576.87 207.80 L 576.87 247.60 L 576.63 248.77 L 575.99 249.72 L 575.05 250.36 L 573.87 250.60 L 502.55 250.60 L 501.37 250.36 L 500.43 249.72 L 499.79 248.77 L 499.55 247.60 L 499.55 207.80 L 499.79 206.62 L 500.43 205.68 L 501.37 205.04 L 502.55 204.80 Z" fill="#5b5b5a" fill-opacity="0.41043383" fill-rule="nonzero" group-id="1,5,12" id="矩形备份-33" node-id="44" stroke="none" target-height="45.800003" target-width="77.32001" target-x="499.55" target-y="204.8"></path><path d="M 518.88 46.38 L 557.54 46.38 L 557.54 229.60 L 518.88 229.60 Z" fill="#c4e4e3" fill-rule="nonzero" group-id="1,5" id="矩形" node-id="45" stroke="none" target-height="183.22" target-width="38.659973" target-x="518.88" target-y="46.38"></path><path d="M 538.21 0.58 L 541.74 0.91 L 544.97 1.79 L 547.97 3.22 L 550.68 5.14 L 552.98 7.44 L 554.90 10.15 L 556.33 13.15 L 557.21 16.38 L 557.54 19.91 L 557.54 69.27 L 557.54 69.27 L 518.88 69.27 L 518.88 19.91 L 519.21 16.38 L 520.09 13.15 L 521.52 10.15 L 523.44 7.44 L 525.74 5.14 L 528.45 3.22 L 531.45 1.79 L 534.68 0.91 L 538.21 0.58 Z" fill="#ffee54" fill-rule="nonzero" group-id="1,5" id="矩形备份-30" node-id="46" stroke="none" target-height="68.689995" target-width="38.659973" target-x="518.88" target-y="0.58"></path><path d="M 518.88 46.38 L 557.54 46.38 L 557.54 92.17 L 518.88 92.17 Z" fill="#73ff54" fill-rule="nonzero" group-id="1,5" id="矩形备份-31" node-id="47" stroke="none" target-height="45.789997" target-width="38.659973" target-x="518.88" target-y="46.38"></path><path d="M 518.88 92.17 L 557.54 92.17 L 557.54 137.97 L 518.88 137.97 Z" fill="#5b5b5a" fill-rule="nonzero" group-id="1,5" id="矩形备份-32" node-id="48" stroke="none" target-height="45.800003" target-width="38.659973" target-x="518.88" target-y="92.17"></path><path d="M 273.64 899.68 L 287.38 906.45 L 287.40 948.80 L 273.67 942.02 Z" fill="#000000" fill-rule="nonzero" group-id="1" id="矩形备份-77" node-id="49" stroke="none" target-height="49.119995" target-width="13.759979" target-x="273.64" target-y="899.68"></path><path d="M 280.97 1214.82 L 294.70 1221.59 L 294.73 1263.94 L 281.00 1257.16 Z" fill="#000000" fill-rule="nonzero" group-id="1" id="矩形备份-81" node-id="50" stroke="none" target-height="49.119995" target-width="13.76001" target-x="280.97" target-y="1214.82"></path><path d="M 229.67 877.69 L 243.40 884.46 L 243.43 926.81 L 229.69 920.04 Z" fill="#000000" fill-rule="nonzero" group-id="1" id="矩形备份-80" node-id="51" stroke="none" target-height="49.119995" target-width="13.7599945" target-x="229.67" target-y="877.69"></path><path d="M 229.67 1185.50 L 243.40 1192.28 L 243.43 1234.62 L 229.69 1227.85 Z" fill="#000000" fill-rule="nonzero" group-id="1" id="矩形备份-82" node-id="52" stroke="none" target-height="49.119995" target-width="13.7599945" target-x="229.67" target-y="1185.5"></path><path d="M 24.46 1031.60 L 38.19 1038.37 L 38.22 1066.06 L 24.49 1059.28 Z" fill="#000000" fill-rule="nonzero" group-id="1" id="矩形备份-83" node-id="53" stroke="none" target-height="34.460083" target-width="13.760002" target-x="24.46" target-y="1031.6"></path><path d="M 493.50 1236.80 L 507.24 1243.58 L 507.27 1271.27 L 493.53 1264.49 Z" fill="#000000" fill-rule="nonzero" group-id="1" id="矩形备份-85" node-id="54" stroke="none" target-height="34.46997" target-width="13.769989" target-x="493.5" target-y="1236.8"></path><path d="M 24.46 1178.17 L 38.19 1184.95 L 38.22 1212.64 L 24.49 1205.86 Z" fill="#000000" fill-rule="nonzero" group-id="1" id="矩形备份-84" node-id="55" stroke="none" target-height="34.46997" target-width="13.760002" target-x="24.46" target-y="1178.17"></path><path d="M 493.50 1383.38 L 507.24 1390.16 L 507.27 1417.85 L 493.53 1411.07 Z" fill="#000000" fill-rule="nonzero" group-id="1" id="矩形备份-86" node-id="56" stroke="none" target-height="34.46997" target-width="13.769989" target-x="493.5" target-y="1383.38"></path></g></svg>