<?xml version="1.0" standalone="no"?><!DOCTYPE svg PUBLIC "-//W3C//DTD SVG 1.1//EN" "http://www.w3.org/Graphics/SVG/1.1/DTD/svg11.dtd"><svg height="1461" node-id="1" sillyvg="true" template-height="1461" template-width="1025" version="1.1" viewBox="0 0 1025 1461" width="1025" xmlns="http://www.w3.org/2000/svg" xmlns:xlink="http://www.w3.org/1999/xlink"><defs node-id="100"><linearGradient gradientUnits="objectBoundingBox" id="linearGradient-1" node-id="5" spreadMethod="pad" x1="0" x2="1" y1="0.5" y2="0.5"><stop offset="0" stop-color="#252424"></stop><stop offset="1" stop-color="#181818"></stop></linearGradient><linearGradient gradientUnits="objectBoundingBox" id="linearGradient-2" node-id="8" spreadMethod="pad" x1="0.0161995" x2="1" y1="0.5" y2="0.5"><stop offset="0" stop-color="#a5a5a5"></stop><stop offset="1" stop-color="#7b7a7a"></stop></linearGradient><linearGradient gradientUnits="objectBoundingBox" id="linearGradient-3" node-id="11" spreadMethod="pad" x1="0.21946713" x2="1" y1="0.53094274" y2="0.53094274"><stop offset="0" stop-color="#ffffff"></stop><stop offset="1" stop-color="#dadada"></stop></linearGradient><linearGradient gradientUnits="objectBoundingBox" id="linearGradient-4" node-id="14" spreadMethod="pad" x1="0.5" x2="0.5" y1="0" y2="1"><stop offset="0" stop-color="#e9e9e9"></stop><stop offset="1" stop-color="#b1b1b1"></stop></linearGradient><linearGradient gradientUnits="objectBoundingBox" id="linearGradient-5" node-id="17" spreadMethod="pad" x1="0.5" x2="0.5" y1="0" y2="1"><stop offset="0" stop-color="#d2d2d2"></stop><stop offset="1" stop-color="#9e9e9e"></stop></linearGradient><linearGradient gradientUnits="objectBoundingBox" id="linearGradient-6" node-id="20" spreadMethod="pad" x1="0.5" x2="0.5" y1="0" y2="1"><stop offset="0" stop-color="#d2d2d2"></stop><stop offset="1" stop-color="#9e9e9e"></stop></linearGradient><linearGradient gradientUnits="objectBoundingBox" id="linearGradient-7" node-id="23" spreadMethod="pad" x1="0.5" x2="0.5" y1="0" y2="1"><stop offset="0" stop-color="#d2d2d2"></stop><stop offset="1" stop-color="#9e9e9e"></stop></linearGradient><linearGradient gradientUnits="objectBoundingBox" id="linearGradient-8" node-id="26" spreadMethod="pad" x1="0.5" x2="0.5" y1="0" y2="1"><stop offset="0" stop-color="#d2d2d2"></stop><stop offset="1" stop-color="#9e9e9e"></stop></linearGradient><linearGradient gradientUnits="objectBoundingBox" id="linearGradient-9" node-id="29" spreadMethod="pad" x1="0.5" x2="0.5" y1="0" y2="1"><stop offset="0" stop-color="#d2d2d2"></stop><stop offset="1" stop-color="#9e9e9e"></stop></linearGradient><linearGradient gradientUnits="objectBoundingBox" id="linearGradient-10" node-id="32" spreadMethod="pad" x1="0.5" x2="0.5" y1="0" y2="1"><stop offset="0" stop-color="#d2d2d2"></stop><stop offset="1" stop-color="#9e9e9e"></stop></linearGradient><linearGradient gradientUnits="objectBoundingBox" id="linearGradient-11" node-id="35" spreadMethod="pad" x1="0.5" x2="0.5" y1="0" y2="1"><stop offset="0" stop-color="#d2d2d2"></stop><stop offset="1" stop-color="#9e9e9e"></stop></linearGradient></defs><g node-id="167"><g node-id="168"><g node-id="174"><path d="M 356.63 1355.25 L 434.68 1359.52 L 434.68 1443.61 L 434.93 1445.38 L 434.68 1447.15 L 434.68 1451.34 L 432.11 1451.20 L 430.03 1452.94 L 427.30 1454.63 L 423.80 1456.27 L 420.18 1457.57 L 416.03 1458.72 L 411.30 1459.69 L 406.53 1460.37 L 401.40 1460.79 L 395.91 1460.95 L 388.45 1460.66 L 381.67 1459.88 L 375.21 1458.58 L 369.78 1456.94 L 366.34 1455.54 L 363.53 1454.07 L 361.25 1452.54 L 359.24 1450.72 L 357.90 1448.91 L 357.12 1447.09 L 356.63 1447.07 L 356.63 1355.25 Z" fill="url(#linearGradient-1)" fill-rule="nonzero" group-id="1,2,8" id="形状结合" node-id="42" stroke="none" target-height="105.69995" target-width="78.29999" target-x="356.63" target-y="1355.25"></path><path d="M 434.93 1358.00 L 434.59 1360.04 L 433.61 1362.04 L 431.86 1364.06 L 429.74 1365.76 L 426.99 1367.42 L 423.50 1369.01 L 419.89 1370.28 L 415.78 1371.40 L 411.10 1372.35 L 406.38 1373.01 L 401.33 1373.42 L 395.91 1373.57 L 390.49 1373.42 L 385.43 1373.01 L 380.72 1372.35 L 376.04 1371.40 L 371.92 1370.28 L 368.31 1369.01 L 364.82 1367.42 L 362.07 1365.76 L 359.95 1364.06 L 358.20 1362.04 L 357.22 1360.04 L 356.88 1358.00 L 357.22 1355.96 L 358.20 1353.96 L 359.95 1351.94 L 362.07 1350.24 L 364.82 1348.59 L 368.31 1346.99 L 371.92 1345.72 L 376.04 1344.60 L 380.72 1343.66 L 385.43 1343.00 L 390.49 1342.58 L 395.91 1342.43 L 401.33 1342.58 L 406.38 1343.00 L 411.10 1343.66 L 415.78 1344.60 L 419.89 1345.72 L 423.50 1346.99 L 426.99 1348.59 L 429.74 1350.24 L 431.86 1351.94 L 433.61 1353.96 L 434.59 1355.96 L 434.93 1358.00 Z" fill="#000000" fill-rule="nonzero" group-id="1,2,8" id="形状结合" node-id="43" stroke="none" target-height="31.139893" target-width="78.04999" target-x="356.88" target-y="1342.43"></path></g><g node-id="175"><path d="M 384.11 1326.42 L 410.13 1327.98 L 410.13 1361.65 L 409.43 1361.61 L 408.42 1362.43 L 406.91 1363.22 L 404.76 1363.94 L 401.33 1364.60 L 397.12 1364.85 L 393.58 1364.67 L 390.56 1364.20 L 387.81 1363.40 L 385.89 1362.48 L 384.86 1361.66 L 384.30 1360.86 L 384.11 1360.05 L 384.12 1360.08 L 384.11 1326.42 Z" fill="url(#linearGradient-2)" fill-rule="nonzero" group-id="1,2,9" id="形状结合备份" node-id="45" stroke="none" target-height="38.42993" target-width="26.02002" target-x="384.11" target-y="1326.42"></path><path d="M 410.13 1324.90 L 409.94 1325.72 L 409.39 1326.53 L 408.35 1327.36 L 406.44 1328.31 L 403.69 1329.11 L 400.66 1329.60 L 397.12 1329.78 L 393.58 1329.60 L 390.56 1329.11 L 387.81 1328.31 L 385.89 1327.36 L 384.86 1326.53 L 384.30 1325.72 L 384.11 1324.90 L 384.30 1324.07 L 384.86 1323.26 L 385.89 1322.43 L 387.81 1321.49 L 390.56 1320.68 L 393.58 1320.19 L 397.12 1320.01 L 400.66 1320.19 L 403.69 1320.68 L 406.44 1321.49 L 408.35 1322.43 L 409.39 1323.26 L 409.94 1324.07 L 410.13 1324.90 Z" fill="#585858" fill-rule="nonzero" group-id="1,2,9" id="形状结合备份-2" node-id="46" stroke="none" target-height="9.77002" target-width="26.02002" target-x="384.11" target-y="1320.01"></path></g></g><g node-id="169"><g node-id="176"><path d="M 944.29 1001.67 L 1022.34 1005.94 L 1022.34 1090.04 L 1022.59 1091.81 L 1022.34 1093.57 L 1022.34 1097.76 L 1019.77 1097.62 L 1017.69 1099.36 L 1014.96 1101.06 L 1011.46 1102.69 L 1007.84 1104.00 L 1003.69 1105.15 L 998.95 1106.12 L 994.18 1106.79 L 989.06 1107.22 L 983.56 1107.37 L 976.11 1107.09 L 969.32 1106.30 L 962.87 1105.01 L 957.43 1103.37 L 954.00 1101.97 L 951.19 1100.50 L 948.91 1098.97 L 946.89 1097.15 L 945.56 1095.34 L 944.77 1093.52 L 944.29 1093.49 L 944.29 1001.67 Z" fill="url(#linearGradient-1)" fill-rule="nonzero" group-id="1,3,10" id="形状结合" node-id="49" stroke="none" target-height="105.70001" target-width="78.30005" target-x="944.29" target-y="1001.67"></path><path d="M 1022.59 1004.43 L 1022.25 1006.47 L 1021.27 1008.47 L 1019.52 1010.49 L 1017.40 1012.19 L 1014.65 1013.84 L 1011.16 1015.44 L 1007.55 1016.71 L 1003.43 1017.83 L 998.75 1018.77 L 994.04 1019.43 L 988.98 1019.85 L 983.56 1020.00 L 978.14 1019.85 L 973.09 1019.43 L 968.37 1018.77 L 963.69 1017.83 L 959.58 1016.71 L 955.97 1015.44 L 952.48 1013.84 L 949.73 1012.19 L 947.61 1010.49 L 945.86 1008.47 L 944.88 1006.47 L 944.54 1004.43 L 944.88 1002.39 L 945.86 1000.39 L 947.61 998.37 L 949.73 996.67 L 952.48 995.01 L 955.97 993.42 L 959.58 992.15 L 963.69 991.03 L 968.37 990.08 L 973.09 989.42 L 978.14 989.01 L 983.56 988.86 L 988.98 989.01 L 994.04 989.42 L 998.75 990.08 L 1003.43 991.03 L 1007.55 992.15 L 1011.16 993.42 L 1014.65 995.01 L 1017.40 996.67 L 1019.52 998.37 L 1021.27 1000.39 L 1022.25 1002.39 L 1022.59 1004.43 Z" fill="#000000" fill-rule="nonzero" group-id="1,3,10" id="形状结合" node-id="50" stroke="none" target-height="31.140015" target-width="78.05005" target-x="944.54" target-y="988.86"></path></g><g node-id="177"><path d="M 971.77 972.84 L 997.79 974.41 L 997.79 1008.08 L 997.09 1008.04 L 996.08 1008.86 L 994.57 1009.64 L 992.42 1010.37 L 988.99 1011.03 L 984.78 1011.28 L 981.24 1011.10 L 978.21 1010.63 L 975.46 1009.83 L 973.55 1008.90 L 972.51 1008.08 L 971.96 1007.29 L 971.77 1006.48 L 971.77 1006.51 L 971.77 972.84 Z" fill="url(#linearGradient-2)" fill-rule="nonzero" group-id="1,3,11" id="形状结合备份" node-id="52" stroke="none" target-height="38.440002" target-width="26.019958" target-x="971.77" target-y="972.84"></path><path d="M 997.79 971.32 L 997.60 972.15 L 997.04 972.96 L 996.01 973.79 L 994.09 974.73 L 991.35 975.54 L 988.32 976.02 L 984.78 976.21 L 981.24 976.02 L 978.21 975.54 L 975.46 974.73 L 973.55 973.79 L 972.51 972.96 L 971.96 972.15 L 971.77 971.32 L 971.96 970.50 L 972.51 969.69 L 973.55 968.86 L 975.46 967.91 L 978.21 967.11 L 981.24 966.62 L 984.78 966.44 L 988.32 966.62 L 991.35 967.11 L 994.09 967.91 L 996.01 968.86 L 997.04 969.69 L 997.60 970.50 L 997.79 971.32 Z" fill="#585858" fill-rule="nonzero" group-id="1,3,11" id="形状结合备份-2" node-id="53" stroke="none" target-height="9.77002" target-width="26.019958" target-x="971.77" target-y="966.44"></path></g></g><g node-id="170"><g node-id="178"><path d="M 4.61 1192.48 L 82.66 1196.75 L 82.66 1280.84 L 82.91 1282.61 L 82.66 1284.38 L 82.66 1288.57 L 80.09 1288.43 L 78.01 1290.17 L 75.28 1291.86 L 71.78 1293.50 L 68.16 1294.80 L 64.01 1295.95 L 59.28 1296.92 L 54.51 1297.60 L 49.38 1298.03 L 43.89 1298.18 L 36.43 1297.90 L 29.65 1297.11 L 23.19 1295.82 L 17.76 1294.18 L 14.32 1292.78 L 11.51 1291.31 L 9.23 1289.78 L 7.22 1287.96 L 5.88 1286.15 L 5.10 1284.33 L 4.61 1284.30 L 4.61 1192.48 Z" fill="url(#linearGradient-1)" fill-rule="nonzero" group-id="1,4,12" id="形状结合" node-id="56" stroke="none" target-height="105.70007" target-width="78.3" target-x="4.61" target-y="1192.48"></path><path d="M 82.91 1195.24 L 82.57 1197.28 L 81.59 1199.28 L 79.84 1201.30 L 77.72 1203.00 L 74.97 1204.65 L 71.48 1206.25 L 67.87 1207.52 L 63.76 1208.64 L 59.08 1209.58 L 54.36 1210.24 L 49.31 1210.65 L 43.89 1210.80 L 38.47 1210.65 L 33.41 1210.24 L 28.70 1209.58 L 24.02 1208.64 L 19.90 1207.52 L 16.29 1206.25 L 12.80 1204.65 L 10.05 1203.00 L 7.93 1201.30 L 6.18 1199.28 L 5.20 1197.28 L 4.86 1195.24 L 5.20 1193.20 L 6.18 1191.20 L 7.93 1189.18 L 10.05 1187.47 L 12.80 1185.82 L 16.29 1184.23 L 19.90 1182.95 L 24.02 1181.84 L 28.70 1180.89 L 33.41 1180.23 L 38.47 1179.82 L 43.89 1179.67 L 49.31 1179.82 L 54.36 1180.23 L 59.08 1180.89 L 63.76 1181.84 L 67.87 1182.95 L 71.48 1184.23 L 74.97 1185.82 L 77.72 1187.47 L 79.84 1189.18 L 81.59 1191.20 L 82.57 1193.20 L 82.91 1195.24 Z" fill="#000000" fill-rule="nonzero" group-id="1,4,12" id="形状结合" node-id="57" stroke="none" target-height="31.130005" target-width="78.05" target-x="4.86" target-y="1179.67"></path></g><g node-id="179"><path d="M 32.09 1163.65 L 58.11 1165.22 L 58.11 1198.89 L 57.41 1198.84 L 56.40 1199.67 L 54.89 1200.45 L 52.74 1201.17 L 49.31 1201.83 L 45.10 1202.09 L 41.56 1201.91 L 38.54 1201.43 L 35.79 1200.64 L 33.87 1199.71 L 32.84 1198.89 L 32.28 1198.09 L 32.09 1197.29 L 32.10 1197.32 L 32.09 1163.65 Z" fill="url(#linearGradient-2)" fill-rule="nonzero" group-id="1,4,13" id="形状结合备份" node-id="59" stroke="none" target-height="38.43994" target-width="26.02" target-x="32.09" target-y="1163.65"></path><path d="M 58.11 1162.13 L 57.92 1162.95 L 57.37 1163.77 L 56.34 1164.60 L 54.42 1165.54 L 51.67 1166.35 L 48.64 1166.83 L 45.10 1167.01 L 41.56 1166.83 L 38.54 1166.35 L 35.79 1165.54 L 33.87 1164.60 L 32.84 1163.77 L 32.28 1162.95 L 32.09 1162.13 L 32.28 1161.31 L 32.84 1160.50 L 33.87 1159.67 L 35.79 1158.72 L 38.54 1157.91 L 41.56 1157.43 L 45.10 1157.25 L 48.64 1157.43 L 51.67 1157.91 L 54.42 1158.72 L 56.34 1159.67 L 57.37 1160.50 L 57.92 1161.31 L 58.11 1162.13 Z" fill="#585858" fill-rule="nonzero" group-id="1,4,13" id="形状结合备份-2" node-id="60" stroke="none" target-height="9.76001" target-width="26.02" target-x="32.09" target-y="1157.25"></path></g></g><g node-id="171"><g node-id="180"><path d="M 433.59 1030.57 L 511.64 1034.84 L 511.64 1118.93 L 511.89 1120.70 L 511.64 1122.47 L 511.64 1126.66 L 509.07 1126.52 L 506.98 1128.26 L 504.26 1129.95 L 500.76 1131.59 L 497.14 1132.89 L 492.99 1134.04 L 488.25 1135.01 L 483.48 1135.69 L 478.36 1136.11 L 472.86 1136.27 L 465.41 1135.98 L 458.62 1135.20 L 452.17 1133.90 L 446.73 1132.26 L 443.30 1130.86 L 440.49 1129.39 L 438.21 1127.87 L 436.19 1126.04 L 434.85 1124.24 L 434.07 1122.41 L 433.59 1122.39 L 433.59 1030.57 Z" fill="url(#linearGradient-1)" fill-rule="nonzero" group-id="1,5,14" id="形状结合" node-id="63" stroke="none" target-height="105.70007" target-width="78.30002" target-x="433.59" target-y="1030.57"></path><path d="M 511.89 1033.32 L 511.55 1035.36 L 510.57 1037.36 L 508.82 1039.38 L 506.70 1041.08 L 503.95 1042.74 L 500.46 1044.33 L 496.85 1045.60 L 492.73 1046.72 L 488.05 1047.67 L 483.34 1048.33 L 478.28 1048.74 L 472.86 1048.89 L 467.44 1048.74 L 462.39 1048.33 L 457.67 1047.67 L 452.99 1046.72 L 448.88 1045.60 L 445.27 1044.33 L 441.78 1042.74 L 439.03 1041.08 L 436.91 1039.38 L 435.16 1037.36 L 434.18 1035.36 L 433.84 1033.32 L 434.18 1031.28 L 435.16 1029.28 L 436.91 1027.26 L 439.03 1025.56 L 441.78 1023.91 L 445.27 1022.31 L 448.88 1021.04 L 452.99 1019.92 L 457.67 1018.98 L 462.39 1018.32 L 467.44 1017.91 L 472.86 1017.75 L 478.28 1017.91 L 483.34 1018.32 L 488.05 1018.98 L 492.73 1019.92 L 496.85 1021.04 L 500.46 1022.31 L 503.95 1023.91 L 506.70 1025.56 L 508.82 1027.26 L 510.57 1029.28 L 511.55 1031.28 L 511.89 1033.32 Z" fill="#000000" fill-rule="nonzero" group-id="1,5,14" id="形状结合" node-id="64" stroke="none" target-height="31.140015" target-width="78.05002" target-x="433.84" target-y="1017.75"></path></g><g node-id="181"><path d="M 461.07 1001.74 L 487.09 1003.31 L 487.09 1036.97 L 486.39 1036.93 L 485.37 1037.75 L 483.87 1038.54 L 481.72 1039.26 L 478.29 1039.92 L 474.08 1040.18 L 470.54 1040.00 L 467.51 1039.52 L 464.76 1038.72 L 462.85 1037.80 L 461.81 1036.98 L 461.26 1036.18 L 461.07 1035.37 L 461.07 1035.41 L 461.07 1001.74 Z" fill="url(#linearGradient-2)" fill-rule="nonzero" group-id="1,5,15" id="形状结合备份" node-id="66" stroke="none" target-height="38.440063" target-width="26.019989" target-x="461.07" target-y="1001.74"></path><path d="M 487.09 1000.22 L 486.90 1001.04 L 486.34 1001.85 L 485.31 1002.68 L 483.39 1003.63 L 480.64 1004.43 L 477.62 1004.92 L 474.08 1005.10 L 470.54 1004.92 L 467.51 1004.43 L 464.76 1003.63 L 462.85 1002.68 L 461.81 1001.85 L 461.26 1001.04 L 461.07 1000.22 L 461.26 999.39 L 461.81 998.58 L 462.85 997.75 L 464.76 996.81 L 467.51 996.00 L 470.54 995.52 L 474.08 995.33 L 477.62 995.52 L 480.64 996.00 L 483.39 996.81 L 485.31 997.75 L 486.34 998.58 L 486.90 999.39 L 487.09 1000.22 Z" fill="#585858" fill-rule="nonzero" group-id="1,5,15" id="形状结合备份-2" node-id="67" stroke="none" target-height="9.7699585" target-width="26.019989" target-x="461.07" target-y="995.33"></path></g></g><path d="M 451.50 722.50 L 1024.74 329.80 L 1024.74 995.33 L 402.27 1371.16 L 402.27 823.08 Z" fill="#d8d8d8" fill-rule="nonzero" group-id="1" id="矩形" node-id="68" stroke="none" target-height="1041.3601" target-width="622.47" target-x="402.27" target-y="329.8"></path><path d="M 545.37 911.25 L 758.52 787.84 L 797.67 815.25 L 797.67 932.70 L 527.92 1085.04 L 527.92 949.34 Z" fill="#000000" fill-rule="nonzero" group-id="1" id="矩形" node-id="69" stroke="none" target-height="297.2" target-width="269.75" target-x="527.92" target-y="787.84"></path><path d="M 2.95 1188.02 L 2.95 630.47 L 402.27 815.25 L 402.27 1371.16 Z" fill="#e8e6e6" fill-rule="nonzero" group-id="1" id="路径-16" node-id="70" stroke="none" target-height="740.69006" target-width="399.31998" target-x="2.95" target-y="630.47"></path><path d="M 90.02 963.51 L 90.02 740.86 L 90.34 739.30 L 91.19 738.04 L 92.45 737.18 L 94.02 736.86 L 94.88 736.96 L 95.70 737.23 L 296.06 829.95 L 297.51 830.89 L 298.60 832.16 L 299.30 833.69 L 299.54 835.39 L 299.54 1057.22 L 299.23 1058.79 L 298.37 1060.05 L 297.11 1060.90 L 295.54 1061.22 L 294.69 1061.13 L 293.88 1060.86 L 93.52 968.97 L 92.07 968.03 L 90.97 966.75 L 90.27 965.23 L 90.02 963.51 Z" fill="#0a0a0a" fill-opacity="0.82" fill-rule="nonzero" group-id="1" id="路径-16" node-id="71" stroke="none" target-height="324.36" target-width="209.52002" target-x="90.02" target-y="736.86"></path><path d="M 348.40 993.76 L 347.46 852.62 L 377.84 870.71 L 378.78 1010.99 Z" fill="#0a0a0a" fill-opacity="0.82" fill-rule="nonzero" group-id="1" id="路径-16备份-4" node-id="72" stroke="none" target-height="158.37" target-width="31.320007" target-x="347.46" target-y="852.62"></path><path d="M 351.40 902.92 L 351.26 896.59 L 351.49 894.55 L 352.22 892.73 L 353.37 891.17 L 354.89 889.94 L 356.67 889.14 L 358.70 888.82 L 360.80 889.07 L 362.76 889.89 L 365.41 891.72 L 367.73 893.79 L 369.75 896.11 L 371.49 898.70 L 372.89 901.49 L 373.91 904.39 L 374.57 907.43 L 374.86 910.64 L 374.98 916.29 L 374.75 918.36 L 374.02 920.20 L 372.85 921.78 L 371.32 923.02 L 369.51 923.83 L 367.46 924.16 L 365.40 923.93 L 363.49 923.16 L 360.84 921.41 L 358.52 919.41 L 356.50 917.16 L 354.77 914.63 L 353.37 911.91 L 352.34 909.06 L 351.69 906.07 L 351.40 902.92 Z" fill="#000000" fill-rule="nonzero" group-id="1,6,16" id="path-3" node-id="75" stroke="none" target-height="35.339966" target-width="23.720001" target-x="351.26" target-y="888.82"></path><path d="M 351.40 902.92 L 351.26 896.59 L 351.49 894.55 L 352.22 892.73 L 353.37 891.17 L 354.89 889.94 L 356.67 889.14 L 358.70 888.82 L 360.80 889.07 L 362.76 889.89 L 365.41 891.72 L 367.73 893.79 L 369.75 896.11 L 371.49 898.70 L 372.89 901.49 L 373.91 904.39 L 374.57 907.43 L 374.86 910.64 L 374.98 916.29 L 374.75 918.36 L 374.02 920.20 L 372.85 921.78 L 371.32 923.02 L 369.51 923.83 L 367.46 924.16 L 365.40 923.93 L 363.49 923.16 L 360.84 921.41 L 358.52 919.41 L 356.50 917.16 L 354.77 914.63 L 353.37 911.91 L 352.34 909.06 L 351.69 906.07 L 351.40 902.92 Z" fill="#ff0000" fill-opacity="0.82" fill-rule="evenodd" group-id="1,6,17" id="path-3" node-id="77" stroke="none" target-height="35.339966" target-width="23.720001" target-x="351.26" target-y="888.82"></path><path d="M 47.88 536.19 L 614.61 146.30 L 1024.74 329.80 L 453.16 721.29 Z" fill="#f7f7f7" fill-rule="nonzero" group-id="1" id="路径-16备份-2" node-id="78" stroke="none" target-height="574.99" target-width="976.86" target-x="47.88" target-y="146.3"></path><path d="M 50.00 533.50 L 453.16 721.29 L 402.27 826.99 L 0.74 633.43 Z" fill="#efeded" fill-rule="nonzero" group-id="1" id="矩形" node-id="79" stroke="none" target-height="293.49" target-width="452.42" target-x="0.74" target-y="533.5"></path><path d="M 715.46 25.57 L 714.63 67.31 L 714.05 124.68 L 713.83 201.13 L 713.56 229.71 L 712.75 258.08 L 711.41 286.25 L 709.54 314.23 L 707.13 342.01 L 704.20 369.61 L 700.75 397.03 L 696.77 424.28 L 695.78 424.28 L 695.15 426.55 L 694.02 428.79 L 692.33 431.02 L 690.01 433.28 L 686.57 435.81 L 682.25 438.25 L 676.92 440.58 L 671.42 442.45 L 665.21 444.09 L 658.22 445.47 L 651.19 446.43 L 643.67 447.03 L 635.65 447.25 L 627.62 447.03 L 620.11 446.43 L 613.07 445.47 L 606.08 444.09 L 599.87 442.45 L 594.38 440.58 L 589.04 438.25 L 584.73 435.81 L 581.29 433.28 L 578.96 431.02 L 577.28 428.79 L 576.15 426.55 L 575.51 424.28 L 574.53 424.28 L 575.39 422.97 L 575.38 422.64 L 575.70 420.13 L 576.61 417.67 L 578.15 415.23 L 580.43 412.76 L 582.98 405.63 L 585.49 396.88 L 587.93 386.28 L 590.27 373.58 L 592.47 358.50 L 594.47 340.76 L 596.24 320.07 L 597.71 296.10 L 598.84 268.52 L 599.56 236.99 L 599.81 201.13 L 599.57 136.91 L 598.95 92.08 L 598.09 62.27 L 597.13 43.68 L 596.17 33.08 L 595.30 27.77 L 594.59 25.60 L 594.57 25.57 L 715.46 25.57 Z M 593.22 25.57 L 593.69 25.05 L 594.06 25.02 L 594.47 25.40 L 594.57 25.57 L 593.22 25.57 Z" fill="url(#linearGradient-3)" fill-rule="nonzero" group-id="1,7" id="形状结合" node-id="81" stroke="none" target-height="422.23" target-width="140.93" target-x="574.53" target-y="25.02"></path><path d="M 715.46 25.57 L 715.16 28.00 L 714.31 30.38 L 712.86 32.75 L 710.73 35.15 L 708.34 37.18 L 705.44 39.16 L 701.96 41.10 L 697.81 42.97 L 692.24 44.98 L 685.88 46.75 L 678.65 48.25 L 671.37 49.29 L 663.56 49.94 L 655.19 50.18 L 646.83 49.94 L 639.02 49.29 L 631.73 48.25 L 624.51 46.75 L 618.15 44.98 L 612.58 42.97 L 608.43 41.10 L 604.94 39.16 L 602.04 37.18 L 599.66 35.15 L 597.52 32.75 L 596.08 30.38 L 595.23 28.00 L 594.92 25.57 L 595.23 23.13 L 596.08 20.75 L 597.52 18.38 L 599.66 15.99 L 602.04 13.96 L 604.94 11.98 L 608.43 10.04 L 612.58 8.16 L 618.15 6.15 L 624.51 4.38 L 631.73 2.89 L 639.02 1.85 L 646.83 1.20 L 655.19 0.96 L 663.56 1.20 L 671.37 1.85 L 678.65 2.89 L 685.88 4.38 L 692.24 6.15 L 697.81 8.16 L 701.96 10.04 L 705.44 11.98 L 708.34 13.96 L 710.73 15.99 L 712.86 18.38 L 714.31 20.75 L 715.16 23.13 L 715.46 25.57 Z" fill="url(#linearGradient-4)" fill-rule="nonzero" group-id="1,7" id="椭圆形备份-2" node-id="82" stroke="none" target-height="49.22" target-width="120.54004" target-x="594.92" target-y="0.96"></path><path d="M 714.87 45.02 L 715.31 46.77 L 715.46 48.54 L 715.16 50.98 L 714.33 53.36 L 712.93 55.73 L 710.85 58.12 L 708.53 60.15 L 705.71 62.14 L 702.32 64.07 L 698.29 65.94 L 692.86 67.96 L 686.67 69.73 L 679.65 71.22 L 672.56 72.26 L 664.96 72.91 L 656.82 73.15 L 648.68 72.91 L 641.09 72.26 L 634.00 71.22 L 626.97 69.73 L 620.78 67.96 L 615.36 65.94 L 611.33 64.07 L 607.94 62.14 L 605.11 60.15 L 602.79 58.12 L 600.72 55.73 L 599.31 53.36 L 598.48 50.98 L 598.18 48.54 L 598.33 46.77 L 598.78 45.02 L 599.71 46.81 L 601.07 48.60 L 602.94 50.41 L 605.41 52.24 L 608.87 54.25 L 613.11 56.19 L 618.25 58.04 L 623.48 59.52 L 629.33 60.82 L 635.86 61.90 L 642.42 62.66 L 649.40 63.13 L 656.82 63.31 L 664.23 63.13 L 671.19 62.66 L 677.74 61.91 L 684.25 60.83 L 690.10 59.54 L 695.32 58.06 L 700.46 56.23 L 704.70 54.29 L 708.17 52.29 L 710.64 50.47 L 712.52 48.67 L 713.89 46.88 L 714.84 45.10 L 714.87 45.02 Z" fill="url(#linearGradient-5)" fill-opacity="0.18" fill-rule="nonzero" group-id="1,7" id="形状结合" node-id="83" stroke="none" target-height="28.130001" target-width="117.28003" target-x="598.18" target-y="45.02"></path><path d="M 711.64 94.25 L 712.06 95.99 L 712.20 97.76 L 711.92 100.22 L 711.13 102.61 L 709.80 104.97 L 707.85 107.34 L 705.65 109.38 L 702.97 111.37 L 699.78 113.30 L 695.98 115.17 L 690.85 117.18 L 685.01 118.95 L 678.38 120.44 L 671.68 121.48 L 664.51 122.14 L 656.82 122.37 L 649.14 122.14 L 641.96 121.48 L 635.26 120.44 L 628.64 118.95 L 622.79 117.18 L 617.66 115.17 L 613.87 113.30 L 610.67 111.37 L 608.00 109.38 L 605.79 107.34 L 603.84 104.97 L 602.51 102.61 L 601.72 100.22 L 601.44 97.76 L 601.58 95.99 L 602.00 94.25 L 602.89 96.05 L 604.18 97.84 L 605.95 99.65 L 608.26 101.46 L 611.54 103.48 L 615.55 105.42 L 620.39 107.26 L 625.33 108.75 L 630.86 110.04 L 637.03 111.13 L 643.22 111.88 L 649.81 112.36 L 656.82 112.53 L 663.81 112.36 L 670.39 111.89 L 676.57 111.13 L 682.73 110.06 L 688.25 108.77 L 693.19 107.29 L 698.02 105.45 L 702.03 103.52 L 705.31 101.51 L 707.64 99.70 L 709.41 97.90 L 710.72 96.12 L 711.61 94.32 L 711.64 94.25 Z" fill="url(#linearGradient-6)" fill-opacity="0.18" fill-rule="nonzero" group-id="1,7" id="形状结合备份-5" node-id="84" stroke="none" target-height="28.120003" target-width="110.76001" target-x="601.44" target-y="94.25"></path><path d="M 711.64 140.19 L 712.06 141.93 L 712.20 143.70 L 711.92 146.16 L 711.13 148.55 L 709.80 150.91 L 707.85 153.28 L 705.65 155.33 L 702.97 157.31 L 699.78 159.24 L 695.98 161.11 L 690.85 163.13 L 685.01 164.89 L 678.38 166.38 L 671.68 167.42 L 664.51 168.08 L 656.82 168.32 L 649.14 168.08 L 641.96 167.42 L 635.26 166.38 L 628.64 164.89 L 622.79 163.13 L 617.66 161.11 L 613.87 159.24 L 610.67 157.31 L 608.00 155.33 L 605.79 153.28 L 603.84 150.91 L 602.51 148.55 L 601.72 146.16 L 601.44 143.70 L 601.58 141.93 L 602.00 140.19 L 602.89 141.99 L 604.18 143.79 L 605.95 145.59 L 608.26 147.41 L 611.54 149.42 L 615.55 151.36 L 620.39 153.21 L 625.33 154.69 L 630.86 155.99 L 637.03 157.07 L 643.22 157.83 L 649.81 158.30 L 656.82 158.47 L 663.81 158.30 L 670.39 157.83 L 676.57 157.08 L 682.73 156.00 L 688.25 154.71 L 693.19 153.23 L 698.02 151.40 L 702.03 149.46 L 705.31 147.45 L 707.64 145.64 L 709.41 143.85 L 710.72 142.06 L 711.61 140.26 L 711.64 140.19 Z" fill="url(#linearGradient-7)" fill-opacity="0.18" fill-rule="nonzero" group-id="1,7" id="形状结合备份-7" node-id="85" stroke="none" target-height="28.130005" target-width="110.76001" target-x="601.44" target-y="140.19"></path><path d="M 711.64 189.41 L 712.06 191.16 L 712.20 192.93 L 711.92 195.38 L 711.13 197.77 L 709.80 200.14 L 707.85 202.51 L 705.65 204.55 L 702.97 206.54 L 699.78 208.47 L 695.98 210.33 L 690.85 212.35 L 685.01 214.12 L 678.38 215.61 L 671.68 216.65 L 664.51 217.30 L 656.82 217.54 L 649.14 217.30 L 641.96 216.65 L 635.26 215.61 L 628.64 214.12 L 622.79 212.35 L 617.66 210.33 L 613.87 208.47 L 610.67 206.54 L 608.00 204.55 L 605.79 202.51 L 603.84 200.14 L 602.51 197.77 L 601.72 195.38 L 601.44 192.93 L 601.58 191.16 L 602.00 189.41 L 602.89 191.21 L 604.18 193.01 L 605.95 194.81 L 608.26 196.63 L 611.54 198.65 L 615.55 200.59 L 620.39 202.43 L 625.33 203.92 L 630.86 205.21 L 637.03 206.29 L 643.22 207.05 L 649.81 207.52 L 656.82 207.70 L 663.81 207.52 L 670.39 207.05 L 676.57 206.30 L 682.73 205.22 L 688.25 203.93 L 693.19 202.45 L 698.02 200.62 L 702.03 198.69 L 705.31 196.68 L 707.64 194.87 L 709.41 193.07 L 710.72 191.28 L 711.61 189.49 L 711.64 189.41 Z" fill="url(#linearGradient-7)" fill-opacity="0.18" fill-rule="nonzero" group-id="1,7" id="形状结合备份-9" node-id="86" stroke="none" target-height="28.12999" target-width="110.76001" target-x="601.44" target-y="189.41"></path><path d="M 711.63 238.64 L 712.06 240.38 L 712.20 242.15 L 711.91 244.60 L 711.10 246.99 L 709.73 249.35 L 707.72 251.73 L 705.46 253.77 L 702.71 255.76 L 699.42 257.69 L 695.51 259.56 L 690.23 261.57 L 684.21 263.34 L 677.38 264.83 L 670.49 265.87 L 663.11 266.52 L 655.19 266.76 L 647.28 266.52 L 639.90 265.87 L 633.00 264.83 L 626.17 263.34 L 620.16 261.57 L 614.88 259.56 L 610.97 257.69 L 607.67 255.76 L 604.93 253.77 L 602.66 251.73 L 600.65 249.35 L 599.28 246.99 L 598.47 244.60 L 598.18 242.15 L 598.33 240.38 L 598.76 238.64 L 599.67 240.43 L 601.00 242.23 L 602.81 244.03 L 605.21 245.85 L 608.57 247.87 L 612.70 249.81 L 617.69 251.65 L 622.78 253.14 L 628.47 254.43 L 634.81 255.52 L 641.19 256.27 L 647.98 256.75 L 655.19 256.92 L 662.39 256.75 L 669.16 256.28 L 675.53 255.52 L 681.86 254.44 L 687.54 253.16 L 692.63 251.68 L 697.61 249.84 L 701.74 247.91 L 705.11 245.90 L 707.51 244.08 L 709.34 242.29 L 710.68 240.50 L 711.60 238.71 L 711.63 238.64 Z" fill="url(#linearGradient-8)" fill-opacity="0.18" fill-rule="nonzero" group-id="1,7" id="形状结合备份-11" node-id="87" stroke="none" target-height="28.12001" target-width="114.02002" target-x="598.18" target-y="238.64"></path><path d="M 711.63 284.58 L 712.06 286.32 L 712.20 288.09 L 711.91 290.54 L 711.10 292.93 L 709.73 295.30 L 707.72 297.67 L 705.46 299.71 L 702.71 301.70 L 699.42 303.63 L 695.51 305.50 L 690.23 307.51 L 684.21 309.28 L 677.38 310.77 L 670.49 311.81 L 663.11 312.47 L 655.19 312.71 L 647.28 312.47 L 639.90 311.81 L 633.00 310.77 L 626.17 309.28 L 620.16 307.51 L 614.88 305.50 L 610.97 303.63 L 607.67 301.70 L 604.93 299.71 L 602.66 297.67 L 600.65 295.30 L 599.28 292.93 L 598.47 290.54 L 598.18 288.09 L 598.33 286.32 L 598.76 284.58 L 599.67 286.37 L 601.00 288.17 L 602.81 289.97 L 605.21 291.80 L 608.57 293.81 L 612.70 295.75 L 617.69 297.60 L 622.78 299.08 L 628.47 300.38 L 634.81 301.46 L 641.19 302.22 L 647.98 302.69 L 655.19 302.86 L 662.39 302.69 L 669.16 302.22 L 675.53 301.46 L 681.86 300.39 L 687.54 299.10 L 692.63 297.62 L 697.61 295.78 L 701.74 293.85 L 705.11 291.84 L 707.51 290.03 L 709.34 288.23 L 710.68 286.44 L 711.60 284.65 L 711.63 284.58 Z" fill="url(#linearGradient-8)" fill-opacity="0.18" fill-rule="nonzero" group-id="1,7" id="形状结合备份-13" node-id="88" stroke="none" target-height="28.130005" target-width="114.02002" target-x="598.18" target-y="284.58"></path><path d="M 705.13 333.80 L 705.55 335.55 L 705.69 337.32 L 705.40 339.77 L 704.61 342.16 L 703.28 344.53 L 701.34 346.90 L 699.13 348.94 L 696.46 350.93 L 693.26 352.86 L 689.47 354.72 L 684.33 356.74 L 678.49 358.51 L 671.86 360.00 L 665.16 361.04 L 657.99 361.69 L 650.31 361.93 L 642.62 361.69 L 635.45 361.04 L 628.75 360.00 L 622.12 358.51 L 616.28 356.74 L 611.15 354.72 L 607.35 352.86 L 604.15 350.93 L 601.48 348.94 L 599.28 346.90 L 597.33 344.53 L 596.00 342.16 L 595.21 339.77 L 594.92 337.32 L 595.07 335.55 L 595.49 333.80 L 596.37 335.60 L 597.67 337.40 L 599.43 339.20 L 601.75 341.02 L 605.03 343.04 L 609.03 344.98 L 613.87 346.82 L 618.82 348.31 L 624.35 349.60 L 630.51 350.68 L 636.71 351.44 L 643.30 351.91 L 650.31 352.09 L 657.30 351.91 L 663.87 351.44 L 670.06 350.69 L 676.21 349.61 L 681.73 348.32 L 686.67 346.84 L 691.51 345.01 L 695.52 343.08 L 698.80 341.07 L 701.12 339.26 L 702.90 337.46 L 704.20 335.67 L 705.10 333.88 L 705.13 333.80 Z" fill="url(#linearGradient-9)" fill-opacity="0.18" fill-rule="nonzero" group-id="1,7" id="形状结合备份-15" node-id="89" stroke="none" target-height="28.130005" target-width="110.77002" target-x="594.92" target-y="333.8"></path><path d="M 701.85 383.03 L 702.28 384.77 L 702.43 386.54 L 702.14 388.99 L 701.33 391.38 L 699.96 393.74 L 697.95 396.12 L 695.69 398.16 L 692.94 400.14 L 689.64 402.08 L 685.73 403.94 L 680.45 405.96 L 674.44 407.73 L 667.61 409.22 L 660.72 410.26 L 653.33 410.91 L 645.42 411.15 L 637.51 410.91 L 630.12 410.26 L 623.23 409.22 L 616.40 407.73 L 610.39 405.96 L 605.11 403.94 L 601.20 402.08 L 597.90 400.14 L 595.15 398.16 L 592.89 396.12 L 590.88 393.74 L 589.51 391.38 L 588.70 388.99 L 588.41 386.54 L 588.55 384.77 L 588.99 383.03 L 589.89 384.82 L 591.22 386.61 L 593.04 388.42 L 595.43 390.24 L 598.80 392.26 L 602.92 394.20 L 607.91 396.04 L 613.00 397.53 L 618.69 398.82 L 625.04 399.91 L 631.42 400.66 L 638.20 401.14 L 645.42 401.31 L 652.62 401.14 L 659.39 400.67 L 665.75 399.91 L 672.09 398.83 L 677.77 397.55 L 682.85 396.07 L 687.84 394.23 L 691.96 392.30 L 695.34 390.29 L 697.74 388.47 L 699.56 386.68 L 700.90 384.89 L 701.82 383.10 L 701.85 383.03 Z" fill="url(#linearGradient-8)" fill-opacity="0.18" fill-rule="nonzero" group-id="1,7" id="形状结合备份-17" node-id="90" stroke="none" target-height="28.119995" target-width="114.02002" target-x="588.41" target-y="383.03"></path><path d="M 714.87 67.99 L 715.31 69.74 L 715.46 71.51 L 715.16 73.95 L 714.33 76.34 L 712.93 78.70 L 710.85 81.09 L 708.53 83.12 L 705.71 85.11 L 702.32 87.04 L 698.29 88.91 L 692.86 90.93 L 686.67 92.70 L 679.65 94.19 L 672.56 95.23 L 664.96 95.88 L 656.82 96.12 L 648.68 95.88 L 641.09 95.23 L 634.00 94.19 L 626.97 92.70 L 620.78 90.93 L 615.36 88.91 L 611.33 87.04 L 607.94 85.11 L 605.11 83.12 L 602.79 81.09 L 600.72 78.70 L 599.31 76.34 L 598.48 73.95 L 598.18 71.51 L 598.33 69.74 L 598.78 67.99 L 599.71 69.78 L 601.07 71.57 L 602.94 73.38 L 605.41 75.21 L 608.87 77.22 L 613.11 79.16 L 618.25 81.01 L 623.48 82.50 L 629.33 83.79 L 635.86 84.87 L 642.42 85.63 L 649.40 86.10 L 656.82 86.28 L 664.23 86.11 L 671.19 85.63 L 677.74 84.88 L 684.25 83.80 L 690.10 82.51 L 695.32 81.04 L 700.46 79.20 L 704.70 77.26 L 708.17 75.26 L 710.64 73.44 L 712.52 71.64 L 713.89 69.85 L 714.84 68.07 L 714.87 67.99 Z" fill="url(#linearGradient-5)" fill-opacity="0.18" fill-rule="nonzero" group-id="1,7" id="形状结合备份-4" node-id="91" stroke="none" target-height="28.130005" target-width="117.28003" target-x="598.18" target-y="67.99"></path><path d="M 711.64 117.22 L 712.06 118.96 L 712.20 120.73 L 711.92 123.19 L 711.13 125.58 L 709.80 127.94 L 707.85 130.31 L 705.65 132.35 L 702.97 134.34 L 699.78 136.27 L 695.98 138.14 L 690.85 140.15 L 685.01 141.92 L 678.38 143.41 L 671.68 144.45 L 664.51 145.11 L 656.82 145.35 L 649.14 145.11 L 641.96 144.45 L 635.26 143.41 L 628.64 141.92 L 622.79 140.15 L 617.66 138.14 L 613.87 136.27 L 610.67 134.34 L 608.00 132.35 L 605.79 130.31 L 603.84 127.94 L 602.51 125.58 L 601.72 123.19 L 601.44 120.73 L 601.58 118.96 L 602.00 117.22 L 602.89 119.02 L 604.18 120.81 L 605.95 122.62 L 608.26 124.44 L 611.54 126.45 L 615.55 128.39 L 620.39 130.24 L 625.33 131.72 L 630.86 133.02 L 637.03 134.10 L 643.22 134.86 L 649.81 135.33 L 656.82 135.50 L 663.81 135.33 L 670.39 134.86 L 676.57 134.10 L 682.73 133.03 L 688.25 131.74 L 693.19 130.26 L 698.02 128.42 L 702.03 126.49 L 705.31 124.48 L 707.64 122.67 L 709.41 120.88 L 710.72 119.09 L 711.61 117.29 L 711.64 117.22 Z" fill="url(#linearGradient-7)" fill-opacity="0.18" fill-rule="nonzero" group-id="1,7" id="形状结合备份-6" node-id="92" stroke="none" target-height="28.130005" target-width="110.76001" target-x="601.44" target-y="117.22"></path><path d="M 711.64 166.44 L 712.06 168.18 L 712.20 169.96 L 711.92 172.41 L 711.13 174.80 L 709.80 177.17 L 707.85 179.54 L 705.65 181.58 L 702.97 183.57 L 699.78 185.50 L 695.98 187.36 L 690.85 189.38 L 685.01 191.15 L 678.38 192.64 L 671.68 193.68 L 664.51 194.33 L 656.82 194.57 L 649.14 194.33 L 641.96 193.68 L 635.26 192.64 L 628.64 191.15 L 622.79 189.38 L 617.66 187.36 L 613.87 185.50 L 610.67 183.57 L 608.00 181.58 L 605.79 179.54 L 603.84 177.17 L 602.51 174.80 L 601.72 172.41 L 601.44 169.96 L 601.58 168.18 L 602.00 166.44 L 602.89 168.24 L 604.18 170.04 L 605.95 171.84 L 608.26 173.66 L 611.54 175.68 L 615.55 177.62 L 620.39 179.46 L 625.33 180.94 L 630.86 182.24 L 637.03 183.32 L 643.22 184.08 L 649.81 184.55 L 656.82 184.72 L 663.81 184.55 L 670.39 184.08 L 676.57 183.33 L 682.73 182.25 L 688.25 180.96 L 693.19 179.48 L 698.02 177.65 L 702.03 175.72 L 705.31 173.71 L 707.64 171.90 L 709.41 170.10 L 710.72 168.31 L 711.61 166.52 L 711.64 166.44 Z" fill="url(#linearGradient-6)" fill-opacity="0.18" fill-rule="nonzero" group-id="1,7" id="形状结合备份-8" node-id="93" stroke="none" target-height="28.130005" target-width="110.76001" target-x="601.44" target-y="166.44"></path><path d="M 711.64 212.38 L 712.06 214.13 L 712.20 215.90 L 711.92 218.36 L 711.13 220.74 L 709.80 223.11 L 707.85 225.48 L 705.65 227.52 L 702.97 229.51 L 699.78 231.44 L 695.98 233.30 L 690.85 235.32 L 685.01 237.09 L 678.38 238.58 L 671.68 239.62 L 664.51 240.27 L 656.82 240.51 L 649.14 240.27 L 641.96 239.62 L 635.26 238.58 L 628.64 237.09 L 622.79 235.32 L 617.66 233.30 L 613.87 231.44 L 610.67 229.51 L 608.00 227.52 L 605.79 225.48 L 603.84 223.11 L 602.51 220.74 L 601.72 218.36 L 601.44 215.90 L 601.58 214.13 L 602.00 212.38 L 602.89 214.19 L 604.18 215.98 L 605.95 217.78 L 608.26 219.60 L 611.54 221.62 L 615.55 223.56 L 620.39 225.40 L 625.33 226.89 L 630.86 228.18 L 637.03 229.26 L 643.22 230.02 L 649.81 230.49 L 656.82 230.67 L 663.81 230.50 L 670.39 230.02 L 676.57 229.27 L 682.73 228.19 L 688.25 226.90 L 693.19 225.42 L 698.02 223.59 L 702.03 221.66 L 705.31 219.65 L 707.64 217.84 L 709.41 216.04 L 710.72 214.25 L 711.61 212.46 L 711.64 212.38 Z" fill="url(#linearGradient-7)" fill-opacity="0.18" fill-rule="nonzero" group-id="1,7" id="形状结合备份-10" node-id="94" stroke="none" target-height="28.12999" target-width="110.76001" target-x="601.44" target-y="212.38"></path><path d="M 711.63 261.61 L 712.06 263.35 L 712.20 265.12 L 711.91 267.57 L 711.10 269.96 L 709.73 272.32 L 707.72 274.70 L 705.46 276.74 L 702.71 278.73 L 699.42 280.66 L 695.51 282.53 L 690.23 284.54 L 684.21 286.31 L 677.38 287.80 L 670.49 288.84 L 663.11 289.50 L 655.19 289.74 L 647.28 289.50 L 639.90 288.84 L 633.00 287.80 L 626.17 286.31 L 620.16 284.54 L 614.88 282.53 L 610.97 280.66 L 607.67 278.73 L 604.93 276.74 L 602.66 274.70 L 600.65 272.32 L 599.28 269.96 L 598.47 267.57 L 598.18 265.12 L 598.33 263.35 L 598.76 261.61 L 599.67 263.40 L 601.00 265.20 L 602.81 267.00 L 605.21 268.82 L 608.57 270.84 L 612.70 272.78 L 617.69 274.63 L 622.78 276.11 L 628.47 277.40 L 634.81 278.49 L 641.19 279.24 L 647.98 279.72 L 655.19 279.89 L 662.39 279.72 L 669.16 279.25 L 675.53 278.49 L 681.86 277.42 L 687.54 276.13 L 692.63 274.65 L 697.61 272.81 L 701.74 270.88 L 705.11 268.87 L 707.51 267.06 L 709.34 265.26 L 710.68 263.47 L 711.60 261.68 L 711.63 261.61 Z" fill="url(#linearGradient-8)" fill-opacity="0.18" fill-rule="nonzero" group-id="1,7" id="形状结合备份-12" node-id="95" stroke="none" target-height="28.130005" target-width="114.02002" target-x="598.18" target-y="261.61"></path><path d="M 708.37 310.83 L 708.80 312.57 L 708.95 314.35 L 708.65 316.80 L 707.85 319.18 L 706.48 321.55 L 704.47 323.93 L 702.20 325.96 L 699.45 327.95 L 696.16 329.88 L 692.25 331.75 L 686.97 333.77 L 680.95 335.53 L 674.13 337.02 L 667.23 338.07 L 659.85 338.72 L 651.93 338.96 L 644.02 338.72 L 636.64 338.07 L 629.74 337.02 L 622.92 335.53 L 616.90 333.77 L 611.62 331.75 L 607.71 329.88 L 604.42 327.95 L 601.67 325.96 L 599.40 323.93 L 597.39 321.55 L 596.02 319.18 L 595.22 316.80 L 594.92 314.35 L 595.07 312.57 L 595.50 310.83 L 596.41 312.63 L 597.74 314.42 L 599.56 316.22 L 601.95 318.05 L 605.32 320.06 L 609.44 322.00 L 614.43 323.85 L 619.52 325.33 L 625.21 326.63 L 631.56 327.71 L 637.93 328.47 L 644.72 328.94 L 651.93 329.11 L 659.13 328.94 L 665.90 328.47 L 672.27 327.72 L 678.60 326.64 L 684.29 325.35 L 689.37 323.87 L 694.35 322.04 L 698.48 320.10 L 701.85 318.10 L 704.25 316.28 L 706.08 314.48 L 707.42 312.69 L 708.34 310.90 L 708.37 310.83 Z" fill="url(#linearGradient-10)" fill-opacity="0.18" fill-rule="nonzero" group-id="1,7" id="形状结合备份-14" node-id="96" stroke="none" target-height="28.130005" target-width="114.03003" target-x="594.92" target-y="310.83"></path><path d="M 701.87 356.77 L 702.29 358.52 L 702.43 360.29 L 702.15 362.74 L 701.36 365.13 L 700.03 367.50 L 698.08 369.87 L 695.87 371.91 L 693.20 373.90 L 690.00 375.83 L 686.21 377.69 L 681.08 379.71 L 675.23 381.48 L 668.61 382.97 L 661.91 384.01 L 654.73 384.66 L 647.05 384.90 L 639.36 384.66 L 632.19 384.01 L 625.49 382.97 L 618.86 381.48 L 613.02 379.71 L 607.89 377.69 L 604.09 375.83 L 600.90 373.90 L 598.22 371.91 L 596.02 369.87 L 594.07 367.50 L 592.74 365.13 L 591.95 362.74 L 591.67 360.29 L 591.81 358.52 L 592.23 356.77 L 593.11 358.58 L 594.41 360.37 L 596.17 362.17 L 598.49 363.99 L 601.77 366.01 L 605.77 367.95 L 610.62 369.79 L 615.56 371.28 L 621.09 372.57 L 627.25 373.65 L 633.45 374.41 L 640.04 374.88 L 647.05 375.06 L 654.04 374.89 L 660.62 374.41 L 666.80 373.66 L 672.95 372.58 L 678.47 371.29 L 683.41 369.81 L 688.25 367.98 L 692.26 366.05 L 695.54 364.04 L 697.86 362.23 L 699.64 360.43 L 700.94 358.64 L 701.84 356.85 L 701.87 356.77 Z" fill="url(#linearGradient-11)" fill-opacity="0.18" fill-rule="nonzero" group-id="1,7" id="形状结合备份-16" node-id="97" stroke="none" target-height="28.130005" target-width="110.76001" target-x="591.67" target-y="356.77"></path><path d="M 698.58 406.00 L 699.02 407.74 L 699.17 409.51 L 698.87 411.96 L 698.04 414.34 L 696.64 416.71 L 694.56 419.09 L 692.24 421.13 L 689.42 423.11 L 686.03 425.04 L 682.00 426.92 L 676.57 428.93 L 670.38 430.70 L 663.36 432.19 L 656.27 433.23 L 648.67 433.89 L 640.53 434.12 L 632.39 433.89 L 624.80 433.23 L 617.71 432.19 L 610.68 430.70 L 604.50 428.93 L 599.07 426.92 L 595.04 425.04 L 591.65 423.11 L 588.82 421.13 L 586.50 419.09 L 584.43 416.71 L 583.02 414.34 L 582.19 411.96 L 581.89 409.51 L 582.04 407.74 L 582.49 406.00 L 583.42 407.79 L 584.78 409.58 L 586.65 411.38 L 589.12 413.21 L 592.58 415.23 L 596.82 417.17 L 601.96 419.01 L 607.19 420.50 L 613.04 421.79 L 619.57 422.88 L 626.13 423.63 L 633.11 424.11 L 640.53 424.28 L 647.94 424.11 L 654.90 423.64 L 661.45 422.88 L 667.97 421.81 L 673.81 420.52 L 679.04 419.04 L 684.17 417.20 L 688.41 415.27 L 691.88 413.26 L 694.35 411.44 L 696.23 409.64 L 697.61 407.85 L 698.55 406.07 L 698.58 406.00 Z" fill="url(#linearGradient-5)" fill-opacity="0.18" fill-rule="nonzero" group-id="1,7" id="形状结合备份-18" node-id="98" stroke="none" target-height="28.119995" target-width="117.27997" target-x="581.89" target-y="406"></path></g></svg>