<svg xmlns:xlink="http://www.w3.org/1999/xlink" xmlns="http://www.w3.org/2000/svg" version="1.1" viewBox="0 0 1051 1644" height="1644px" width="1051px">
    <title>PBA9</title>
    <defs>
        <linearGradient id="linearGradient-1" y2="50%" x2="100%" y1="50%" x1="0%">
            <stop offset="0%" stop-color="#252424"></stop>
            <stop offset="100%" stop-color="#181818"></stop>
        </linearGradient>
        <linearGradient id="linearGradient-2" y2="50%" x2="100%" y1="50%" x1="1.61994987%">
            <stop offset="0%" stop-color="#A5A5A5"></stop>
            <stop offset="100%" stop-color="#7B7A7A"></stop>
        </linearGradient>
        <linearGradient id="linearGradient-3" y2="53.5152679%" x2="33.5324159%" y1="52.2959596%" x1="10.5628407%">
            <stop offset="0%" stop-color="#EEECE6"></stop>
            <stop offset="100%" stop-color="#BDB4A1"></stop>
        </linearGradient>
    </defs>
    <g fill-rule="evenodd" fill="none" stroke-width="1" stroke="none" id="页面-1">
        <g transform="translate(0.500000, 0.633693)" id="PBA9">
            <g fill-rule="nonzero" transform="translate(508.453453, 1479.969208)" id="编组-24">
                <g transform="translate(0.000000, 25.883740)" id="编组-23">
                    <path fill="url(#linearGradient-1)" id="形状结合" d="M0,14.7907085 L88.4157635,19.7209447 L88.4158196,116.802354 C88.6017545,117.471663 88.6972644,118.152109 88.6972644,118.841623 C88.6972644,119.531156 88.6017493,120.21162 88.4158045,120.880946 L88.4157635,125.721022 L85.5071674,125.557778 C78.9634845,132.156741 63.0642649,136.814054 44.4893827,136.814054 C21.7199146,136.814054 2.9709922,129.815811 0.546683008,120.821467 L0,120.790786 L0,14.7907085 Z"></path>
                    <ellipse ry="17.9724306" rx="44.2078817" cy="17.9724306" cx="44.4893827" fill="#000000" id="形状结合"></ellipse>
                </g>
                <g transform="translate(31.130825, 0.000000)" id="编组-22">
                    <path fill="url(#linearGradient-2)" id="形状结合备份" d="M0,7.39535424 L29.4719212,9.2031075 L29.4719212,48.0698025 L28.6776991,48.0219458 C26.6911001,50.2011603 21.1995028,51.7674796 14.7359606,51.7674796 C6.59751428,51.7674796 0,49.28422 0,46.220964 L0.00102965085,46.2615849 L0,7.39535424 Z"></path>
                    <ellipse ry="5.63830199" rx="14.7359606" cy="5.63830199" cx="14.7359606" fill="#585858" id="形状结合备份-2"></ellipse>
                </g>
            </g>
            <g fill-rule="nonzero" transform="translate(955.085487, 1259.371360)" id="编组-24备份-2">
                <g transform="translate(0.000000, 25.883740)" id="编组-23">
                    <path fill="url(#linearGradient-1)" id="形状结合" d="M0,14.7907085 L88.4157635,19.7209447 L88.4158196,116.802354 C88.6017545,117.471663 88.6972644,118.152109 88.6972644,118.841623 C88.6972644,119.531156 88.6017493,120.21162 88.4158045,120.880946 L88.4157635,125.721022 L85.5071674,125.557778 C78.9634845,132.156741 63.0642649,136.814054 44.4893827,136.814054 C21.7199146,136.814054 2.9709922,129.815811 0.546683008,120.821467 L0,120.790786 L0,14.7907085 Z"></path>
                    <ellipse ry="17.9724306" rx="44.2078817" cy="17.9724306" cx="44.4893827" fill="#000000" id="形状结合"></ellipse>
                </g>
                <g transform="translate(31.130825, 0.000000)" id="编组-22">
                    <path fill="url(#linearGradient-2)" id="形状结合备份" d="M0,7.39535424 L29.4719212,9.2031075 L29.4719212,48.0698025 L28.6776991,48.0219458 C26.6911001,50.2011603 21.1995028,51.7674796 14.7359606,51.7674796 C6.59751428,51.7674796 0,49.28422 0,46.220964 L0.00102965085,46.2615849 L0,7.39535424 Z"></path>
                    <ellipse ry="5.63830199" rx="14.7359606" cy="5.63830199" cx="14.7359606" fill="#585858" id="形状结合备份-2"></ellipse>
                </g>
            </g>
            <g fill-rule="nonzero" transform="translate(186.251819, 1329.340315)" id="编组-24备份">
                <g transform="translate(0.000000, 25.883740)" id="编组-23">
                    <path fill="url(#linearGradient-1)" id="形状结合" d="M0,14.7907085 L88.4157635,19.7209447 L88.4158196,116.802354 C88.6017545,117.471663 88.6972644,118.152109 88.6972644,118.841623 C88.6972644,119.531156 88.6017493,120.21162 88.4158045,120.880946 L88.4157635,125.721022 L85.5071674,125.557778 C78.9634845,132.156741 63.0642649,136.814054 44.4893827,136.814054 C21.7199146,136.814054 2.9709922,129.815811 0.546683008,120.821467 L0,120.790786 L0,14.7907085 Z"></path>
                    <ellipse ry="17.9724306" rx="44.2078817" cy="17.9724306" cx="44.4893827" fill="#000000" id="形状结合"></ellipse>
                </g>
                <g transform="translate(31.130825, 0.000000)" id="编组-22">
                    <path fill="url(#linearGradient-2)" id="形状结合备份" d="M0,7.39535424 L29.4719212,9.2031075 L29.4719212,48.0698025 L28.6776991,48.0219458 C26.6911001,50.2011603 21.1995028,51.7674796 14.7359606,51.7674796 C6.59751428,51.7674796 0,49.28422 0,46.220964 L0.00102965085,46.2615849 L0,7.39535424 Z"></path>
                    <ellipse ry="5.63830199" rx="14.7359606" cy="5.63830199" cx="14.7359606" fill="#585858" id="形状结合备份-2"></ellipse>
                </g>
            </g>
            <g fill-rule="nonzero" transform="translate(611.605177, 1126.909038)" id="编组-24备份-3">
                <g transform="translate(0.000000, 25.883740)" id="编组-23">
                    <path fill="url(#linearGradient-1)" id="形状结合" d="M0,14.7907085 L88.4157635,19.7209447 L88.4158196,116.802354 C88.6017545,117.471663 88.6972644,118.152109 88.6972644,118.841623 C88.6972644,119.531156 88.6017493,120.21162 88.4158045,120.880946 L88.4157635,125.721022 L85.5071674,125.557778 C78.9634845,132.156741 63.0642649,136.814054 44.4893827,136.814054 C21.7199146,136.814054 2.9709922,129.815811 0.546683008,120.821467 L0,120.790786 L0,14.7907085 Z"></path>
                    <ellipse ry="17.9724306" rx="44.2078817" cy="17.9724306" cx="44.4893827" fill="#000000" id="形状结合"></ellipse>
                </g>
                <g transform="translate(31.130825, 0.000000)" id="编组-22">
                    <path fill="url(#linearGradient-2)" id="形状结合备份" d="M0,7.39535424 L29.4719212,9.2031075 L29.4719212,48.0698025 L28.6776991,48.0219458 C26.6911001,50.2011603 21.1995028,51.7674796 14.7359606,51.7674796 C6.59751428,51.7674796 0,49.28422 0,46.220964 L0.00102965085,46.2615849 L0,7.39535424 Z"></path>
                    <ellipse ry="5.63830199" rx="14.7359606" cy="5.63830199" cx="14.7359606" fill="#585858" id="形状结合备份-2"></ellipse>
                </g>
            </g>
            <polygon points="598.74197 518.806372 1050 196.615434 1050 1291.03474 578.663779 1546.91275 578.449265 561.964291" fill-rule="nonzero" fill="#DED9D1" id="矩形"></polygon>
            <polygon points="0.51482543 454.453194 345.212256 215.78566 683.510375 401.849626 296.02462 611.989774" fill-rule="nonzero" fill="url(#linearGradient-3)" id="路径-10"></polygon>
            <polygon points="995.452395 305.834589 993.616985 672.488122 672.233771 886.743597 672.002552 537.332778" fill-rule="nonzero" fill="#0C0C0C" id="矩形"></polygon>
            <polygon points="181.701498 1354.72266 179.97182 366.564345 580.291261 560.137718 582.020939 1546.42493" fill-rule="nonzero" fill="#E9E5DD" id="路径-16"></polygon>
            <polygon points="209.56659 678.829835 208.078753 449.047459 552.426168 615.555711 553.914005 843.728598" fill-rule="nonzero" fill="#E9E5DD" stroke-width="0.5" stroke="#6E6E6E" id="路径-16"></polygon>
            <g transform="translate(242.662278, 488.515572)" id="路径-16">
                <g fill="#E9E5DD" transform="translate(0.000000, 0.000000)" id="path-4-link">
                    <polygon points="1.19026918 183.825902 -2.92644373e-14 1.17057749e-13 275.477932 133.206602 276.668201 315.744912" id="path-4"></polygon>
                </g>
                <g fill-rule="nonzero" fill="#000000" transform="translate(0.000000, 0.000000)" id="path-4-link">
                    <polygon points="1.19026918 183.825902 -2.92644373e-14 1.17057749e-13 275.477932 133.206602 276.668201 315.744912" id="path-4"></polygon>
                </g>
            </g>
            <polygon points="313.905079 672.495173 313.224926 567.4518 470.640887 643.569859 471.321041 747.877464" fill-rule="nonzero" fill="#8EC1E9" stroke-width="1.5" stroke="#000000" id="路径-16"></polygon>
            <polygon points="209.56659 1287.76645 208.078753 753.515766 552.426168 920.024018 553.914005 1452.66522" fill-rule="nonzero" fill="#E9E5DD" stroke-width="0.5" stroke="#6E6E6E" id="路径-16备份-3"></polygon>
            <polygon points="204.254706 317.275096 653.768893 2.92644373e-14 1050 196.615434 598.935845 520.253968" fill-rule="nonzero" fill="#FFFCF3" id="路径-16备份-2"></polygon>
            <polygon points="204.254706 317.275096 600.598133 515.717102 576.382637 565.360384 180.039209 366.918378" fill-rule="nonzero" fill="#F8F6EF" id="矩形"></polygon>
            <path fill-rule="nonzero" fill="#DED9D1" id="路径-12" d="M186.225252,937.488316 C157.347841,877.191105 128.752241,828.050658 100.438452,790.066975 C72.1246632,752.083292 38.860394,718.237117 0.645644105,688.528449 L0.645644105,579.368301 L23.8290419,525.89227 L1.27583391,514.615665 L0.645644105,453.227684 L188.940931,554.844152 L186.225252,937.488316 Z"></path>
            <polygon points="238.084518 1002.90492 260.592799 1013.28989 260.637725 1078.44586 238.129444 1068.0609" fill-rule="nonzero" fill="#000000" id="矩形备份-4"></polygon>
            <polygon points="514.361315 971.318127 565.061106 990.736683 565.106033 1033.33945 514.406241 1013.92089" fill-rule="nonzero" fill="#000000" id="矩形备份-60"></polygon>
            <polygon points="525.637919 644.296611 576.337711 663.715167 576.382637 706.317934 525.682846 686.899378" fill-rule="nonzero" fill="#000000" id="矩形备份-63"></polygon>
            <polygon points="525.637919 757.062651 576.337711 776.481207 576.382637 819.083973 525.682846 799.665418" fill-rule="nonzero" fill="#000000" id="矩形备份-64"></polygon>
            <polygon points="514.361315 1140.46719 565.061106 1159.88575 565.106033 1202.48851 514.406241 1183.06995" fill-rule="nonzero" fill="#000000" id="矩形备份-61"></polygon>
            <polygon points="514.361315 1309.61624 565.061106 1329.0348 565.106033 1371.63757 514.406241 1352.21902" fill-rule="nonzero" fill="#000000" id="矩形备份-62"></polygon>
            <line stroke-dasharray="3" stroke-width="0.5" stroke="#979797" id="路径-9" y2="616.105101" x2="187.339799" y1="527.043579" x1="23.6819696"></line>
            <line stroke="#979797" id="路径-9备份" y2="683.764725" x2="187.339799" y1="579.555773" x1="-1.46322187e-14"></line>
            <g fill-rule="nonzero" transform="translate(305.744142, 103.019621)" id="编组-11">
                <rect rx="2" height="47.5065763" width="94.9101238" y="198.426867" x="0" opacity="0.410433815" fill="#5B5B5A" id="矩形备份-33"></rect>
                <rect height="180.425664" width="47.455062" y="41.7544909" x="23.7275309" fill="#C4E4E3" id="矩形"></rect>
                <path fill="#FC2727" id="矩形备份-30" d="M47.455062,0 C60.5594154,0 71.1825929,10.6231775 71.1825929,23.7275309 L71.1825929,71.2598645 L71.1825929,71.2598645 L23.7275309,71.2598645 L23.7275309,23.7275309 C23.7275309,10.6231775 34.3507084,0 47.455062,0 Z"></path>
                <rect height="47.5065763" width="47.455062" y="47.5065763" x="23.7275309" fill="#FFFD54" id="矩形备份-31"></rect>
                <rect height="47.5065763" width="47.455062" y="95.0131526" x="23.7275309" fill="#73FF54" id="矩形备份-32"></rect>
            </g>
        </g>
    </g>
</svg>