<?xml version="1.0" standalone="no"?><!DOCTYPE svg PUBLIC "-//W3C//DTD SVG 1.1//EN" "http://www.w3.org/Graphics/SVG/1.1/DTD/svg11.dtd"><svg height="1534" node-id="1" sillyvg="true" template-height="1534" template-width="1051" version="1.1" viewBox="0 0 1051 1534" width="1051" xmlns="http://www.w3.org/2000/svg" xmlns:xlink="http://www.w3.org/1999/xlink"><defs node-id="147"><linearGradient gradientUnits="objectBoundingBox" id="linearGradient-1" node-id="5" spreadMethod="pad" x1="0" x2="1" y1="0.5" y2="0.5"><stop offset="0" stop-color="#252424"></stop><stop offset="1" stop-color="#181818"></stop></linearGradient><linearGradient gradientUnits="objectBoundingBox" id="linearGradient-2" node-id="8" spreadMethod="pad" x1="0.0161995" x2="1" y1="0.5" y2="0.5"><stop offset="0" stop-color="#a5a5a5"></stop><stop offset="1" stop-color="#7b7a7a"></stop></linearGradient><linearGradient gradientUnits="objectBoundingBox" id="linearGradient-3" node-id="11" spreadMethod="pad" x1="0" x2="1" y1="0.5" y2="0.5"><stop offset="0" stop-color="#252424"></stop><stop offset="1" stop-color="#181818"></stop></linearGradient><linearGradient gradientUnits="objectBoundingBox" id="linearGradient-4" node-id="14" spreadMethod="pad" x1="0" x2="1" y1="0.5" y2="0.5"><stop offset="0" stop-color="#252424"></stop><stop offset="1" stop-color="#181818"></stop></linearGradient><linearGradient gradientUnits="objectBoundingBox" id="linearGradient-5" node-id="17" spreadMethod="pad" x1="0" x2="1" y1="0.5" y2="0.5"><stop offset="0" stop-color="#252424"></stop><stop offset="1" stop-color="#181818"></stop></linearGradient><linearGradient gradientUnits="objectBoundingBox" id="linearGradient-6" node-id="20" spreadMethod="pad" x1="0.9069435" x2="0" y1="0.079825416" y2="0.9818688"><stop offset="0" stop-color="#e2e2e2"></stop><stop offset="1" stop-color="#f7f7f7"></stop></linearGradient><linearGradient gradientUnits="objectBoundingBox" id="linearGradient-7" node-id="23" spreadMethod="pad" x1="0.537308" x2="1" y1="0.4529399" y2="0.82563865"><stop offset="0" stop-color="#fafafa"></stop><stop offset="1" stop-color="#c9c9c9"></stop></linearGradient><linearGradient gradientUnits="objectBoundingBox" id="linearGradient-8" node-id="26" spreadMethod="pad" x1="0.98747736" x2="0" y1="0.5125712" y2="0.4875145"><stop offset="0" stop-color="#f7f7f7"></stop><stop offset="1" stop-color="#e2e2e2"></stop></linearGradient></defs><g node-id="196"><g node-id="197"><g node-id="200"><g node-id="217"><path d="M 405.00 1402.72 L 499.83 1408.01 L 499.83 1512.14 L 500.13 1514.32 L 499.83 1516.51 L 499.83 1521.70 L 496.71 1521.53 L 494.17 1523.68 L 490.85 1525.78 L 486.61 1527.80 L 482.20 1529.42 L 477.16 1530.84 L 471.41 1532.04 L 465.61 1532.88 L 459.39 1533.40 L 452.71 1533.60 L 446.58 1533.44 L 440.82 1532.99 L 435.41 1532.27 L 430.04 1531.25 L 425.24 1530.04 L 420.96 1528.64 L 416.80 1526.91 L 413.38 1525.09 L 410.61 1523.19 L 408.16 1520.94 L 406.53 1518.70 L 405.58 1516.44 L 405.00 1516.41 L 405.00 1402.72 Z" fill="url(#linearGradient-1)" fill-rule="nonzero" group-id="1,2,5,22" id="形状结合" node-id="34" stroke="none" target-height="130.88" target-width="95.130005" target-x="405" target-y="1402.72"></path><path d="M 500.13 1406.13 L 499.89 1408.04 L 499.22 1409.90 L 498.08 1411.76 L 496.40 1413.64 L 493.82 1415.75 L 490.48 1417.79 L 486.24 1419.76 L 481.86 1421.34 L 476.85 1422.73 L 471.17 1423.89 L 465.44 1424.71 L 459.30 1425.22 L 452.71 1425.41 L 446.13 1425.22 L 439.99 1424.71 L 434.26 1423.89 L 428.57 1422.73 L 423.57 1421.34 L 419.18 1419.76 L 414.95 1417.79 L 411.61 1415.75 L 409.02 1413.64 L 407.34 1411.76 L 406.20 1409.90 L 405.54 1408.04 L 405.30 1406.13 L 405.54 1404.22 L 406.20 1402.36 L 407.34 1400.51 L 409.02 1398.63 L 411.61 1396.52 L 414.95 1394.47 L 419.18 1392.50 L 423.57 1390.92 L 428.57 1389.54 L 434.26 1388.37 L 439.99 1387.56 L 446.13 1387.04 L 452.71 1386.86 L 459.30 1387.04 L 465.44 1387.56 L 471.17 1388.37 L 476.85 1389.54 L 481.86 1390.92 L 486.24 1392.50 L 490.48 1394.47 L 493.82 1396.52 L 496.40 1398.63 L 498.08 1400.51 L 499.22 1402.36 L 499.89 1404.22 L 500.13 1406.13 Z" fill="#000000" fill-rule="nonzero" group-id="1,2,5,22" id="形状结合" node-id="35" stroke="none" target-height="38.55005" target-width="94.83002" target-x="405.3" target-y="1386.86"></path></g><g node-id="218"><path d="M 438.38 1367.03 L 470.00 1368.96 L 470.00 1410.65 L 469.14 1410.60 L 467.91 1411.62 L 466.08 1412.59 L 463.47 1413.49 L 460.79 1414.08 L 457.71 1414.47 L 454.19 1414.62 L 449.89 1414.40 L 446.21 1413.81 L 442.87 1412.82 L 440.54 1411.67 L 439.29 1410.66 L 438.62 1409.67 L 438.38 1408.67 L 438.39 1408.71 L 438.38 1367.03 Z" fill="url(#linearGradient-2)" fill-rule="nonzero" group-id="1,2,5,23" id="形状结合备份" node-id="37" stroke="none" target-height="47.589966" target-width="31.619995" target-x="438.38" target-y="1367.03"></path><path d="M 470.00 1365.14 L 469.76 1366.16 L 469.09 1367.17 L 467.84 1368.19 L 465.51 1369.36 L 462.17 1370.36 L 458.49 1370.96 L 454.19 1371.19 L 449.89 1370.96 L 446.21 1370.36 L 442.87 1369.36 L 440.54 1368.19 L 439.29 1367.17 L 438.62 1366.16 L 438.38 1365.14 L 438.62 1364.12 L 439.29 1363.11 L 440.54 1362.09 L 442.87 1360.92 L 446.21 1359.92 L 449.89 1359.32 L 454.19 1359.09 L 458.49 1359.32 L 462.17 1359.92 L 465.51 1360.92 L 467.84 1362.09 L 469.09 1363.11 L 469.76 1364.12 L 470.00 1365.14 Z" fill="#585858" fill-rule="nonzero" group-id="1,2,5,23" id="形状结合备份-2" node-id="38" stroke="none" target-height="12.099976" target-width="31.619995" target-x="438.38" target-y="1359.09"></path></g></g><g node-id="201"><g node-id="219"><path d="M 877.26 1151.83 L 972.09 1157.12 L 972.09 1261.25 L 972.40 1263.43 L 972.09 1265.62 L 972.09 1270.81 L 968.97 1270.64 L 966.43 1272.79 L 963.12 1274.89 L 958.87 1276.91 L 954.47 1278.53 L 949.43 1279.95 L 943.68 1281.15 L 937.88 1281.99 L 931.66 1282.52 L 924.98 1282.71 L 918.84 1282.55 L 913.09 1282.10 L 907.68 1281.39 L 902.31 1280.37 L 897.51 1279.15 L 893.23 1277.75 L 889.06 1276.02 L 885.65 1274.20 L 882.88 1272.31 L 880.43 1270.05 L 878.80 1267.82 L 877.85 1265.56 L 877.26 1265.52 L 877.26 1151.83 Z" fill="url(#linearGradient-1)" fill-rule="nonzero" group-id="1,2,6,24" id="形状结合" node-id="41" stroke="none" target-height="130.88" target-width="95.140015" target-x="877.26" target-y="1151.83"></path><path d="M 972.40 1155.24 L 972.16 1157.15 L 971.49 1159.02 L 970.35 1160.87 L 968.67 1162.75 L 966.08 1164.86 L 962.74 1166.90 L 958.51 1168.88 L 954.12 1170.45 L 949.12 1171.84 L 943.44 1173.01 L 937.71 1173.82 L 931.56 1174.33 L 924.98 1174.52 L 918.40 1174.33 L 912.25 1173.82 L 906.52 1173.01 L 900.84 1171.84 L 895.84 1170.45 L 891.45 1168.88 L 887.22 1166.90 L 883.88 1164.86 L 881.29 1162.75 L 879.61 1160.87 L 878.47 1159.02 L 877.80 1157.15 L 877.56 1155.24 L 877.80 1153.34 L 878.47 1151.47 L 879.61 1149.62 L 881.29 1147.74 L 883.88 1145.63 L 887.22 1143.58 L 891.45 1141.61 L 895.84 1140.04 L 900.84 1138.65 L 906.52 1137.48 L 912.25 1136.67 L 918.40 1136.16 L 924.98 1135.97 L 931.56 1136.16 L 937.71 1136.67 L 943.44 1137.48 L 949.12 1138.65 L 954.12 1140.04 L 958.51 1141.61 L 962.74 1143.58 L 966.08 1145.63 L 968.67 1147.74 L 970.35 1149.62 L 971.49 1151.47 L 972.16 1153.34 L 972.40 1155.24 Z" fill="#000000" fill-rule="nonzero" group-id="1,2,6,24" id="形状结合" node-id="42" stroke="none" target-height="38.55005" target-width="94.84003" target-x="877.56" target-y="1135.97"></path></g><g node-id="220"><path d="M 910.65 1116.14 L 942.26 1118.08 L 942.26 1159.76 L 941.41 1159.71 L 940.18 1160.73 L 938.35 1161.70 L 935.74 1162.60 L 933.05 1163.19 L 929.98 1163.58 L 926.46 1163.73 L 922.16 1163.51 L 918.48 1162.92 L 915.14 1161.93 L 912.81 1160.78 L 911.56 1159.77 L 910.88 1158.78 L 910.65 1157.78 L 910.65 1157.82 L 910.65 1116.14 Z" fill="url(#linearGradient-2)" fill-rule="nonzero" group-id="1,2,6,25" id="形状结合备份" node-id="44" stroke="none" target-height="47.589966" target-width="31.609985" target-x="910.65" target-y="1116.14"></path><path d="M 942.26 1114.25 L 942.03 1115.28 L 941.36 1116.28 L 940.10 1117.31 L 937.77 1118.48 L 934.43 1119.48 L 930.76 1120.07 L 926.46 1120.30 L 922.16 1120.07 L 918.48 1119.48 L 915.14 1118.48 L 912.81 1117.31 L 911.56 1116.28 L 910.88 1115.28 L 910.65 1114.25 L 910.88 1113.23 L 911.56 1112.23 L 912.81 1111.20 L 915.14 1110.03 L 918.48 1109.03 L 922.16 1108.43 L 926.46 1108.21 L 930.76 1108.43 L 934.43 1109.03 L 937.77 1110.03 L 940.10 1111.20 L 941.36 1112.23 L 942.03 1113.23 L 942.26 1114.25 Z" fill="#585858" fill-rule="nonzero" group-id="1,2,6,25" id="形状结合备份-2" node-id="45" stroke="none" target-height="12.090088" target-width="31.609985" target-x="910.65" target-y="1108.21"></path></g></g><g node-id="202"><g node-id="221"><path d="M 11.59 1219.25 L 106.42 1224.54 L 106.42 1328.67 L 106.72 1330.86 L 106.42 1333.04 L 106.42 1338.23 L 103.30 1338.06 L 100.76 1340.22 L 97.44 1342.31 L 93.20 1344.34 L 88.79 1345.95 L 83.75 1347.37 L 78.00 1348.57 L 72.20 1349.41 L 65.98 1349.94 L 59.30 1350.13 L 53.17 1349.97 L 47.41 1349.52 L 42.00 1348.81 L 36.63 1347.79 L 31.83 1346.57 L 27.55 1345.17 L 23.39 1343.44 L 19.97 1341.62 L 17.20 1339.73 L 14.75 1337.48 L 13.12 1335.24 L 12.17 1332.98 L 11.59 1332.95 L 11.59 1219.25 Z" fill="url(#linearGradient-1)" fill-rule="nonzero" group-id="1,2,7,26" id="形状结合" node-id="48" stroke="none" target-height="130.88" target-width="95.130005" target-x="11.59" target-y="1219.25"></path><path d="M 106.72 1222.67 L 106.48 1224.57 L 105.81 1226.44 L 104.67 1228.29 L 102.99 1230.17 L 100.41 1232.28 L 97.07 1234.33 L 92.83 1236.30 L 88.45 1237.87 L 83.44 1239.26 L 77.76 1240.43 L 72.03 1241.24 L 65.89 1241.76 L 59.30 1241.94 L 52.72 1241.76 L 46.58 1241.24 L 40.85 1240.43 L 35.16 1239.26 L 30.16 1237.87 L 25.77 1236.30 L 21.54 1234.33 L 18.20 1232.28 L 15.61 1230.17 L 13.93 1228.29 L 12.79 1226.44 L 12.13 1224.57 L 11.89 1222.67 L 12.13 1220.76 L 12.79 1218.90 L 13.93 1217.04 L 15.61 1215.16 L 18.20 1213.05 L 21.54 1211.01 L 25.77 1209.04 L 30.16 1207.46 L 35.16 1206.07 L 40.85 1204.90 L 46.58 1204.09 L 52.72 1203.58 L 59.30 1203.39 L 65.89 1203.58 L 72.03 1204.09 L 77.76 1204.90 L 83.44 1206.07 L 88.45 1207.46 L 92.83 1209.04 L 97.07 1211.01 L 100.41 1213.05 L 102.99 1215.16 L 104.67 1217.04 L 105.81 1218.90 L 106.48 1220.76 L 106.72 1222.67 Z" fill="#000000" fill-rule="nonzero" group-id="1,2,7,26" id="形状结合" node-id="49" stroke="none" target-height="38.549927" target-width="94.83" target-x="11.89" target-y="1203.39"></path></g><g node-id="222"><path d="M 44.98 1183.56 L 76.59 1185.50 L 76.59 1227.19 L 75.73 1227.13 L 74.50 1228.15 L 72.67 1229.12 L 70.06 1230.02 L 67.38 1230.61 L 64.30 1231.00 L 60.78 1231.15 L 56.48 1230.93 L 52.80 1230.34 L 49.46 1229.36 L 47.13 1228.21 L 45.88 1227.19 L 45.21 1226.21 L 44.98 1225.20 L 44.98 1225.25 L 44.98 1183.56 Z" fill="url(#linearGradient-2)" fill-rule="nonzero" group-id="1,2,7,27" id="形状结合备份" node-id="51" stroke="none" target-height="47.589966" target-width="31.609997" target-x="44.98" target-y="1183.56"></path><path d="M 76.59 1181.68 L 76.35 1182.70 L 75.68 1183.70 L 74.43 1184.73 L 72.10 1185.90 L 68.76 1186.90 L 65.08 1187.50 L 60.78 1187.72 L 56.48 1187.50 L 52.80 1186.90 L 49.46 1185.90 L 47.13 1184.73 L 45.88 1183.70 L 45.21 1182.70 L 44.98 1181.68 L 45.21 1180.65 L 45.88 1179.65 L 47.13 1178.62 L 49.46 1177.45 L 52.80 1176.45 L 56.48 1175.85 L 60.78 1175.63 L 65.08 1175.85 L 68.76 1176.45 L 72.10 1177.45 L 74.43 1178.62 L 75.68 1179.65 L 76.35 1180.65 L 76.59 1181.68 Z" fill="#585858" fill-rule="nonzero" group-id="1,2,7,27" id="形状结合备份-2" node-id="52" stroke="none" target-height="12.089966" target-width="31.609997" target-x="44.98" target-y="1175.63"></path></g></g><g node-id="203"><g node-id="223"><path d="M 517.69 1009.67 L 612.52 1014.96 L 612.52 1119.09 L 612.83 1121.27 L 612.52 1123.46 L 612.52 1128.65 L 609.40 1128.48 L 606.86 1130.64 L 603.55 1132.73 L 599.30 1134.75 L 594.90 1136.37 L 589.86 1137.79 L 584.11 1138.99 L 578.31 1139.83 L 572.09 1140.36 L 565.41 1140.55 L 559.27 1140.39 L 553.52 1139.94 L 548.11 1139.23 L 542.74 1138.21 L 537.94 1136.99 L 533.66 1135.59 L 529.49 1133.86 L 526.08 1132.04 L 523.31 1130.15 L 520.86 1127.90 L 519.23 1125.66 L 518.28 1123.40 L 517.69 1123.37 L 517.69 1009.67 Z" fill="url(#linearGradient-1)" fill-rule="nonzero" group-id="1,2,8,28" id="形状结合" node-id="55" stroke="none" target-height="130.88007" target-width="95.140015" target-x="517.69" target-y="1009.67"></path><path d="M 612.83 1013.09 L 612.59 1014.99 L 611.92 1016.86 L 610.78 1018.71 L 609.10 1020.59 L 606.51 1022.70 L 603.17 1024.75 L 598.94 1026.72 L 594.55 1028.29 L 589.55 1029.68 L 583.87 1030.85 L 578.14 1031.66 L 571.99 1032.17 L 565.41 1032.36 L 558.83 1032.17 L 552.68 1031.66 L 546.95 1030.85 L 541.27 1029.68 L 536.27 1028.29 L 531.88 1026.72 L 527.65 1024.75 L 524.31 1022.70 L 521.72 1020.59 L 520.04 1018.71 L 518.90 1016.86 L 518.23 1014.99 L 517.99 1013.09 L 518.23 1011.18 L 518.90 1009.32 L 520.04 1007.46 L 521.72 1005.58 L 524.31 1003.47 L 527.65 1001.43 L 531.88 999.46 L 536.27 997.88 L 541.27 996.49 L 546.95 995.32 L 552.68 994.51 L 558.83 994.00 L 565.41 993.81 L 571.99 994.00 L 578.14 994.51 L 583.87 995.32 L 589.55 996.49 L 594.55 997.88 L 598.94 999.46 L 603.17 1001.43 L 606.51 1003.47 L 609.10 1005.58 L 610.78 1007.46 L 611.92 1009.32 L 612.59 1011.18 L 612.83 1013.09 Z" fill="#000000" fill-rule="nonzero" group-id="1,2,8,28" id="形状结合" node-id="56" stroke="none" target-height="38.549988" target-width="94.84003" target-x="517.99" target-y="993.81"></path></g><g node-id="224"><path d="M 551.08 973.98 L 582.69 975.92 L 582.69 1017.61 L 581.84 1017.55 L 580.61 1018.57 L 578.78 1019.54 L 576.17 1020.44 L 573.48 1021.03 L 570.41 1021.42 L 566.89 1021.57 L 562.59 1021.35 L 558.91 1020.76 L 555.57 1019.77 L 553.24 1018.62 L 551.99 1017.61 L 551.31 1016.63 L 551.08 1015.62 L 551.08 1015.67 L 551.08 973.98 Z" fill="url(#linearGradient-2)" fill-rule="nonzero" group-id="1,2,8,29" id="形状结合备份" node-id="58" stroke="none" target-height="47.590027" target-width="31.609985" target-x="551.08" target-y="973.98"></path><path d="M 582.69 972.09 L 582.46 973.12 L 581.79 974.12 L 580.53 975.15 L 578.20 976.32 L 574.86 977.32 L 571.19 977.92 L 566.89 978.14 L 562.59 977.92 L 558.91 977.32 L 555.57 976.32 L 553.24 975.15 L 551.99 974.12 L 551.31 973.12 L 551.08 972.09 L 551.31 971.07 L 551.99 970.07 L 553.24 969.04 L 555.57 967.87 L 558.91 966.87 L 562.59 966.27 L 566.89 966.05 L 571.19 966.27 L 574.86 966.87 L 578.20 967.87 L 580.53 969.04 L 581.79 970.07 L 582.46 971.07 L 582.69 972.09 Z" fill="#585858" fill-rule="nonzero" group-id="1,2,8,29" id="形状结合备份-2" node-id="59" stroke="none" target-height="12.090027" target-width="31.609985" target-x="551.08" target-y="966.05"></path></g></g><g node-id="204"><path d="M 987.90 756.83 L 987.90 1146.50 L 482.13 1424.12 L 479.91 1041.06 Z" fill="#d8d8d8" fill-rule="nonzero" group-id="1,2,9" id="矩形备份-52" node-id="61" stroke="none" target-height="667.29" target-width="507.99002" target-x="479.91" target-y="756.83"></path><path d="M 2.04 1202.02 L 3.90 814.98 L 485.96 1041.06 L 484.11 1426.10 Z" fill="#e8e6e6" fill-rule="nonzero" group-id="1,2,9" id="路径-16" node-id="62" stroke="none" target-height="611.12" target-width="483.91998" target-x="2.04" target-y="814.98"></path><path d="M 3.08 814.26 L 489.91 526.81 L 987.33 758.12 L 481.70 1048.29 Z" fill="#f7f7f7" fill-rule="nonzero" group-id="1,2,9" id="路径-16备份-2" node-id="63" stroke="none" target-height="521.48004" target-width="984.25" target-x="3.08" target-y="526.81"></path><g node-id="225"><g node-id="247"><path d="M 86.48 753.43 L 575.29 980.66 L 576.70 981.57 L 577.75 982.70 L 578.47 984.10 L 578.84 985.62 L 578.80 987.17 L 578.33 988.78 L 574.41 997.58 L 573.51 999.01 L 572.38 1000.08 L 570.98 1000.83 L 569.44 1001.21 L 567.88 1001.17 L 566.25 1000.70 L 566.16 1000.66 L 77.34 773.44 L 75.94 772.53 L 74.89 771.39 L 74.16 770.00 L 73.80 768.47 L 73.84 766.93 L 74.30 765.32 L 78.22 756.52 L 79.12 755.08 L 80.26 754.01 L 81.66 753.27 L 83.20 752.89 L 84.76 752.93 L 86.39 753.39 L 86.48 753.43 Z" fill="#a99d95" fill-rule="evenodd" group-id="1,2,9,30,52" id="path-3" node-id="66" stroke="none" target-height="248.32" target-width="505.04004" target-x="73.8" target-y="752.89"></path></g><path d="M 86.48 753.43 L 575.29 980.66 L 576.70 981.57 L 577.75 982.70 L 578.47 984.10 L 578.84 985.62 L 578.80 987.17 L 578.33 988.78 L 574.41 997.58 L 573.51 999.01 L 572.38 1000.08 L 570.98 1000.83 L 569.44 1001.21 L 567.88 1001.17 L 566.25 1000.70 L 566.16 1000.66 L 77.34 773.44 L 75.94 772.53 L 74.89 771.39 L 74.16 770.00 L 73.80 768.47 L 73.84 766.93 L 74.30 765.32 L 78.22 756.52 L 79.12 755.08 L 80.26 754.01 L 81.66 753.27 L 83.20 752.89 L 84.76 752.93 L 86.39 753.39 L 86.48 753.43 Z" fill="#000000" fill-rule="nonzero" group-id="1,2,9,30,53" id="path-3" node-id="68" stroke="none" target-height="248.32" target-width="505.04004" target-x="73.8" target-y="752.89"></path></g><g node-id="226"><g node-id="249"><path d="M 219.49 680.79 L 720.36 908.12 L 721.78 909.02 L 722.84 910.16 L 723.58 911.55 L 723.95 913.09 L 723.91 914.64 L 723.45 916.26 L 719.53 925.06 L 718.63 926.50 L 717.49 927.56 L 716.09 928.31 L 714.55 928.69 L 712.99 928.65 L 711.36 928.19 L 210.46 700.84 L 209.04 699.94 L 207.98 698.80 L 207.24 697.41 L 206.87 695.87 L 206.91 694.32 L 207.37 692.70 L 211.29 683.90 L 212.19 682.46 L 213.33 681.39 L 214.72 680.65 L 216.27 680.27 L 217.82 680.31 L 219.45 680.77 Z" fill="#a99d95" fill-rule="evenodd" group-id="1,2,9,31,54" id="path-5" node-id="71" stroke="none" target-height="248.41998" target-width="517.08" target-x="206.87" target-y="680.27"></path></g><path d="M 219.49 680.79 L 720.36 908.12 L 721.78 909.02 L 722.84 910.16 L 723.58 911.55 L 723.95 913.09 L 723.91 914.64 L 723.45 916.26 L 719.53 925.06 L 718.63 926.50 L 717.49 927.56 L 716.09 928.31 L 714.55 928.69 L 712.99 928.65 L 711.36 928.19 L 210.46 700.84 L 209.04 699.94 L 207.98 698.80 L 207.24 697.41 L 206.87 695.87 L 206.91 694.32 L 207.37 692.70 L 211.29 683.90 L 212.19 682.46 L 213.33 681.39 L 214.72 680.65 L 216.27 680.27 L 217.82 680.31 L 219.45 680.77 Z" fill="#000000" fill-rule="nonzero" group-id="1,2,9,31,55" id="path-5" node-id="73" stroke="none" target-height="248.41998" target-width="517.08" target-x="206.87" target-y="680.27"></path></g></g><g node-id="205"><path d="M 425.49 994.51 L 425.49 1106.73 L 306.95 1168.28 L 305.53 1060.29 Z" fill="#cecac0" fill-rule="nonzero" group-id="1,2,10" id="矩形备份-52" node-id="75" stroke="none" target-height="173.77002" target-width="119.95999" target-x="305.53" target-y="994.51"></path><path d="M 0.94 1021.39 L 0.94 919.50 L 309.40 1064.16 L 309.40 1164.77 Z" fill="#d6d2cc" fill-rule="nonzero" group-id="1,2,10" id="路径-16" node-id="76" stroke="none" target-height="245.27002" target-width="308.46" target-x="0.94" target-y="919.5"></path><path d="M 0.50 919.33 L 110.71 847.32 L 425.49 994.51 L 306.67 1068.79 Z" fill="#f5f3ee" fill-rule="nonzero" group-id="1,2,10" id="路径-16备份-2" node-id="77" stroke="none" target-height="221.47003" target-width="424.99" target-x="0.5" target-y="847.32"></path><g node-id="227"><path d="M 111.86 864.50 L 127.29 865.36 L 127.29 882.30 L 127.34 882.66 L 127.29 883.01 L 127.29 883.86 L 126.79 883.83 L 125.73 884.58 L 123.99 885.24 L 122.02 885.64 L 119.63 885.79 L 116.71 885.56 L 114.46 884.99 L 113.13 884.35 L 112.35 883.69 L 111.96 883.00 L 111.86 883.00 L 111.86 864.50 Z" fill="url(#linearGradient-3)" fill-rule="nonzero" group-id="1,2,10,32" id="形状结合" node-id="79" stroke="none" target-height="21.289978" target-width="15.479996" target-x="111.86" target-y="864.5"></path><path d="M 127.34 867.96 L 127.07 869.57 L 126.29 871.02 L 125.10 872.22 L 123.52 873.19 L 121.71 873.79 L 119.63 874.01 L 117.55 873.79 L 115.73 873.19 L 114.15 872.22 L 112.97 871.02 L 112.19 869.57 L 111.91 867.96 L 112.19 866.36 L 112.97 864.91 L 114.15 863.70 L 115.73 862.74 L 117.55 862.14 L 119.63 861.92 L 121.71 862.14 L 123.52 862.74 L 125.10 863.70 L 126.29 864.91 L 127.07 866.36 L 127.34 867.96 Z" fill="#000000" fill-rule="nonzero" group-id="1,2,10,32" id="形状结合" node-id="80" stroke="none" target-height="12.090027" target-width="15.429993" target-x="111.91" target-y="861.92"></path></g><g node-id="228"><path d="M 80.91 903.19 L 96.34 904.05 L 96.34 920.99 L 96.39 921.35 L 96.34 921.71 L 96.34 922.55 L 95.83 922.52 L 94.77 923.27 L 93.04 923.94 L 91.06 924.34 L 88.67 924.49 L 85.75 924.26 L 83.51 923.68 L 82.17 923.04 L 81.39 922.38 L 81.00 921.70 L 80.91 921.69 L 80.91 903.19 Z" fill="url(#linearGradient-3)" fill-rule="nonzero" group-id="1,2,10,33" id="形状结合" node-id="82" stroke="none" target-height="21.299988" target-width="15.479996" target-x="80.91" target-y="903.19"></path><path d="M 96.39 906.66 L 96.11 908.27 L 95.33 909.71 L 94.15 910.92 L 92.57 911.88 L 90.75 912.49 L 88.67 912.71 L 86.59 912.49 L 84.78 911.88 L 83.20 910.92 L 82.01 909.71 L 81.23 908.27 L 80.96 906.66 L 81.23 905.05 L 82.01 903.61 L 83.20 902.40 L 84.78 901.44 L 86.59 900.84 L 88.67 900.61 L 90.75 900.84 L 92.57 901.44 L 94.15 902.40 L 95.33 903.61 L 96.11 905.05 L 96.39 906.66 Z" fill="#000000" fill-rule="nonzero" group-id="1,2,10,33" id="形状结合" node-id="83" stroke="none" target-height="12.100037" target-width="15.43" target-x="80.96" target-y="900.61"></path></g><g node-id="229"><path d="M 150.56 879.98 L 165.99 880.84 L 165.99 897.78 L 166.04 898.13 L 165.99 898.49 L 165.99 899.33 L 165.48 899.31 L 164.42 900.06 L 162.69 900.72 L 160.71 901.12 L 158.32 901.27 L 155.41 901.04 L 153.16 900.46 L 151.82 899.83 L 151.04 899.17 L 150.66 898.48 L 150.56 898.47 L 150.56 879.98 Z" fill="url(#linearGradient-3)" fill-rule="nonzero" group-id="1,2,10,34" id="形状结合" node-id="85" stroke="none" target-height="21.29004" target-width="15.479996" target-x="150.56" target-y="879.98"></path><path d="M 166.04 883.44 L 165.76 885.05 L 164.99 886.50 L 163.80 887.70 L 162.22 888.66 L 160.40 889.27 L 158.32 889.49 L 156.25 889.27 L 154.43 888.66 L 152.85 887.70 L 151.66 886.50 L 150.88 885.05 L 150.61 883.44 L 150.88 881.84 L 151.66 880.39 L 152.85 879.18 L 154.43 878.22 L 156.25 877.62 L 158.32 877.40 L 160.40 877.62 L 162.22 878.22 L 163.80 879.18 L 164.99 880.39 L 165.76 881.84 L 166.04 883.44 Z" fill="#000000" fill-rule="nonzero" group-id="1,2,10,34" id="形状结合" node-id="86" stroke="none" target-height="12.089966" target-width="15.429993" target-x="150.61" target-y="877.4"></path></g><g node-id="230"><path d="M 119.60 918.67 L 135.03 919.53 L 135.03 936.47 L 135.08 936.83 L 135.03 937.19 L 135.03 938.03 L 134.53 938.00 L 133.46 938.75 L 131.73 939.42 L 129.76 939.81 L 127.37 939.97 L 124.45 939.73 L 122.20 939.16 L 120.87 938.52 L 120.09 937.86 L 119.70 937.18 L 119.60 937.17 L 119.60 918.67 Z" fill="url(#linearGradient-3)" fill-rule="nonzero" group-id="1,2,10,35" id="形状结合" node-id="88" stroke="none" target-height="21.299988" target-width="15.480003" target-x="119.6" target-y="918.67"></path><path d="M 135.08 922.14 L 134.81 923.74 L 134.03 925.19 L 132.84 926.40 L 131.26 927.36 L 129.45 927.96 L 127.37 928.19 L 125.29 927.96 L 123.47 927.36 L 121.89 926.40 L 120.71 925.19 L 119.93 923.74 L 119.65 922.14 L 119.93 920.53 L 120.71 919.09 L 121.89 917.88 L 123.47 916.92 L 125.29 916.31 L 127.37 916.09 L 129.45 916.31 L 131.26 916.92 L 132.84 917.88 L 134.03 919.09 L 134.81 920.53 L 135.08 922.14 Z" fill="#000000" fill-rule="nonzero" group-id="1,2,10,35" id="形状结合" node-id="89" stroke="none" target-height="12.099976" target-width="15.43" target-x="119.65" target-y="916.09"></path></g><g node-id="231"><path d="M 189.26 903.19 L 204.69 904.05 L 204.69 920.99 L 204.73 921.35 L 204.69 921.71 L 204.69 922.55 L 204.18 922.52 L 203.12 923.27 L 201.39 923.94 L 199.41 924.34 L 197.02 924.49 L 194.10 924.26 L 191.85 923.68 L 190.52 923.04 L 189.74 922.38 L 189.35 921.70 L 189.26 921.69 L 189.26 903.19 Z" fill="url(#linearGradient-3)" fill-rule="nonzero" group-id="1,2,10,36" id="形状结合" node-id="91" stroke="none" target-height="21.299988" target-width="15.470001" target-x="189.26" target-y="903.19"></path><path d="M 204.73 906.66 L 204.46 908.27 L 203.68 909.71 L 202.50 910.92 L 200.91 911.88 L 199.10 912.49 L 197.02 912.71 L 194.94 912.49 L 193.13 911.88 L 191.55 910.92 L 190.36 909.71 L 189.58 908.27 L 189.31 906.66 L 189.58 905.05 L 190.36 903.61 L 191.55 902.40 L 193.13 901.44 L 194.94 900.84 L 197.02 900.61 L 199.10 900.84 L 200.91 901.44 L 202.50 902.40 L 203.68 903.61 L 204.46 905.05 L 204.73 906.66 Z" fill="#000000" fill-rule="nonzero" group-id="1,2,10,36" id="形状结合" node-id="92" stroke="none" target-height="12.100037" target-width="15.419998" target-x="189.31" target-y="900.61"></path></g><g node-id="232"><path d="M 158.30 941.89 L 173.73 942.75 L 173.73 959.69 L 173.78 960.05 L 173.73 960.41 L 173.73 961.25 L 173.22 961.22 L 172.16 961.97 L 170.43 962.63 L 168.45 963.03 L 166.06 963.18 L 163.15 962.95 L 160.90 962.38 L 159.56 961.74 L 158.78 961.08 L 158.40 960.39 L 158.30 960.39 L 158.30 941.89 Z" fill="url(#linearGradient-3)" fill-rule="nonzero" group-id="1,2,10,37" id="形状结合" node-id="94" stroke="none" target-height="21.289978" target-width="15.479996" target-x="158.3" target-y="941.89"></path><path d="M 173.78 945.36 L 173.50 946.96 L 172.72 948.41 L 171.54 949.62 L 169.96 950.58 L 168.14 951.18 L 166.06 951.40 L 163.98 951.18 L 162.17 950.58 L 160.59 949.62 L 159.40 948.41 L 158.62 946.96 L 158.35 945.36 L 158.62 943.75 L 159.40 942.30 L 160.59 941.10 L 162.17 940.13 L 163.98 939.53 L 166.06 939.31 L 168.14 939.53 L 169.96 940.13 L 171.54 941.10 L 172.72 942.30 L 173.50 943.75 L 173.78 945.36 Z" fill="#000000" fill-rule="nonzero" group-id="1,2,10,37" id="形状结合" node-id="95" stroke="none" target-height="12.090027" target-width="15.429993" target-x="158.35" target-y="939.31"></path></g><g node-id="233"><path d="M 227.95 918.67 L 243.38 919.53 L 243.38 936.47 L 243.43 936.83 L 243.38 937.19 L 243.38 938.03 L 242.87 938.00 L 241.81 938.75 L 240.08 939.42 L 238.10 939.81 L 235.72 939.97 L 232.80 939.73 L 230.55 939.16 L 229.22 938.52 L 228.44 937.86 L 228.05 937.18 L 227.95 937.17 L 227.95 918.67 Z" fill="url(#linearGradient-3)" fill-rule="nonzero" group-id="1,2,10,38" id="形状结合" node-id="97" stroke="none" target-height="21.299988" target-width="15.479996" target-x="227.95" target-y="918.67"></path><path d="M 243.43 922.14 L 243.16 923.74 L 242.38 925.19 L 241.19 926.40 L 239.61 927.36 L 237.80 927.96 L 235.72 928.19 L 233.64 927.96 L 231.82 927.36 L 230.24 926.40 L 229.05 925.19 L 228.28 923.74 L 228.00 922.14 L 228.28 920.53 L 229.05 919.09 L 230.24 917.88 L 231.82 916.92 L 233.64 916.31 L 235.72 916.09 L 237.80 916.31 L 239.61 916.92 L 241.19 917.88 L 242.38 919.09 L 243.16 920.53 L 243.43 922.14 Z" fill="#000000" fill-rule="nonzero" group-id="1,2,10,38" id="形状结合" node-id="98" stroke="none" target-height="12.099976" target-width="15.429993" target-x="228" target-y="916.09"></path></g><g node-id="234"><path d="M 197.00 957.37 L 212.42 958.23 L 212.42 975.17 L 212.47 975.53 L 212.42 975.88 L 212.42 976.73 L 211.92 976.70 L 210.86 977.45 L 209.13 978.11 L 207.15 978.51 L 204.76 978.66 L 201.84 978.43 L 199.59 977.86 L 198.26 977.22 L 197.48 976.56 L 197.09 975.87 L 197.00 975.87 L 197.00 957.37 Z" fill="url(#linearGradient-3)" fill-rule="nonzero" group-id="1,2,10,39" id="形状结合" node-id="100" stroke="none" target-height="21.289978" target-width="15.470001" target-x="197" target-y="957.37"></path><path d="M 212.47 960.83 L 212.20 962.44 L 211.42 963.89 L 210.23 965.10 L 208.65 966.06 L 206.84 966.66 L 204.76 966.88 L 202.68 966.66 L 200.87 966.06 L 199.28 965.10 L 198.10 963.89 L 197.32 962.44 L 197.04 960.83 L 197.32 959.23 L 198.10 957.78 L 199.28 956.57 L 200.87 955.61 L 202.68 955.01 L 204.76 954.79 L 206.84 955.01 L 208.65 955.61 L 210.23 956.57 L 211.42 957.78 L 212.20 959.23 L 212.47 960.83 Z" fill="#000000" fill-rule="nonzero" group-id="1,2,10,39" id="形状结合" node-id="101" stroke="none" target-height="12.090027" target-width="15.430008" target-x="197.04" target-y="954.79"></path></g><g node-id="235"><path d="M 266.65 941.89 L 282.08 942.75 L 282.08 959.69 L 282.13 960.05 L 282.08 960.41 L 282.08 961.25 L 281.57 961.22 L 280.51 961.97 L 278.78 962.63 L 276.80 963.03 L 274.41 963.18 L 271.50 962.95 L 269.25 962.38 L 267.91 961.74 L 267.13 961.08 L 266.74 960.39 L 266.65 960.39 L 266.65 941.89 Z" fill="url(#linearGradient-3)" fill-rule="nonzero" group-id="1,2,10,40" id="形状结合" node-id="103" stroke="none" target-height="21.289978" target-width="15.480011" target-x="266.65" target-y="941.89"></path><path d="M 282.13 945.36 L 281.85 946.96 L 281.07 948.41 L 279.89 949.62 L 278.31 950.58 L 276.49 951.18 L 274.41 951.40 L 272.33 951.18 L 270.52 950.58 L 268.94 949.62 L 267.75 948.41 L 266.97 946.96 L 266.70 945.36 L 266.97 943.75 L 267.75 942.30 L 268.94 941.10 L 270.52 940.13 L 272.33 939.53 L 274.41 939.31 L 276.49 939.53 L 278.31 940.13 L 279.89 941.10 L 281.07 942.30 L 281.85 943.75 L 282.13 945.36 Z" fill="#000000" fill-rule="nonzero" group-id="1,2,10,40" id="形状结合" node-id="104" stroke="none" target-height="12.090027" target-width="15.429993" target-x="266.7" target-y="939.31"></path></g><g node-id="236"><path d="M 235.69 980.59 L 251.12 981.45 L 251.12 998.39 L 251.17 998.74 L 251.12 999.10 L 251.12 999.94 L 250.61 999.92 L 249.55 1000.67 L 247.82 1001.33 L 245.84 1001.73 L 243.46 1001.88 L 240.54 1001.65 L 238.29 1001.07 L 236.95 1000.44 L 236.17 999.77 L 235.79 999.09 L 235.69 999.08 L 235.69 980.59 Z" fill="url(#linearGradient-3)" fill-rule="nonzero" group-id="1,2,10,41" id="形状结合" node-id="106" stroke="none" target-height="21.289978" target-width="15.479996" target-x="235.69" target-y="980.59"></path><path d="M 251.17 984.05 L 250.90 985.66 L 250.12 987.10 L 248.93 988.31 L 247.35 989.27 L 245.53 989.88 L 243.46 990.10 L 241.38 989.88 L 239.56 989.27 L 237.98 988.31 L 236.79 987.10 L 236.02 985.66 L 235.74 984.05 L 236.02 982.45 L 236.79 981.00 L 237.98 979.79 L 239.56 978.83 L 241.38 978.23 L 243.46 978.00 L 245.53 978.23 L 247.35 978.83 L 248.93 979.79 L 250.12 981.00 L 250.90 982.45 L 251.17 984.05 Z" fill="#000000" fill-rule="nonzero" group-id="1,2,10,41" id="形状结合" node-id="107" stroke="none" target-height="12.099976" target-width="15.429993" target-x="235.74" target-y="978"></path></g><g node-id="237"><path d="M 305.34 975.43 L 336.20 977.15 L 336.20 1011.03 L 336.30 1011.74 L 336.20 1012.45 L 336.20 1014.14 L 335.19 1014.09 L 333.90 1015.10 L 332.08 1016.05 L 329.60 1016.92 L 325.65 1017.71 L 320.87 1018.02 L 316.95 1017.81 L 313.55 1017.27 L 310.43 1016.36 L 308.12 1015.28 L 306.81 1014.33 L 305.98 1013.39 L 305.53 1012.43 L 305.34 1012.42 L 305.34 975.43 Z" fill="url(#linearGradient-4)" fill-rule="nonzero" group-id="1,2,10,42" id="形状结合" node-id="109" stroke="none" target-height="42.590027" target-width="30.959991" target-x="305.34" target-y="975.43"></path><path d="M 336.30 978.00 L 336.06 979.36 L 335.39 980.64 L 334.19 981.91 L 332.75 982.94 L 330.93 983.87 L 328.66 984.69 L 325.06 985.46 L 320.87 985.74 L 316.68 985.46 L 313.08 984.69 L 310.82 983.87 L 309.00 982.94 L 307.55 981.91 L 306.36 980.64 L 305.68 979.36 L 305.44 978.00 L 305.68 976.65 L 306.36 975.37 L 307.55 974.10 L 309.00 973.07 L 310.82 972.13 L 313.08 971.32 L 316.68 970.55 L 320.87 970.27 L 325.06 970.55 L 328.66 971.32 L 330.93 972.13 L 332.75 973.07 L 334.19 974.10 L 335.39 975.37 L 336.06 976.65 L 336.30 978.00 Z" fill="#000000" fill-rule="nonzero" group-id="1,2,10,42" id="形状结合" node-id="110" stroke="none" target-height="15.469971" target-width="30.859985" target-x="305.44" target-y="970.27"></path></g><g node-id="238"><path d="M 364.03 1065.48 L 359.63 1096.07 L 348.09 1095.12 L 347.07 1094.80 L 346.18 1094.09 L 345.39 1092.86 L 344.62 1090.60 L 344.13 1087.36 L 344.01 1083.83 L 344.23 1079.64 L 344.83 1075.45 L 345.79 1071.79 L 347.14 1068.48 L 348.59 1066.15 L 349.78 1064.93 L 350.89 1064.32 L 351.96 1064.16 L 352.67 1064.30 L 353.31 1064.59 L 364.03 1065.48 Z" fill="url(#linearGradient-5)" fill-rule="nonzero" group-id="1,2,10,43" id="形状结合" node-id="112" stroke="none" target-height="31.909912" target-width="20.019989" target-x="344.01" target-y="1064.16"></path><path d="M 358.77 1096.10 L 357.44 1095.74 L 356.22 1094.96 L 355.06 1093.66 L 354.15 1092.13 L 353.39 1090.23 L 352.77 1087.90 L 352.32 1084.25 L 352.40 1080.05 L 353.05 1075.91 L 354.13 1072.39 L 355.14 1070.20 L 356.22 1068.47 L 357.38 1067.11 L 358.75 1066.04 L 360.09 1065.48 L 361.46 1065.36 L 362.78 1065.71 L 364.00 1066.50 L 365.16 1067.80 L 366.07 1069.33 L 366.83 1071.22 L 367.45 1073.55 L 367.90 1077.21 L 367.82 1081.40 L 367.17 1085.55 L 366.09 1089.07 L 365.08 1091.25 L 364.00 1092.99 L 362.84 1094.34 L 361.47 1095.42 L 360.13 1095.98 L 358.77 1096.10 Z" fill="#000000" fill-rule="nonzero" group-id="1,2,10,43" id="形状结合" node-id="113" stroke="none" target-height="30.73999" target-width="15.579987" target-x="352.32" target-y="1065.36"></path></g><g node-id="239"><path d="M 418.21 1034.53 L 413.80 1065.12 L 402.27 1064.16 L 401.24 1063.85 L 400.35 1063.13 L 399.57 1061.90 L 398.80 1059.64 L 398.31 1056.40 L 398.19 1052.87 L 398.40 1048.68 L 399.01 1044.50 L 399.97 1040.83 L 401.32 1037.52 L 402.76 1035.20 L 403.95 1033.98 L 405.06 1033.36 L 406.14 1033.21 L 406.85 1033.35 L 407.48 1033.64 L 418.21 1034.53 Z" fill="url(#linearGradient-5)" fill-rule="nonzero" group-id="1,2,10,44" id="形状结合" node-id="115" stroke="none" target-height="31.910034" target-width="20.019989" target-x="398.19" target-y="1033.21"></path><path d="M 412.94 1065.14 L 411.62 1064.78 L 410.39 1064.00 L 409.23 1062.70 L 408.33 1061.17 L 407.56 1059.27 L 406.95 1056.95 L 406.50 1053.29 L 406.57 1049.10 L 407.23 1044.95 L 408.31 1041.43 L 409.31 1039.24 L 410.40 1037.51 L 411.55 1036.16 L 412.92 1035.08 L 414.26 1034.52 L 415.63 1034.40 L 416.95 1034.76 L 418.18 1035.54 L 419.34 1036.84 L 420.24 1038.37 L 421.01 1040.27 L 421.62 1042.60 L 422.07 1046.25 L 421.99 1050.44 L 421.34 1054.59 L 420.26 1058.11 L 419.26 1060.30 L 418.17 1062.03 L 417.01 1063.38 L 415.65 1064.46 L 414.31 1065.02 L 412.94 1065.14 Z" fill="#000000" fill-rule="nonzero" group-id="1,2,10,44" id="形状结合" node-id="116" stroke="none" target-height="30.73999" target-width="15.570007" target-x="406.5" target-y="1034.4"></path></g></g></g><g node-id="198"><g node-id="206"><path d="M 564.58 418.18 L 576.67 424.22 L 407.34 520.98 L 395.25 514.94 Z" fill="url(#linearGradient-6)" fill-rule="nonzero" group-id="1,3,11" id="矩形备份-21" node-id="118" stroke="none" target-height="102.79999" target-width="181.41998" target-x="395.25" target-y="418.18"></path></g><g node-id="207"><path d="M 395.25 514.94 L 407.34 520.98 L 352.92 641.93 L 340.82 635.88 Z" fill="#ffffff" fill-rule="nonzero" group-id="1,3,12" id="矩形备份-48" node-id="119" stroke="none" target-height="126.98999" target-width="66.51999" target-x="340.82" target-y="514.94"></path></g><g node-id="208"><path d="M 340.82 635.88 L 352.92 641.93 L 352.92 684.26 L 340.82 678.22 Z" fill="#e8e6e6" fill-rule="nonzero" group-id="1,3,13" id="矩形备份-49" node-id="120" stroke="none" target-height="48.380005" target-width="12.100006" target-x="340.82" target-y="635.88"></path></g><path d="M 402.98 523.02 L 576.67 424.22 L 576.67 563.32 L 352.12 686.63 L 352.12 641.93 Z" fill="#d8d8d8" fill-rule="nonzero" group-id="1,3" id="矩形备份-50" node-id="121" stroke="none" target-height="262.41" target-width="224.54999" target-x="352.12" target-y="424.22"></path><path d="M 570.63 430.27 L 915.33 596.97 L 915.33 708.45 L 570.63 541.76 Z" fill="url(#linearGradient-7)" fill-rule="nonzero" group-id="1,3" id="矩形" node-id="122" stroke="none" target-height="278.18002" target-width="344.7" target-x="570.63" target-y="430.27"></path><path d="M 346.87 663.49 L 691.57 826.77 L 691.57 841.50 L 346.87 678.22 Z" fill="#ccc6c6" fill-rule="nonzero" group-id="1,3,14" id="矩形备份-22" node-id="124" stroke="none" target-height="178.01001" target-width="344.7" target-x="346.87" target-y="663.49"></path><path d="M 570.63 539.13 L 914.60 705.83 L 690.48 830.07 L 343.13 664.28 Z" fill="#e5e5e5" fill-rule="nonzero" group-id="1,3,14,45" id="矩形" node-id="125" stroke="none" target-height="290.94" target-width="571.47" target-x="343.13" target-y="539.13"></path><path d="M 564.58 418.18 L 927.42 593.55 L 920.28 600.27 L 558.53 424.22 Z" fill="url(#linearGradient-8)" fill-rule="nonzero" group-id="1,3,15" id="矩形备份-47" node-id="126" stroke="none" target-height="182.09003" target-width="368.88995" target-x="558.53" target-y="418.18"></path><path d="M 890.03 380.97 L 875.99 387.98 L 875.99 718.75 L 890.03 711.74 Z" fill="#dbdbdb" fill-rule="nonzero" group-id="1,3,16,46" id="矩形" node-id="128" stroke="none" target-height="337.78" target-width="14.040039" target-x="875.99" target-y="380.97"></path><path d="M 875.99 387.98 L 861.07 380.10 L 861.07 710.86 L 875.99 718.75 Z" fill="#bab9b9" fill-rule="nonzero" group-id="1,3,16,47" id="矩形备份-17" node-id="129" stroke="none" target-height="338.65" target-width="14.919983" target-x="861.07" target-y="380.1"></path><path d="M 915.33 587.51 L 927.42 593.55 L 758.10 690.31 L 746.00 684.26 Z" fill="#f7f7f7" fill-rule="nonzero" group-id="1,3,17" id="矩形" node-id="130" stroke="none" target-height="102.79999" target-width="181.41998" target-x="746" target-y="587.51"></path><path d="M 746.00 684.26 L 758.10 690.31 L 703.67 811.26 L 691.57 805.21 Z" fill="#ffffff" fill-rule="nonzero" group-id="1,3,18" id="矩形备份-23" node-id="131" stroke="none" target-height="127" target-width="66.52997" target-x="691.57" target-y="684.26"></path><path d="M 691.57 805.21 L 703.67 811.26 L 703.67 853.59 L 691.57 847.55 Z" fill="#e8e6e6" fill-rule="nonzero" group-id="1,3,19" id="矩形备份-46" node-id="132" stroke="none" target-height="48.380005" target-width="12.099976" target-x="691.57" target-y="805.21"></path><path d="M 753.74 692.35 L 927.42 593.55 L 927.42 732.64 L 702.87 855.96 L 702.87 811.26 Z" fill="#d8d8d8" fill-rule="nonzero" group-id="1,3" id="矩形" node-id="133" stroke="none" target-height="262.41003" target-width="224.54999" target-x="702.87" target-y="593.55"></path><path d="M 587.66 211.64 L 573.62 218.66 L 573.62 549.42 L 587.66 542.41 Z" fill="#dbdbdb" fill-rule="nonzero" group-id="1,3,20,48" id="矩形" node-id="135" stroke="none" target-height="337.77997" target-width="14.039978" target-x="573.62" target-y="211.64"></path><path d="M 573.62 218.66 L 558.70 210.77 L 558.70 541.54 L 573.62 549.42 Z" fill="#bab9b9" fill-rule="nonzero" group-id="1,3,20,49" id="矩形备份-17" node-id="136" stroke="none" target-height="338.64996" target-width="14.919983" target-x="558.7" target-y="210.77"></path><path d="M 371.06 300.65 L 806.48 506.26 L 806.48 520.98 L 371.06 315.37 Z" fill="#ccc6c6" fill-rule="nonzero" group-id="1,3,21" id="矩形备份-22" node-id="138" stroke="none" target-height="220.32999" target-width="435.41998" target-x="371.06" target-y="300.65"></path><path d="M 594.82 176.28 L 1030.23 381.89 L 806.11 506.14 L 367.32 301.43 Z" fill="#ffffff" fill-rule="nonzero" group-id="1,3,21,50" id="矩形" node-id="139" stroke="none" target-height="329.86002" target-width="662.91" target-x="367.32" target-y="176.28"></path><path d="M 1029.87 379.14 L 1030.23 393.99 L 806.48 520.98 L 806.48 502.84 Z" fill="#d8d8d8" fill-rule="nonzero" group-id="1,3,21,51" id="矩形备份-51" node-id="140" stroke="none" target-height="141.83997" target-width="223.75" target-x="806.48" target-y="379.14"></path></g><g node-id="199"><path d="M 540.39 232.98 L 805.33 365.59 L 805.33 398.74 L 540.39 266.13 Z" fill="#444644" fill-rule="nonzero" group-id="1,4" id="矩形备份-41" node-id="142" stroke="none" target-height="165.76" target-width="264.94" target-x="540.39" target-y="232.98"></path><path d="M 547.96 224.69 L 812.90 357.30 L 805.33 365.59 L 540.39 232.98 Z" fill="#696969" fill-rule="nonzero" group-id="1,4" id="矩形备份-42" node-id="143" stroke="none" target-height="140.9" target-width="272.51" target-x="540.39" target-y="224.69"></path><path d="M 805.33 365.59 L 813.61 357.30 L 813.61 390.45 L 805.33 398.74 Z" fill="#2b2a2a" fill-rule="nonzero" group-id="1,4" id="矩形" node-id="144" stroke="none" target-height="41.440002" target-width="8.279968" target-x="805.33" target-y="357.3"></path><path d="M 556.95 0.90 L 805.33 122.94 L 805.33 355.01 L 556.95 232.98 Z" fill="#494a49" fill-rule="nonzero" group-id="1,4" id="矩形" node-id="145" stroke="none" target-height="354.11002" target-width="248.38" target-x="556.95" target-y="0.9"></path></g></g></svg>