<?xml version="1.0" standalone="no"?><!DOCTYPE svg PUBLIC "-//W3C//DTD SVG 1.1//EN" "http://www.w3.org/Graphics/SVG/1.1/DTD/svg11.dtd"><svg height="1261" node-id="1" sillyvg="true" template-height="1261" template-width="1029" version="1.1" viewBox="0 0 1029 1261" width="1029" xmlns="http://www.w3.org/2000/svg" xmlns:xlink="http://www.w3.org/1999/xlink"><defs node-id="91"><linearGradient gradientUnits="objectBoundingBox" id="linearGradient-1" node-id="5" spreadMethod="pad" x1="0" x2="1" y1="0.5" y2="0.5"><stop offset="0" stop-color="#252424"></stop><stop offset="1" stop-color="#181818"></stop></linearGradient><linearGradient gradientUnits="objectBoundingBox" id="linearGradient-2" node-id="8" spreadMethod="pad" x1="0.0161995" x2="1" y1="0.5" y2="0.5"><stop offset="0" stop-color="#a5a5a5"></stop><stop offset="1" stop-color="#7b7a7a"></stop></linearGradient><linearGradient gradientUnits="objectBoundingBox" id="linearGradient-3" node-id="11" spreadMethod="pad" x1="0" x2="1" y1="0.5" y2="0.5"><stop offset="0" stop-color="#252424"></stop><stop offset="1" stop-color="#181818"></stop></linearGradient></defs><g node-id="110"><g node-id="111"><g node-id="112"><g node-id="121"><g node-id="129"><path d="M 371.40 1196.35 L 455.97 1198.74 L 455.97 1241.75 L 456.24 1243.70 L 455.97 1245.65 L 455.97 1250.28 L 453.11 1250.19 L 450.84 1252.11 L 447.87 1253.96 L 444.09 1255.75 L 440.17 1257.19 L 435.68 1258.44 L 430.57 1259.51 L 425.42 1260.25 L 419.89 1260.71 L 413.96 1260.89 L 407.32 1260.67 L 401.21 1260.09 L 395.57 1259.18 L 390.00 1257.86 L 385.26 1256.32 L 381.26 1254.59 L 378.32 1252.96 L 376.02 1251.30 L 374.26 1249.62 L 372.96 1247.92 L 371.40 1247.88 L 371.40 1196.35 Z" fill="url(#linearGradient-1)" fill-rule="evenodd" group-id="1,2,3,12,20" id="形状结合" node-id="20" stroke="none" target-height="64.54004" target-width="84.84" target-x="371.4" target-y="1196.35"></path><path d="M 456.24 1201.15 L 456.02 1202.85 L 455.43 1204.51 L 454.42 1206.16 L 452.92 1207.84 L 450.61 1209.72 L 447.63 1211.54 L 443.85 1213.30 L 439.94 1214.71 L 435.48 1215.94 L 430.41 1216.99 L 425.30 1217.71 L 419.83 1218.17 L 413.96 1218.34 L 408.08 1218.17 L 402.61 1217.71 L 397.50 1216.99 L 392.43 1215.94 L 387.97 1214.71 L 384.06 1213.30 L 380.28 1211.54 L 377.30 1209.72 L 375.00 1207.84 L 373.49 1206.16 L 372.48 1204.51 L 371.89 1202.85 L 371.67 1201.15 L 371.89 1199.44 L 372.48 1197.78 L 373.49 1196.13 L 375.00 1194.45 L 377.30 1192.57 L 380.28 1190.75 L 384.06 1188.99 L 387.97 1187.58 L 392.43 1186.35 L 397.50 1185.31 L 402.61 1184.58 L 408.08 1184.12 L 413.96 1183.96 L 419.83 1184.12 L 425.30 1184.58 L 430.41 1185.31 L 435.48 1186.35 L 439.94 1187.58 L 443.85 1188.99 L 447.63 1190.75 L 450.61 1192.57 L 452.92 1194.45 L 454.42 1196.13 L 455.43 1197.78 L 456.02 1199.44 L 456.24 1201.15 Z" fill="#000000" fill-rule="evenodd" group-id="1,2,3,12,20" id="形状结合" node-id="21" stroke="none" target-height="34.380005" target-width="84.56998" target-x="371.67" target-y="1183.96"></path></g><g node-id="130"><path d="M 401.18 1166.27 L 429.37 1168.00 L 429.37 1205.18 L 428.61 1205.13 L 427.51 1206.04 L 425.87 1206.90 L 423.55 1207.70 L 419.83 1208.43 L 415.27 1208.71 L 411.44 1208.51 L 408.16 1207.99 L 405.18 1207.11 L 403.10 1206.09 L 401.98 1205.18 L 401.38 1204.30 L 401.18 1203.41 L 401.18 1203.45 L 401.18 1166.27 Z" fill="url(#linearGradient-2)" fill-rule="evenodd" group-id="1,2,3,12,21" id="形状结合备份" node-id="23" stroke="none" target-height="42.43994" target-width="28.190002" target-x="401.18" target-y="1166.27"></path><path d="M 429.37 1164.59 L 429.16 1165.50 L 428.56 1166.40 L 427.44 1167.31 L 425.36 1168.36 L 422.39 1169.25 L 419.11 1169.78 L 415.27 1169.98 L 411.44 1169.78 L 408.16 1169.25 L 405.18 1168.36 L 403.10 1167.31 L 401.99 1166.40 L 401.39 1165.50 L 401.18 1164.59 L 401.39 1163.68 L 401.99 1162.78 L 403.10 1161.87 L 405.18 1160.83 L 408.16 1159.94 L 411.44 1159.40 L 415.27 1159.20 L 419.11 1159.40 L 422.39 1159.94 L 425.36 1160.83 L 427.44 1161.87 L 428.56 1162.78 L 429.16 1163.68 L 429.37 1164.59 Z" fill="#585858" fill-rule="evenodd" group-id="1,2,3,12,21" id="形状结合备份-2" node-id="24" stroke="none" target-height="10.780029" target-width="28.190002" target-x="401.18" target-y="1159.2"></path></g></g><g node-id="122"><g node-id="131"><path d="M 26.26 1034.56 L 110.83 1036.96 L 110.83 1079.96 L 111.10 1081.91 L 110.83 1083.86 L 110.83 1088.49 L 107.97 1088.41 L 105.70 1090.32 L 102.73 1092.18 L 98.95 1093.97 L 95.03 1095.40 L 90.54 1096.66 L 85.43 1097.72 L 80.28 1098.46 L 74.75 1098.93 L 68.81 1099.10 L 62.18 1098.89 L 56.07 1098.31 L 50.43 1097.40 L 44.86 1096.08 L 40.12 1094.54 L 36.11 1092.81 L 33.18 1091.17 L 30.88 1089.51 L 29.12 1087.84 L 27.82 1086.14 L 26.26 1086.09 L 26.26 1034.56 Z" fill="url(#linearGradient-1)" fill-rule="evenodd" group-id="1,2,3,13,22" id="形状结合" node-id="27" stroke="none" target-height="64.53992" target-width="84.84" target-x="26.26" target-y="1034.56"></path><path d="M 111.10 1039.36 L 110.88 1041.06 L 110.29 1042.72 L 109.28 1044.38 L 107.77 1046.05 L 105.47 1047.93 L 102.49 1049.76 L 98.71 1051.52 L 94.80 1052.92 L 90.34 1054.16 L 85.27 1055.20 L 80.16 1055.93 L 74.69 1056.38 L 68.81 1056.55 L 62.94 1056.38 L 57.47 1055.93 L 52.36 1055.20 L 47.29 1054.16 L 42.83 1052.92 L 38.92 1051.52 L 35.14 1049.76 L 32.16 1047.93 L 29.85 1046.05 L 28.35 1044.38 L 27.34 1042.72 L 26.75 1041.06 L 26.53 1039.36 L 26.75 1037.66 L 27.34 1036.00 L 28.35 1034.34 L 29.85 1032.67 L 32.16 1030.79 L 35.14 1028.96 L 38.92 1027.21 L 42.83 1025.80 L 47.29 1024.56 L 52.36 1023.52 L 57.47 1022.79 L 62.94 1022.34 L 68.81 1022.17 L 74.69 1022.34 L 80.16 1022.79 L 85.27 1023.52 L 90.34 1024.56 L 94.80 1025.80 L 98.71 1027.21 L 102.49 1028.96 L 105.47 1030.79 L 107.77 1032.67 L 109.28 1034.34 L 110.29 1036.00 L 110.88 1037.66 L 111.10 1039.36 Z" fill="#000000" fill-rule="evenodd" group-id="1,2,3,13,22" id="形状结合" node-id="28" stroke="none" target-height="34.380066" target-width="84.57" target-x="26.53" target-y="1022.17"></path></g><g node-id="132"><path d="M 56.04 1004.49 L 84.23 1006.22 L 84.23 1043.39 L 83.47 1043.34 L 82.37 1044.25 L 80.73 1045.12 L 78.41 1045.92 L 74.69 1046.64 L 70.13 1046.93 L 66.30 1046.73 L 63.02 1046.20 L 60.04 1045.33 L 57.96 1044.30 L 56.84 1043.40 L 56.24 1042.52 L 56.04 1041.62 L 56.04 1041.66 L 56.04 1004.49 Z" fill="url(#linearGradient-2)" fill-rule="evenodd" group-id="1,2,3,13,23" id="形状结合备份" node-id="30" stroke="none" target-height="42.440063" target-width="28.190002" target-x="56.04" target-y="1004.49"></path><path d="M 84.23 1002.81 L 84.02 1003.72 L 83.42 1004.61 L 82.30 1005.53 L 80.22 1006.57 L 77.25 1007.46 L 73.97 1008.00 L 70.13 1008.20 L 66.30 1008.00 L 63.02 1007.46 L 60.04 1006.57 L 57.96 1005.53 L 56.84 1004.61 L 56.24 1003.72 L 56.04 1002.81 L 56.24 1001.90 L 56.84 1001.00 L 57.96 1000.09 L 60.04 999.04 L 63.02 998.15 L 66.30 997.62 L 70.13 997.41 L 73.97 997.62 L 77.25 998.15 L 80.22 999.04 L 82.30 1000.09 L 83.42 1001.00 L 84.02 1001.90 L 84.23 1002.81 Z" fill="#585858" fill-rule="evenodd" group-id="1,2,3,13,23" id="形状结合备份-2" node-id="31" stroke="none" target-height="10.790039" target-width="28.190002" target-x="56.04" target-y="997.41"></path></g></g><g node-id="123"><path d="M 790.71 921.36 L 875.28 926.08 L 875.28 1018.93 L 875.55 1020.88 L 875.28 1022.83 L 875.28 1027.46 L 872.50 1027.31 L 870.23 1029.23 L 867.27 1031.10 L 863.49 1032.90 L 859.56 1034.35 L 855.07 1035.61 L 849.94 1036.69 L 844.77 1037.43 L 839.22 1037.90 L 833.26 1038.07 L 827.79 1037.93 L 822.66 1037.53 L 817.83 1036.89 L 813.05 1035.98 L 808.77 1034.90 L 804.95 1033.65 L 801.24 1032.11 L 798.19 1030.48 L 795.72 1028.80 L 793.54 1026.79 L 792.08 1024.79 L 791.23 1022.78 L 790.71 1022.75 L 790.71 921.36 Z" fill="url(#linearGradient-3)" fill-rule="evenodd" group-id="1,2,3,14" id="形状结合" node-id="33" stroke="none" target-height="116.70996" target-width="84.839966" target-x="790.71" target-y="921.36"></path><path d="M 875.55 924.41 L 875.33 926.11 L 874.74 927.77 L 873.72 929.42 L 872.22 931.10 L 869.92 932.98 L 866.94 934.80 L 863.16 936.56 L 859.25 937.97 L 854.79 939.20 L 849.72 940.25 L 844.61 940.97 L 839.13 941.43 L 833.26 941.60 L 827.39 941.43 L 821.92 940.97 L 816.81 940.25 L 811.74 939.20 L 807.27 937.97 L 803.36 936.56 L 799.59 934.80 L 796.61 932.98 L 794.30 931.10 L 792.80 929.42 L 791.79 927.77 L 791.19 926.11 L 790.98 924.41 L 791.19 922.71 L 791.79 921.04 L 792.80 919.39 L 794.30 917.72 L 796.61 915.83 L 799.59 914.01 L 803.36 912.25 L 807.27 910.84 L 811.74 909.61 L 816.81 908.57 L 821.92 907.84 L 827.39 907.38 L 833.26 907.22 L 839.13 907.38 L 844.61 907.84 L 849.72 908.57 L 854.79 909.61 L 859.25 910.84 L 863.16 912.25 L 866.94 914.01 L 869.92 915.83 L 872.22 917.72 L 873.72 919.39 L 874.74 921.04 L 875.33 922.71 L 875.55 924.41 Z" fill="#000000" fill-rule="evenodd" group-id="1,2,3,14" id="形状结合" node-id="34" stroke="none" target-height="34.380005" target-width="84.57001" target-x="790.98" target-y="907.22"></path></g><g node-id="124"><g node-id="133"><path d="M 470.06 779.90 L 554.63 784.61 L 554.63 877.47 L 554.90 879.42 L 554.63 881.37 L 554.63 886.00 L 551.85 885.84 L 549.58 887.76 L 546.63 889.63 L 542.84 891.44 L 538.92 892.88 L 534.42 894.15 L 529.29 895.22 L 524.12 895.96 L 518.57 896.43 L 512.62 896.61 L 507.15 896.46 L 502.01 896.06 L 497.19 895.43 L 492.40 894.52 L 488.12 893.43 L 484.30 892.18 L 480.59 890.64 L 477.54 889.02 L 475.07 887.33 L 472.89 885.32 L 471.44 883.32 L 470.59 881.31 L 470.06 881.28 L 470.06 779.90 Z" fill="url(#linearGradient-3)" fill-rule="evenodd" group-id="1,2,3,15,24" id="形状结合" node-id="37" stroke="none" target-height="116.70996" target-width="84.84003" target-x="470.06" target-y="779.9"></path><path d="M 554.90 782.94 L 554.69 784.64 L 554.09 786.30 L 553.08 787.96 L 551.58 789.63 L 549.27 791.51 L 546.29 793.34 L 542.51 795.09 L 538.60 796.50 L 534.14 797.74 L 529.07 798.78 L 523.96 799.51 L 518.49 799.96 L 512.62 800.13 L 506.75 799.96 L 501.27 799.51 L 496.16 798.78 L 491.09 797.74 L 486.63 796.50 L 482.72 795.09 L 478.94 793.34 L 475.96 791.51 L 473.66 789.63 L 472.16 787.96 L 471.14 786.30 L 470.55 784.64 L 470.33 782.94 L 470.55 781.24 L 471.14 779.58 L 472.16 777.92 L 473.66 776.25 L 475.96 774.37 L 478.94 772.54 L 482.72 770.78 L 486.63 769.38 L 491.09 768.14 L 496.16 767.10 L 501.27 766.37 L 506.75 765.92 L 512.62 765.75 L 518.49 765.92 L 523.96 766.37 L 529.07 767.10 L 534.14 768.14 L 538.60 769.38 L 542.51 770.78 L 546.29 772.54 L 549.27 774.37 L 551.58 776.25 L 553.08 777.92 L 554.09 779.58 L 554.69 781.24 L 554.90 782.94 Z" fill="#000000" fill-rule="evenodd" group-id="1,2,3,15,24" id="形状结合" node-id="38" stroke="none" target-height="34.380005" target-width="84.57004" target-x="470.33" target-y="765.75"></path></g><g node-id="134"><path d="M 499.84 748.07 L 528.03 749.79 L 528.03 786.97 L 527.27 786.92 L 526.17 787.83 L 524.54 788.70 L 522.21 789.50 L 518.49 790.22 L 513.93 790.51 L 510.10 790.31 L 506.82 789.78 L 503.84 788.90 L 501.76 787.88 L 500.64 786.98 L 500.05 786.10 L 499.84 785.20 L 499.84 785.24 L 499.84 748.07 Z" fill="url(#linearGradient-2)" fill-rule="evenodd" group-id="1,2,3,15,25" id="形状结合备份" node-id="40" stroke="none" target-height="42.440002" target-width="28.190033" target-x="499.84" target-y="748.07"></path><path d="M 528.03 746.38 L 527.82 747.30 L 527.22 748.19 L 526.10 749.11 L 524.02 750.15 L 521.05 751.04 L 517.77 751.58 L 513.93 751.78 L 510.10 751.58 L 506.82 751.04 L 503.84 750.15 L 501.76 749.11 L 500.65 748.19 L 500.05 747.30 L 499.84 746.38 L 500.05 745.47 L 500.65 744.58 L 501.76 743.66 L 503.84 742.62 L 506.82 741.73 L 510.10 741.19 L 513.93 740.99 L 517.77 741.19 L 521.05 741.73 L 524.02 742.62 L 526.10 743.66 L 527.22 744.58 L 527.82 745.47 L 528.03 746.38 Z" fill="#585858" fill-rule="evenodd" group-id="1,2,3,15,25" id="形状结合备份-2" node-id="41" stroke="none" target-height="10.790039" target-width="28.190033" target-x="499.84" target-y="740.99"></path></g></g><g node-id="125"><path d="M 457.95 764.75 L 889.37 966.63 L 438.35 1214.19 L 0.50 1013.50 Z" fill="#c0c0c0" fill-rule="evenodd" group-id="1,2,3,16" id="矩形备份-52" node-id="43" stroke="none" target-height="449.43994" target-width="888.87" target-x="0.5" target-y="764.75"></path><path d="M 889.37 554.43 L 889.37 966.63 L 438.35 1214.19 L 436.37 807.89 L 889.37 554.43 Z M 843.51 614.67 L 482.24 816.81 L 483.81 1089.24 L 843.51 891.80 L 843.51 614.67 Z" fill="#d8d8d8" fill-rule="evenodd" group-id="1,2,3,16" id="形状结合" node-id="44" stroke="none" target-height="659.75995" target-width="453" target-x="436.37" target-y="554.43"></path><path d="M 2.65 603.14 L 441.77 807.89 L 440.11 1215.96 L 1.00 1013.00 L 2.65 603.14 Z M 77.41 738.72 L 44.34 760.22 L 43.24 989.00 L 68.96 1027.86 L 375.06 1170.15 L 407.65 1149.79 L 408.72 929.24 L 377.59 879.51 L 77.41 738.72 Z" fill="#e8e6e6" fill-rule="evenodd" group-id="1,2,3,16" id="形状结合" node-id="45" stroke="none" target-height="612.81995" target-width="440.77" target-x="1" target-y="603.14"></path><path d="M 4.56 607.46 L 445.29 349.30 L 888.50 555.50 L 437.96 814.33 Z" fill="#f7f7f7" fill-rule="evenodd" group-id="1,2,3,16" id="路径-16备份-2" node-id="46" stroke="none" target-height="465.03003" target-width="883.94" target-x="4.56" target-y="349.3"></path><path d="M 3.56 595.67 L 68.66 553.43 L 510.87 763.75 L 436.96 802.55 Z" fill="#2a7b5a" fill-rule="evenodd" group-id="1,2,3,16" id="路径-16备份-2" node-id="47" stroke="none" target-height="249.12" target-width="507.31" target-x="3.56" target-y="553.43"></path><path d="M 3.56 595.67 L 3.95 607.35 L 435.37 812.28 L 436.96 802.55 Z" fill="#286f52" fill-rule="evenodd" group-id="1,2,3,16" id="路径-16备份-2" node-id="48" stroke="none" target-height="216.61005" target-width="433.4" target-x="3.56" target-y="595.67"></path><path d="M 435.37 812.28 L 510.87 774.53 L 510.87 763.75 L 435.37 801.50 Z" fill="#1d5940" fill-rule="evenodd" group-id="1,2,3,16" id="路径-16备份-2" node-id="49" stroke="none" target-height="48.53003" target-width="75.5" target-x="435.37" target-y="763.75"></path></g></g><g node-id="113"><g node-id="126"><g node-id="135"><path d="M 866.81 262.39 L 854.29 268.65 L 854.29 563.61 L 866.81 557.36 Z" fill="#dbdbdb" fill-rule="evenodd" group-id="1,2,4,17,26" id="矩形" node-id="52" stroke="none" target-height="301.21997" target-width="12.52002" target-x="854.29" target-y="262.39"></path></g><path d="M 854.29 268.65 L 840.99 261.61 L 840.99 556.57 L 854.29 563.61 Z" fill="#bab9b9" fill-rule="evenodd" group-id="1,2,4,17,27" id="矩形备份-17" node-id="53" stroke="none" target-height="302" target-width="13.299988" target-x="840.99" target-y="261.61"></path></g><g node-id="127"><g node-id="137"><path d="M 456.96 79.04 L 444.44 85.29 L 444.44 380.25 L 456.96 374.00 Z" fill="#dbdbdb" fill-rule="evenodd" group-id="1,2,4,18,28" id="矩形" node-id="55" stroke="none" target-height="301.21" target-width="12.519989" target-x="444.44" target-y="79.04"></path></g><path d="M 444.44 85.29 L 431.13 78.25 L 431.13 373.22 L 444.44 380.25 Z" fill="#bab9b9" fill-rule="evenodd" group-id="1,2,4,18,29" id="矩形备份-17" node-id="56" stroke="none" target-height="302" target-width="13.309998" target-x="431.13" target-y="78.25"></path></g><g node-id="128"><path d="M 242.23 158.40 L 803.09 422.65 L 803.09 435.78 L 242.23 171.53 Z" fill="#ccc6c6" fill-rule="evenodd" group-id="1,2,4,19" id="矩形备份-22" node-id="58" stroke="none" target-height="277.38" target-width="560.86005" target-x="242.23" target-y="158.4"></path><g node-id="139"><path d="M 441.77 47.50 L 1002.62 311.75 L 802.76 422.54 L 238.90 159.11 Z" fill="#ffffff" fill-rule="evenodd" group-id="1,2,4,19,30" id="矩形" node-id="59" stroke="none" target-height="375.04" target-width="763.72" target-x="238.9" target-y="47.5"></path></g><path d="M 1002.29 309.30 L 1002.62 322.53 L 803.09 435.78 L 803.09 419.60 Z" fill="#d8d8d8" fill-rule="evenodd" group-id="1,2,4,19,31" id="矩形备份-51" node-id="60" stroke="none" target-height="126.48001" target-width="199.52997" target-x="803.09" target-y="309.3"></path></g></g><g node-id="114"><path d="M 69.66 683.85 L 69.46 686.78 L 68.93 689.30 L 68.05 691.55 L 66.99 693.17 L 66.11 694.00 L 65.21 694.47 L 64.27 694.64 L 63.33 694.47 L 62.43 694.00 L 61.55 693.17 L 60.49 691.55 L 59.61 689.30 L 59.08 686.78 L 58.88 683.85 L 59.08 680.93 L 59.61 678.41 L 60.49 676.15 L 61.55 674.54 L 62.43 673.71 L 63.33 673.24 L 64.27 673.07 L 65.21 673.24 L 66.11 673.71 L 66.99 674.54 L 68.05 676.15 L 68.93 678.41 L 69.46 680.93 L 69.66 683.85 Z" fill="#000000" fill-rule="evenodd" group-id="1,2,5" id="椭圆形" node-id="62" stroke="none" target-height="21.570007" target-width="10.780003" target-x="58.88" target-y="673.07"></path><path d="M 75.06 689.25 L 76.00 689.08 L 76.89 688.61 L 77.78 687.77 L 78.83 686.16 L 79.71 683.90 L 80.25 681.39 L 80.45 678.46 L 80.25 675.53 L 79.71 673.02 L 78.83 670.76 L 77.78 669.15 L 76.89 668.31 L 76.00 667.84 L 75.06 667.67 L 74.11 667.84 L 73.22 668.31 L 72.33 669.15 L 71.28 670.76 L 70.40 673.02 L 69.86 675.53 L 69.66 678.46 L 69.86 681.39 L 70.40 683.90 L 71.28 686.16 L 72.33 687.77 L 73.22 688.61 L 74.11 689.08 L 75.06 689.25 Z" fill="#000000" fill-rule="evenodd" group-id="1,2,5" id="椭圆形备份-7" node-id="63" stroke="none" target-height="21.580017" target-width="10.789993" target-x="69.66" target-y="667.67"></path><path d="M 64.27 673.07 L 75.06 667.67 L 75.06 689.25 L 64.27 694.64 Z" fill="#000000" fill-rule="evenodd" group-id="1,2,5" id="矩形" node-id="64" stroke="none" target-height="26.970032" target-width="10.790001" target-x="64.27" target-y="667.67"></path></g><g node-id="115"><path d="M 91.23 694.64 L 91.03 697.57 L 90.50 700.08 L 89.62 702.34 L 88.56 703.95 L 87.68 704.78 L 86.78 705.26 L 85.84 705.42 L 84.90 705.26 L 84.00 704.78 L 83.12 703.95 L 82.07 702.34 L 81.18 700.08 L 80.65 697.57 L 80.45 694.64 L 80.65 691.71 L 81.18 689.19 L 82.07 686.94 L 83.12 685.33 L 84.00 684.49 L 84.90 684.02 L 85.84 683.85 L 86.78 684.02 L 87.68 684.49 L 88.56 685.33 L 89.62 686.94 L 90.50 689.19 L 91.03 691.71 L 91.23 694.64 Z" fill="#000000" fill-rule="evenodd" group-id="1,2,6" id="椭圆形" node-id="66" stroke="none" target-height="21.570007" target-width="10.780006" target-x="80.45" target-y="683.85"></path><path d="M 96.63 700.03 L 97.57 699.86 L 98.47 699.39 L 99.35 698.56 L 100.40 696.95 L 101.28 694.69 L 101.82 692.17 L 102.02 689.25 L 101.82 686.32 L 101.28 683.80 L 100.40 681.54 L 99.35 679.93 L 98.47 679.10 L 97.57 678.63 L 96.63 678.46 L 95.69 678.63 L 94.79 679.10 L 93.90 679.93 L 92.85 681.54 L 91.97 683.80 L 91.43 686.32 L 91.23 689.25 L 91.43 692.17 L 91.97 694.69 L 92.85 696.95 L 93.90 698.56 L 94.79 699.39 L 95.69 699.86 L 96.63 700.03 Z" fill="#000000" fill-rule="evenodd" group-id="1,2,6" id="椭圆形备份-7" node-id="67" stroke="none" target-height="21.570007" target-width="10.789993" target-x="91.23" target-y="678.46"></path><path d="M 85.84 683.85 L 96.63 678.46 L 96.63 700.03 L 85.84 705.42 Z" fill="#000000" fill-rule="evenodd" group-id="1,2,6" id="矩形" node-id="68" stroke="none" target-height="26.95996" target-width="10.790001" target-x="85.84" target-y="678.46"></path></g><g node-id="116"><path d="M 134.38 716.21 L 134.18 719.14 L 133.64 721.65 L 132.76 723.91 L 131.71 725.52 L 130.82 726.36 L 129.92 726.83 L 128.98 727.00 L 128.04 726.83 L 127.15 726.36 L 126.26 725.52 L 125.21 723.91 L 124.33 721.65 L 123.79 719.14 L 123.59 716.21 L 123.79 713.28 L 124.33 710.77 L 125.21 708.51 L 126.26 706.90 L 127.15 706.06 L 128.04 705.59 L 128.98 705.42 L 129.92 705.59 L 130.82 706.06 L 131.71 706.90 L 132.76 708.51 L 133.64 710.77 L 134.18 713.28 L 134.38 716.21 Z" fill="#000000" fill-rule="evenodd" group-id="1,2,7" id="椭圆形" node-id="70" stroke="none" target-height="21.580017" target-width="10.790009" target-x="123.59" target-y="705.42"></path><path d="M 139.77 721.60 L 140.71 721.43 L 141.61 720.96 L 142.49 720.13 L 143.54 718.52 L 144.43 716.26 L 144.96 713.74 L 145.16 710.82 L 144.96 707.89 L 144.43 705.37 L 143.54 703.12 L 142.49 701.50 L 141.61 700.67 L 140.71 700.20 L 139.77 700.03 L 138.83 700.20 L 137.93 700.67 L 137.05 701.50 L 135.99 703.12 L 135.11 705.37 L 134.58 707.89 L 134.38 710.82 L 134.58 713.74 L 135.11 716.26 L 135.99 718.52 L 137.05 720.13 L 137.93 720.96 L 138.83 721.43 L 139.77 721.60 Z" fill="#000000" fill-rule="evenodd" group-id="1,2,7" id="椭圆形备份-7" node-id="71" stroke="none" target-height="21.569946" target-width="10.779999" target-x="134.38" target-y="700.03"></path><path d="M 128.98 705.42 L 139.77 700.03 L 139.77 721.60 L 128.98 727.00 Z" fill="#000000" fill-rule="evenodd" group-id="1,2,7" id="矩形" node-id="72" stroke="none" target-height="26.96997" target-width="10.790009" target-x="128.98" target-y="700.03"></path></g><g node-id="117"><path d="M 112.81 705.42 L 112.60 708.35 L 112.07 710.87 L 111.19 713.13 L 110.13 714.74 L 109.25 715.57 L 108.35 716.04 L 107.41 716.21 L 106.47 716.04 L 105.57 715.57 L 104.69 714.74 L 103.64 713.13 L 102.76 710.87 L 102.22 708.35 L 102.02 705.42 L 102.22 702.50 L 102.76 699.98 L 103.64 697.72 L 104.69 696.11 L 105.57 695.28 L 106.47 694.81 L 107.41 694.64 L 108.35 694.81 L 109.25 695.28 L 110.13 696.11 L 111.19 697.72 L 112.07 699.98 L 112.60 702.50 L 112.81 705.42 Z" fill="#000000" fill-rule="evenodd" group-id="1,2,8" id="椭圆形" node-id="74" stroke="none" target-height="21.570007" target-width="10.790001" target-x="102.02" target-y="694.64"></path><path d="M 118.20 710.82 L 119.14 710.65 L 120.04 710.18 L 120.92 709.34 L 121.97 707.73 L 122.85 705.48 L 123.39 702.96 L 123.59 700.03 L 123.39 697.10 L 122.85 694.59 L 121.97 692.33 L 120.92 690.72 L 120.04 689.89 L 119.14 689.41 L 118.20 689.25 L 117.26 689.41 L 116.36 689.89 L 115.48 690.72 L 114.42 692.33 L 113.54 694.59 L 113.01 697.10 L 112.81 700.03 L 113.01 702.96 L 113.54 705.48 L 114.42 707.73 L 115.48 709.34 L 116.36 710.18 L 117.26 710.65 L 118.20 710.82 Z" fill="#000000" fill-rule="evenodd" group-id="1,2,8" id="椭圆形备份-7" node-id="75" stroke="none" target-height="21.570007" target-width="10.779999" target-x="112.81" target-y="689.25"></path><path d="M 107.41 694.64 L 118.20 689.25 L 118.20 710.82 L 107.41 716.21 Z" fill="#000000" fill-rule="evenodd" group-id="1,2,8" id="矩形" node-id="76" stroke="none" target-height="26.960022" target-width="10.789993" target-x="107.41" target-y="689.25"></path></g><g node-id="118"><path d="M 155.95 727.00 L 155.75 729.92 L 155.21 732.44 L 154.33 734.70 L 153.28 736.31 L 152.39 737.14 L 151.50 737.61 L 150.55 737.78 L 149.61 737.61 L 148.72 737.14 L 147.83 736.31 L 146.78 734.70 L 145.90 732.44 L 145.36 729.92 L 145.16 727.00 L 145.36 724.07 L 145.90 721.55 L 146.78 719.29 L 147.83 717.68 L 148.72 716.85 L 149.61 716.38 L 150.55 716.21 L 151.50 716.38 L 152.39 716.85 L 153.28 717.68 L 154.33 719.29 L 155.21 721.55 L 155.75 724.07 L 155.95 727.00 Z" fill="#000000" fill-rule="evenodd" group-id="1,2,9" id="椭圆形" node-id="78" stroke="none" target-height="21.570007" target-width="10.789993" target-x="145.16" target-y="716.21"></path><path d="M 161.34 732.39 L 162.28 732.22 L 163.18 731.75 L 164.06 730.92 L 165.12 729.30 L 166.00 727.05 L 166.53 724.53 L 166.73 721.60 L 166.53 718.68 L 166.00 716.16 L 165.12 713.90 L 164.06 712.29 L 163.18 711.46 L 162.28 710.99 L 161.34 710.82 L 160.40 710.99 L 159.50 711.46 L 158.62 712.29 L 157.56 713.90 L 156.68 716.16 L 156.15 718.68 L 155.95 721.60 L 156.15 724.53 L 156.68 727.05 L 157.56 729.30 L 158.62 730.92 L 159.50 731.75 L 160.40 732.22 L 161.34 732.39 Z" fill="#000000" fill-rule="evenodd" group-id="1,2,9" id="椭圆形备份-7" node-id="79" stroke="none" target-height="21.570007" target-width="10.779999" target-x="155.95" target-y="710.82"></path><path d="M 150.55 716.21 L 161.34 710.82 L 161.34 732.39 L 150.55 737.78 Z" fill="#000000" fill-rule="evenodd" group-id="1,2,9" id="矩形" node-id="80" stroke="none" target-height="26.960022" target-width="10.789993" target-x="150.55" target-y="710.82"></path></g><g node-id="119"><path d="M 355.48 825.41 L 355.18 830.92 L 354.38 835.62 L 353.52 838.62 L 352.54 841.01 L 351.48 842.88 L 350.11 844.47 L 348.77 845.34 L 347.39 845.64 L 346.02 845.34 L 344.67 844.47 L 343.31 842.88 L 342.24 841.01 L 341.27 838.62 L 340.41 835.62 L 339.61 830.92 L 339.30 825.41 L 339.61 819.91 L 340.41 815.21 L 341.27 812.20 L 342.24 809.82 L 343.31 807.95 L 344.67 806.36 L 346.02 805.49 L 347.39 805.19 L 348.77 805.49 L 350.11 806.36 L 351.48 807.95 L 352.54 809.82 L 353.52 812.20 L 354.38 815.21 L 355.18 819.91 L 355.48 825.41 Z" fill="#000000" fill-rule="evenodd" group-id="1,2,10" id="椭圆形" node-id="82" stroke="none" target-height="40.450012" target-width="16.180023" target-x="339.3" target-y="805.19"></path><path d="M 363.57 837.55 L 364.95 837.25 L 366.29 836.38 L 367.65 834.79 L 368.72 832.92 L 369.70 830.54 L 370.56 827.53 L 371.36 822.83 L 371.66 817.33 L 371.36 811.83 L 370.56 807.12 L 369.70 804.12 L 368.72 801.73 L 367.65 799.86 L 366.29 798.27 L 364.95 797.40 L 363.57 797.10 L 362.20 797.40 L 360.85 798.27 L 359.49 799.86 L 358.42 801.73 L 357.45 804.12 L 356.59 807.12 L 355.78 811.83 L 355.48 817.33 L 355.78 822.83 L 356.59 827.53 L 357.45 830.54 L 358.42 832.92 L 359.49 834.79 L 360.85 836.38 L 362.20 837.25 L 363.57 837.55 Z" fill="#000000" fill-rule="evenodd" group-id="1,2,10" id="椭圆形备份-7" node-id="83" stroke="none" target-height="40.450012" target-width="16.179993" target-x="355.48" target-y="797.1"></path><path d="M 347.39 806.81 L 363.57 797.10 L 363.57 835.93 L 347.39 845.64 Z" fill="#000000" fill-rule="evenodd" group-id="1,2,10" id="矩形" node-id="84" stroke="none" target-height="48.54004" target-width="16.179993" target-x="347.39" target-y="797.1"></path></g><g node-id="120"><path d="M 199.09 508.13 L 497.17 657.33 L 497.17 694.63 L 199.09 545.43 Z" fill="#444644" fill-rule="evenodd" group-id="1,2,11" id="矩形备份-41" node-id="86" stroke="none" target-height="186.5" target-width="298.08002" target-x="199.09" target-y="508.13"></path><path d="M 207.61 498.81 L 505.68 648.01 L 497.17 657.33 L 199.09 508.13 Z" fill="#696969" fill-rule="evenodd" group-id="1,2,11" id="矩形备份-42" node-id="87" stroke="none" target-height="158.52002" target-width="306.59" target-x="199.09" target-y="498.81"></path><path d="M 497.17 657.33 L 506.48 648.01 L 506.48 685.31 L 497.17 694.63 Z" fill="#2b2a2a" fill-rule="evenodd" group-id="1,2,11" id="矩形" node-id="88" stroke="none" target-height="46.619995" target-width="9.309998" target-x="497.17" target-y="648.01"></path><path d="M 217.72 247.03 L 497.17 384.33 L 497.17 645.43 L 217.72 508.13 Z" fill="#494a49" fill-rule="evenodd" group-id="1,2,11" id="矩形" node-id="89" stroke="none" target-height="398.4" target-width="279.45" target-x="217.72" target-y="247.03"></path></g></g></g></svg>