<?xml version="1.0" standalone="no"?><!DOCTYPE svg PUBLIC "-//W3C//DTD SVG 1.1//EN" "http://www.w3.org/Graphics/SVG/1.1/DTD/svg11.dtd"><svg t="1723451107100" class="icon" viewBox="0 0 1024 1024" version="1.1" xmlns="http://www.w3.org/2000/svg" p-id="14149" xmlns:xlink="http://www.w3.org/1999/xlink" width="48" height="48"><path d="M928 96v832h-832V416.96h64v203.776h204.8V384h23.296v-19.2L620.8 364.736V160H416v-64h512z m-563.2 563.136H160V864h204.8v-204.864z m38.4 0V864h217.536v-204.864H403.2z m460.8 0h-204.864V864H864v-204.864z m-460.8-256v217.6h217.536v-217.6H403.2z m460.8 0h-204.864v217.6H864v-217.6z m0-38.4V160h-204.864v204.736H864z" fill="#324558" p-id="14150"></path><path d="M415.936 353.024v49.92l207.36 0.064v217.984H400.64V417.024h-48.768v-64h64z m-128 0v64h-64v-64h64z m-128 0v64h-64v-64h64z m0-128.512v64h-64v-64h64z m256 0v64h-64v-64h64z m-256-128.448v64h-64v-64h64z m128 0v64h-64v-64h64z m128 0v64h-64v-64h64z" fill="#41A368" p-id="14151"></path></svg>