<?xml version="1.0" standalone="no"?><!DOCTYPE svg PUBLIC "-//W3C//DTD SVG 1.1//EN" "http://www.w3.org/Graphics/SVG/1.1/DTD/svg11.dtd"><svg t="1695365030153" class="icon" viewBox="0 0 1094 1024" version="1.1" xmlns="http://www.w3.org/2000/svg" p-id="1624" data-spm-anchor-id="a313x.manage_type_myprojects.0.i2.1adc3a81px4RsK" xmlns:xlink="http://www.w3.org/1999/xlink" width="25.640625" height="24"><path d="M984.860838 227.319149H153.357353c-15.616064 0-28.275239 12.657976-28.27524 28.272839v441.069494c0 15.614864 12.659176 28.274039 28.27524 28.27404h831.503485c15.614864 0 28.272839-12.657976 28.272839-28.27404V255.591988c0-15.613664-12.656776-28.272839-28.272839-28.272839z m-12.372367 432.768847c0 13.025187-10.559113 23.5855-23.5843 23.585501H189.31402c-13.026387 0-23.5855-10.559113-23.5855-23.585501V292.166674c0-13.025187 10.559113-23.5855 23.5855-23.5855H948.904171c13.025187 0 23.5843 10.559113 23.5843 23.5855v367.921322z" fill="#409eff" p-id="1625" data-spm-anchor-id="a313x.manage_type_myprojects.0.i3.1adc3a81px4RsK" class=""></path><path d="M395.144131 473.024043c19.678184-10.226704 29.925288-27.174807 30.718512-50.803508-3.156094-40.171193-30.718512-61.438224-82.704055-63.801094h-105.154322v244.57086h111.062097c58.28093 0 87.430996-23.224289 87.430996-69.708869-0.794424-28.356842-14.584033-48.441838-41.353228-60.257389z m-118.149508-79.16035h61.438224c29.130865 0.794424 44.491321 11.040328 46.077768 30.719712-0.794424 22.061455-16.541291 33.488194-47.259803 34.263417h-60.256189V393.863693z m68.526835 174.861991h-68.526835v-74.43461h64.983129c33.856605 0.794424 51.579931 12.997586 53.167579 36.627488-0.0012 25.216349-16.541291 37.807122-49.623873 37.807122zM461.309295 393.863693h82.705255v209.126608h40.169993V393.863693h81.52322v-35.444252H461.309295zM863.017621 509.65033c0 13.403198 0.776423 27.96923 2.36407 43.716098v1.182035c-7.08861-16.541291-14.971644-31.106123-23.629901-43.716098-21.267031-33.081382-55.142837-83.88609-101.608217-152.412924h-41.352028v244.57086H737.781903v-147.688384c0-18.109738-1.180835-34.263417-3.546105-48.440638h1.180835c6.295387 13.401998 13.772809 27.580419 22.449066 42.534062 22.042254 33.082582 56.712484 84.292902 103.972287 153.59496h40.171192V358.419441H863.017621v151.230889z" fill="#409eff" p-id="1626" data-spm-anchor-id="a313x.manage_type_myprojects.0.i6.1adc3a81px4RsK" class="selected"></path></svg>