<?xml version="1.0" standalone="no"?><!DOCTYPE svg PUBLIC "-//W3C//DTD SVG 1.1//EN" "http://www.w3.org/Graphics/SVG/1.1/DTD/svg11.dtd"><svg t="1723451740830" class="icon" viewBox="0 0 1979 1024" version="1.1" xmlns="http://www.w3.org/2000/svg" p-id="8647" xmlns:xlink="http://www.w3.org/1999/xlink" width="92.765625" height="48"><path d="M409.6 320.853333c34.133333 0 61.44 6.826667 75.093333 27.306667 20.48 13.653333 27.306667 34.133333 27.306667 61.44 0 20.48-6.826667 34.133333-13.653333 47.786667-6.826667 13.653333-20.48 20.48-34.133334 27.306666 20.48 6.826667 40.96 13.653333 47.786667 27.306667s20.48 34.133333 20.48 54.613333c0 34.133333-13.653333 61.44-34.133333 75.093334-20.48 13.653333-47.786667 20.48-81.92 20.48H252.586667v-341.333334H409.6zM307.2 464.213333h88.746667c27.306667 0 40.96-6.826667 54.613333-13.653333 13.653333-6.826667 13.653333-20.48 13.653333-40.96s-6.826667-27.306667-13.653333-34.133333c-13.653333-6.826667-27.306667-13.653333-47.786667-13.653334H307.2v102.4z m0 157.013334h95.573333c20.48 0 40.96-6.826667 54.613334-13.653334 13.653333-6.826667 20.48-20.48 20.48-40.96s-6.826667-34.133333-20.48-40.96c-13.653333-6.826667-27.306667-13.653333-54.613334-13.653333H307.2v109.226667zM628.053333 416.426667v150.186666c0 20.48 6.826667 34.133333 13.653334 47.786667 6.826667 6.826667 20.48 13.653333 40.96 13.653333 13.653333 0 27.306667-6.826667 34.133333-13.653333 13.653333-13.653333 20.48-27.306667 27.306667-40.96V423.253333h47.786666v245.76h-47.786666v-34.133333c-20.48 27.306667-47.786667 40.96-75.093334 40.96-61.44 0-88.746667-34.133333-88.746666-102.4V416.426667h47.786666zM928.426667 416.426667h54.613333v40.96h-54.613333v143.36c0 6.826667 0 13.653333 6.826666 13.653333 0 0 6.826667 6.826667 13.653334 6.826667h34.133333v40.96h-40.96c-20.48 0-34.133333-6.826667-47.786667-13.653334-6.826667-13.653333-13.653333-27.306667-13.653333-47.786666V457.386667h-47.786667v-40.96h47.786667v-61.44l47.786667-20.48v81.92zM1099.093333 416.426667h54.613334v40.96h-54.613334v143.36c0 6.826667 0 13.653333 6.826667 13.653333 0 0 6.826667 6.826667 13.653333 6.826667h34.133334v40.96h-40.96c-20.48 0-34.133333-6.826667-47.786667-13.653334-6.826667-13.653333-13.653333-27.306667-13.653333-47.786666V457.386667h-47.786667v-40.96h47.786667v-61.44l47.786666-20.48v81.92zM1399.466667 443.733333c20.48 27.306667 34.133333 54.613333 34.133333 95.573334 0 34.133333-13.653333 68.266667-34.133333 95.573333-20.48 27.306667-54.613333 40.96-88.746667 40.96s-68.266667-13.653333-88.746667-40.96c-20.48-27.306667-34.133333-54.613333-34.133333-95.573333 0-40.96 13.653333-68.266667 34.133333-95.573334 20.48-27.306667 54.613333-34.133333 88.746667-34.133333 40.96 0 68.266667 13.653333 88.746667 34.133333z m-143.36 34.133334c-13.653333 13.653333-13.653333 34.133333-13.653334 61.44s6.826667 47.786667 13.653334 61.44c13.653333 20.48 34.133333 27.306667 54.613333 27.306666 20.48 0 40.96-6.826667 54.613333-27.306666 13.653333-13.653333 20.48-34.133333 20.48-61.44s-6.826667-47.786667-20.48-61.44c-13.653333-20.48-34.133333-27.306667-54.613333-27.306667-20.48 0-40.96 6.826667-54.613333 27.306667zM1699.84 512v150.186667h-47.786667V512c0-40.96-20.48-61.44-54.613333-61.44-13.653333 0-27.306667 6.826667-40.96 13.653333-13.653333 13.653333-20.48 27.306667-20.48 47.786667v150.186667h-47.786667V416.426667h47.786667v27.306666c6.826667-13.653333 20.48-20.48 34.133333-27.306666 13.653333-6.826667 27.306667-6.826667 40.96-6.826667 54.613333 0 88.746667 34.133333 88.746667 102.4z" fill="#515151" p-id="8648" data-spm-anchor-id="a313x.search_index.0.i1.117f3a81AAHUyn" class=""></path><path d="M1877.333333 1024h-1774.933333C47.786667 1024 0 976.213333 0 921.6v-819.2C0 47.786667 47.786667 0 102.4 0h1774.933333c54.613333 0 102.4 47.786667 102.4 102.4v819.2c0 54.613333-47.786667 102.4-102.4 102.4zM102.4 68.266667c-20.48 0-34.133333 13.653333-34.133333 34.133333v819.2c0 20.48 13.653333 34.133333 34.133333 34.133333h1774.933333c20.48 0 34.133333-13.653333 34.133334-34.133333v-819.2c0-20.48-13.653333-34.133333-34.133334-34.133333h-1774.933333z" fill="#bfbfbf" p-id="8649" data-spm-anchor-id="a313x.search_index.0.i2.117f3a81AAHUyn" class=""></path></svg>