<?xml version="1.0" standalone="no"?><!DOCTYPE svg PUBLIC "-//W3C//DTD SVG 1.1//EN" "http://www.w3.org/Graphics/SVG/1.1/DTD/svg11.dtd"><svg t="1684802285646" class="icon" viewBox="0 0 1024 1024" version="1.1" xmlns="http://www.w3.org/2000/svg" p-id="12751" xmlns:xlink="http://www.w3.org/1999/xlink" width="32" height="32"><path d="M51.2 471.04h215.04v522.24H51.2zM768 471.04h215.04v522.24H768z" fill="#DAE8F1" p-id="12752"></path><path d="M266.24 61.44h491.52v942.08H266.24z" fill="#FFFFFF" p-id="12753"></path><path d="M430.08 757.76h174.08v245.76H430.08z" fill="#DAE8F1" p-id="12754"></path><path d="M660.48 312.32v92.16h-286.72v-92.16z" fill="#FCAC9D" p-id="12755"></path><path d="M563.2 501.76h-92.16V215.04h92.16z" fill="#FCAC9D" p-id="12756"></path><path d="M976.9984 455.0656H848.4864V325.12a35.84 35.84 0 0 0-35.84-35.84h-31.9488V71.0656h32.4608a15.36 15.36 0 0 0 0-30.72H222.6176a15.36 15.36 0 0 0 0 30.72h32.4608v384H65.6384a35.84 35.84 0 0 0-35.84 35.84V984.064a35.84 35.84 0 0 0 35.84 35.84h911.36a35.84 35.84 0 0 0 35.84-35.84V490.9056a35.84 35.84 0 0 0-35.84-35.84z m-163.84-135.0656a5.12 5.12 0 0 1 5.12 5.12v129.9456h-37.5808V320zM222.1056 989.184V781.824h-30.72V989.184H65.6384a5.12 5.12 0 0 1-5.12-5.12V490.9056a5.12 5.12 0 0 1 5.12-5.12h189.44V989.184z m217.1904 0V769.9456a5.12 5.12 0 0 1 5.12-5.12h146.8416a5.12 5.12 0 0 1 5.12 5.12V989.184z m187.6992 0V769.9456a35.84 35.84 0 0 0-35.84-35.84H444.5184a35.84 35.84 0 0 0-35.84 35.84V989.184h-122.88V71.0656h464.1792V989.184z m355.0208-5.12a5.12 5.12 0 0 1-5.12 5.12H780.6976V485.7856h196.3008a5.12 5.12 0 0 1 5.12 5.12z" fill="#686C79" p-id="12757"></path><path d="M645.12 296.448h-66.6624v-67.1744a32.768 32.768 0 0 0-32.768-32.768h-60.7232a32.768 32.768 0 0 0-32.768 32.768v67.1744H385.024a32.768 32.768 0 0 0-32.768 32.768v60.8256a32.768 32.768 0 0 0 32.768 32.768h67.2768v67.072a32.768 32.768 0 0 0 32.768 32.768h60.7232a32.768 32.768 0 0 0 32.768-32.6656v-67.2768H645.12a32.768 32.768 0 0 0 32.768-32.768v-60.8256a32.768 32.768 0 0 0-32.768-32.6656z m2.048 93.4912a2.048 2.048 0 0 1-2.048 2.048h-81.92a15.36 15.36 0 0 0-15.36 15.36v82.432a2.048 2.048 0 0 1-2.048 2.048h-60.8256a2.048 2.048 0 0 1-2.048-2.048V409.6a14.9504 14.9504 0 0 0-15.1552-17.5104H385.024a2.048 2.048 0 0 1-2.048-2.048v-60.928a2.048 2.048 0 0 1 2.048-2.048h81.92a16.0768 16.0768 0 0 0 15.7696-15.7696v-81.92a2.048 2.048 0 0 1 2.048-2.048h60.8256a2.048 2.048 0 0 1 2.048 2.048V311.808a15.36 15.36 0 0 0 15.36 15.36H645.12a2.048 2.048 0 0 1 2.048 2.048zM191.3856 731.2384h30.72v30.72h-30.72zM613.2736 672.8704h-189.44a15.36 15.36 0 0 0 0 30.72h189.44a15.36 15.36 0 1 0 0-30.72z" fill="#686C79" p-id="12758"></path><path d="M556.3392 882.7904m-15.36 0a15.36 15.36 0 1 0 30.72 0 15.36 15.36 0 1 0-30.72 0Z" fill="#686C79" p-id="12759"></path><path d="M484.6592 882.7904m-15.36 0a15.36 15.36 0 1 0 30.72 0 15.36 15.36 0 1 0-30.72 0Z" fill="#686C79" p-id="12760"></path></svg>