<?xml version="1.0" standalone="no"?><!DOCTYPE svg PUBLIC "-//W3C//DTD SVG 1.1//EN" "http://www.w3.org/Graphics/SVG/1.1/DTD/svg11.dtd"><svg t="1695626725171" class="icon" viewBox="0 0 1024 1024" version="1.1" xmlns="http://www.w3.org/2000/svg" p-id="1852" xmlns:xlink="http://www.w3.org/1999/xlink" width="24" height="24"><path d="M962.4576 438.4768h-64.3072c-11.6736-61.6448-37.6832-118.1696-74.5472-165.9904 17.6128 48.0256 27.136 99.84 27.136 153.9072 0 246.9888-200.192 447.1808-447.1808 447.1808-17.92 0-35.5328-1.024-52.8384-3.072 49.152 22.1184 103.7312 34.5088 161.1776 34.5088 192 0 351.744-137.6256 386.1504-319.5904h64.3072c10.752 0 19.456-8.704 19.456-19.456V457.9328c0.1024-10.752-8.6016-19.456-19.3536-19.456z" fill="#FFA43E" p-id="1853"></path><path d="M850.8416 426.496c0-54.0672-9.6256-105.8816-27.136-153.9072-71.8848-93.3888-184.7296-153.6-311.7056-153.6-192 0-351.744 137.6256-386.1504 319.5904H61.5424c-10.752 0-19.456 8.704-19.456 19.456v108.1344c0 10.752 8.704 19.456 19.456 19.456h64.3072c24.1664 127.488 109.7728 233.2672 224.9728 285.0816 17.3056 2.048 34.9184 3.072 52.8384 3.072 246.9888-0.1024 447.1808-200.3968 447.1808-447.2832z" fill="#FFD14F" p-id="1854"></path><path d="M680.6528 681.6768c0-93.184-75.5712-168.6528-168.6528-168.6528s-168.6528-75.5712-168.6528-168.6528S418.816 175.616 512 175.616v-1.9456c-186.88 0-338.3296 151.4496-338.3296 338.3296S325.12 850.3296 512 850.3296c93.184 0 168.6528-75.4688 168.6528-168.6528z" fill="#FDF7E5" p-id="1855"></path><path d="M512 173.6704v1.9456c-93.184 0-168.6528 75.5712-168.6528 168.6528S418.816 512.9216 512 512.9216s168.6528 75.5712 168.6528 168.6528S605.184 850.3296 512 850.3296c186.88 0 338.3296-151.4496 338.3296-338.3296S698.88 173.6704 512 173.6704z" fill="#E01E22" p-id="1856"></path><path d="M557.568 394.1376l19.5584-19.5584c27.648-27.648-27.4432-82.6368-54.9888-54.9888L391.5776 450.048s6.2464 29.3888 62.464 52.6336 92.16 11.5712 92.16 11.5712l59.8016-59.8016c27.5456-27.5456-20.8896-87.8592-48.4352-60.3136z" fill="#F06661" p-id="1857"></path><path d="M592.4864 444.7232c14.336-14.336-17.5104-46.08-31.744-31.744-14.336 14.336 17.408 46.08 31.744 31.744z" fill="#E01E22" p-id="1858"></path><path d="M349.4912 488.7552c0-14.9504-10.9568-27.7504-26.4192-32.768 3.3792 5.12 5.4272 11.0592 5.4272 17.408 0 12.1856-7.2704 22.9376-18.2272 29.184 1.536 3.9936 2.3552 8.192 2.3552 12.5952 0 21.9136-20.6848 39.7312-46.2848 39.7312-6.4512 0-12.5952-1.1264-18.2272-3.1744 8.192 11.1616 22.6304 18.6368 39.2192 18.6368 25.6 0 46.2848-17.8176 46.2848-39.7312 0-4.4032-0.8192-8.6016-2.3552-12.5952 10.9568-6.3488 18.2272-17.1008 18.2272-29.2864z" fill="#3EBA4A" p-id="1859"></path><path d="M312.6272 515.1744c0-4.4032-0.8192-8.6016-2.3552-12.5952 10.9568-6.2464 18.2272-16.9984 18.2272-29.184 0-6.3488-1.9456-12.288-5.4272-17.408-4.5056-1.4336-9.4208-2.2528-14.5408-2.2528-14.6432 0-27.5456 6.656-34.7136 16.5888-5.9392-3.9936-13.312-6.3488-21.4016-6.3488-19.2512 0-34.9184 13.4144-34.9184 30.0032 0 13.4144 10.24 24.7808 24.4736 28.5696-0.6144 2.56-0.9216 5.3248-0.9216 8.0896 0 7.7824 2.6624 15.0528 7.0656 21.1968 5.632 2.048 11.776 3.1744 18.2272 3.1744 25.6-0.1024 46.2848-17.92 46.2848-39.8336z" fill="#68E077" p-id="1860"></path><path d="M558.6944 620.4416c14.848 17.8176 21.1968 41.1648 15.1552 64.512-10.8544 42.2912-58.0608 68.8128-105.472 59.0848-4.8128-1.024-9.4208-2.2528-13.824-3.8912 12.0832 14.4384 29.696 25.3952 50.9952 29.696 47.4112 9.728 94.6176-16.7936 105.472-59.0848 9.728-38.0928-13.2096-75.9808-52.3264-90.3168zM432.5376 586.8544c13.4144 16.0768 19.1488 37.1712 13.7216 58.2656-9.8304 38.2976-52.5312 62.1568-95.3344 53.4528-4.3008-0.9216-8.4992-2.048-12.4928-3.584 10.8544 13.1072 26.9312 22.9376 46.08 26.8288 42.9056 8.704 85.6064-15.1552 95.3344-53.4528 8.8064-34.304-11.9808-68.608-47.3088-81.5104z" fill="#7C4115" p-id="1861"></path><path d="M446.2592 645.12c5.4272-21.0944-0.3072-42.1888-13.7216-58.2656-3.9936-1.4336-8.192-2.6624-12.4928-3.584-42.9056-8.704-85.6064 15.1552-95.3344 53.4528-5.4272 21.0944 0.3072 42.1888 13.7216 58.2656 3.9936 1.4336 8.192 2.6624 12.4928 3.584 42.8032 8.704 85.504-15.1552 95.3344-53.4528zM573.8496 684.9536c5.9392-23.3472-0.3072-46.592-15.1552-64.512-4.4032-1.6384-9.0112-2.9696-13.824-3.8912-47.4112-9.728-94.6176 16.7936-105.472 59.0848-5.9392 23.3472 0.4096 46.592 15.2576 64.512 4.4032 1.6384 9.0112 2.9696 13.824 3.8912 47.3088 9.6256 94.5152-16.7936 105.3696-59.0848z" fill="#8B5526" p-id="1862"></path><path d="M542.3104 676.1472l33.28 13.824-37.6832 1.1264c-2.7648 0.1024-5.2224 1.3312-6.5536 3.1744l-17.6128 26.0096-1.4336-29.3888c-0.1024-2.1504-1.6384-4.096-4.096-5.12l-33.28-13.824 37.6832-1.1264c2.7648-0.1024 5.2224-1.3312 6.5536-3.1744l17.6128-26.0096 1.4336 29.3888c0 2.2528 1.6384 4.1984 4.096 5.12zM419.5328 636.928l30.72 12.6976-34.7136 1.024c-2.56 0.1024-4.8128 1.2288-6.0416 2.9696L393.216 677.5808l-1.3312-27.0336c-0.1024-1.9456-1.536-3.7888-3.7888-4.7104l-30.72-12.6976 34.7136-1.024c2.56-0.1024 4.8128-1.2288 6.0416-2.9696l16.2816-23.9616 1.3312 27.0336c0.1024 1.9456 1.536 3.7888 3.7888 4.7104z" fill="#C8A981" p-id="1863"></path><path d="M767.8976 503.6032c3.584 7.0656 5.632 15.0528 5.632 23.552 0 28.8768-23.3472 52.224-52.224 52.224-8.4992 0-16.4864-2.048-23.552-5.632 8.6016 16.9984 26.3168 28.7744 46.6944 28.7744 28.8768 0 52.224-23.3472 52.224-52.224 0-20.3776-11.776-38.0928-28.7744-46.6944z" fill="#E01E22" p-id="1864"></path><path d="M773.5296 527.1552c0-8.4992-2.048-16.4864-5.632-23.552-7.0656-3.584-15.0528-5.632-23.552-5.632-28.8768 0-52.224 23.4496-52.224 52.224 0 8.4992 2.048 16.4864 5.632 23.552 7.0656 3.584 15.0528 5.632 23.552 5.632 28.7744 0 52.224-23.3472 52.224-52.224z" fill="#F06661" p-id="1865"></path><path d="M563.5072 364.9536c14.336-14.336-17.5104-46.08-31.744-31.744-14.336 14.2336 17.5104 45.9776 31.744 31.744z" fill="#E01E22" p-id="1866"></path><path d="M752.3328 369.5616c3.1744 5.7344 5.0176 12.288 5.0176 19.3536 0 22.016-17.8176 39.8336-39.8336 39.8336-7.0656 0-13.6192-1.8432-19.3536-5.0176 6.7584 12.1856 19.8656 20.48 34.816 20.48 22.016 0 39.8336-17.8176 39.8336-39.8336 0-15.0528-8.2944-28.0576-20.48-34.816z" fill="#FFA43E" p-id="1867"></path><path d="M717.7216 310.6816c4.096 7.4752 6.5536 15.9744 6.5536 25.088 0 28.5696-23.1424 51.712-51.712 51.712-9.1136 0-17.7152-2.3552-25.088-6.5536 8.8064 15.872 25.8048 26.624 45.2608 26.624 28.5696 0 51.712-23.1424 51.712-51.712-0.1024-19.3536-10.8544-36.2496-26.7264-45.1584z" fill="#E2E2E2" p-id="1868"></path><path d="M757.3504 388.9152c0-7.0656-1.8432-13.6192-5.0176-19.3536-5.7344-3.1744-12.288-5.0176-19.3536-5.0176-22.016 0-39.8336 17.8176-39.8336 39.8336 0 7.0656 1.8432 13.6192 5.0176 19.3536 5.7344 3.1744 12.288 5.0176 19.3536 5.0176 21.9136 0 39.8336-17.92 39.8336-39.8336z" fill="#FFD14F" p-id="1869"></path><path d="M724.2752 335.872c0-9.1136-2.3552-17.7152-6.5536-25.088-7.4752-4.096-15.9744-6.5536-25.088-6.5536-28.5696 0-51.712 23.1424-51.712 51.712 0 9.1136 2.3552 17.7152 6.5536 25.088 7.4752 4.096 15.9744 6.5536 25.088 6.5536 28.5696 0 51.712-23.1424 51.712-51.712z" fill="#FFFFFF" p-id="1870"></path><path d="M512 163.4304c-93.0816 0-180.6336 36.2496-246.4768 102.0928S163.4304 418.9184 163.4304 512s36.2496 180.6336 102.0928 246.4768 153.3952 102.0928 246.4768 102.0928 180.6336-36.2496 246.4768-102.0928 102.0928-153.3952 102.0928-246.4768-36.2496-180.6336-102.0928-246.4768-153.3952-102.0928-246.4768-102.0928zM183.9104 512c0-142.6432 91.5456-264.3968 218.9312-309.4528-42.3936 32.768-69.8368 84.0704-69.8368 141.7216 0 98.6112 80.2816 178.8928 178.8928 178.8928 87.3472 0 158.4128 71.0656 158.4128 158.4128S599.3472 840.0896 512 840.0896c-180.9408 0-328.0896-147.1488-328.0896-328.0896z m414.8224-64.8192l-6.9632 6.9632c-5.12-1.7408-11.3664-5.8368-17.2032-11.6736-10.5472-10.5472-15.36-22.2208-10.9568-26.624 2.2528-2.2528 5.3248-2.9696 9.1136-2.048 3.8912 0.9216 8.0896 3.584 11.6736 7.168s6.2464 7.8848 7.168 11.6736c0.9216 3.7888 0.3072 6.8608-2.048 9.1136-1.6384 1.6384-1.6384 4.1984 0 5.8368 1.6384 1.6384 4.1984 1.6384 5.8368 0 4.3008-4.3008 5.8368-10.3424 4.096-16.896-1.3312-5.3248-4.608-10.8544-9.3184-15.4624-9.0112-9.0112-23.04-14.5408-32.3584-5.12-9.4208 9.4208-1.2288 25.9072 10.9568 38.1952 5.12 5.12 10.9568 9.5232 16.6912 12.1856L550.4 495.616c-10.6496-15.36-15.872-38.2976-16.0768-55.5008-0.1024-3.7888 0.1024-7.0656 0.512-9.9328l23.4496-23.4496c10.6496-10.6496 26.7264-0.2048 33.6896 6.7584 6.9632 7.0656 17.408 23.04 6.7584 33.6896z m-123.904 42.9056c0 2.7648 0.1024 5.5296 0.3072 8.2944-2.2528-0.512-4.5056-1.1264-6.7584-1.7408l6.4512-6.5536z m8.6016 10.0352c-0.7168-7.168-0.6144-13.5168 0-18.6368l22.7328-22.7328c0.4096 12.9024 3.584 28.672 10.5472 44.032-1.536 0-3.072-0.1024-4.7104-0.1024-9.728 0-19.2512-0.8192-28.5696-2.56z m42.5984 3.1744c-10.0352-19.8656-12.4928-40.1408-11.5712-52.736l11.6736-11.6736v1.3312c0.3072 19.5584 6.144 44.4416 18.432 61.2352l-3.584 3.584c-5.0176-0.8192-9.9328-1.3312-14.9504-1.7408z m43.8272-135.8848l-6.9632 6.9632c-5.12-1.7408-11.3664-5.8368-17.2032-11.6736-10.5472-10.5472-15.36-22.2208-10.9568-26.624 5.12-5.12 14.336-1.2288 20.7872 5.12 3.584 3.584 6.2464 7.8848 7.168 11.6736 0.9216 3.7888 0.3072 6.8608-2.048 9.1136-1.6384 1.6384-1.6384 4.1984 0 5.8368 1.6384 1.6384 4.1984 1.6384 5.8368 0 9.3184-9.3184 3.8912-23.3472-5.12-32.3584s-23.04-14.5408-32.3584-5.12c-9.4208 9.4208-1.2288 25.9072 10.9568 38.1952 5.12 5.12 10.9568 9.5232 16.7936 12.1856l-6.3488 6.3488-0.2048 0.2048c-2.2528 1.4336-4.4032 3.072-6.3488 5.12l-22.8352 22.8352c-10.3424-15.36-15.36-37.888-15.5648-54.784-0.1024-3.7888 0.1024-7.0656 0.4096-9.8304l23.4496-23.4496c4.3008-4.3008 9.728-5.5296 16.4864-3.7888 12.0832 3.1744 24.576 15.6672 27.7504 27.7504 1.8432 6.5536 0.6144 11.8784-3.6864 16.2816z m-72.704-8.3968v1.3312c0.3072 19.2512 5.9392 43.7248 17.92 60.6208l-12.3904 12.3904c-14.5408-22.2208-18.3296-47.7184-17.2032-62.5664l11.6736-11.776zM477.184 378.9824c0.1024 4.096 0.6144 8.3968 1.2288 12.9024 1.6384 10.4448 6.144 29.2864 18.3296 47.3088l-27.136 27.136c-10.3424-15.36-15.36-37.888-15.5648-54.784-0.1024-3.7888 0.1024-7.0656 0.4096-9.8304l22.7328-22.7328z m-31.3344 31.3344v1.3312c0.3072 19.2512 5.9392 43.7248 17.92 60.6208l-12.3904 12.3904c-14.5408-22.2208-18.3296-47.7184-17.2032-62.5664l11.6736-11.776z m-20.0704 20.0704c0.1024 4.096 0.6144 8.3968 1.2288 12.9024 1.536 9.728 5.5296 26.8288 15.9744 43.7248-16.0768-7.7824-30.6176-18.2272-43.1104-30.72l25.9072-25.9072z m199.7824 389.4272c39.936-32.8704 65.4336-82.6368 65.4336-138.24 0-80.4864-53.3504-148.6848-126.5664-171.1104l48.8448-48.8448c18.3296-18.3296 10.4448-45.4656-6.8608-62.6688-6.8608-6.8608-15.36-12.288-24.1664-15.1552l2.048-2.048c9.5232-9.5232 12.8-22.4256 9.0112-36.2496-5.12-19.3536-22.9376-37.0688-42.2912-42.2912-13.824-3.6864-26.7264-0.512-36.2496 9.0112L386.4576 440.7296c-20.5824-26.7264-32.8704-60.2112-32.8704-96.4608 0-87.3472 71.0656-158.4128 158.4128-158.4128 2.1504 0 4.1984-0.7168 5.8368-1.8432 178.176 3.1744 322.2528 149.0944 322.2528 327.9872 0 141.0048-89.3952 261.5296-214.528 307.8144z m272.5888-262.144c-2.2528 0-4.096-1.8432-4.096-4.096v-83.1488c0-2.2528 1.8432-4.096 4.096-4.096s4.096 1.8432 4.096 4.096v83.1488c0 2.2528-1.7408 4.096-4.096 4.096z m-772.3008-91.3408c2.2528 0 4.096 1.8432 4.096 4.096v83.1488c0 2.2528-1.8432 4.096-4.096 4.096s-4.096-1.8432-4.096-4.096v-83.1488c0-2.2528 1.8432-4.096 4.096-4.096z m218.0096 64.2048c0-2.7648-0.3072-5.632-0.8192-8.2944 10.5472-8.4992 16.5888-20.5824 16.5888-33.4848 0-24.9856-22.9376-45.3632-51.0976-45.3632-14.2336 0-27.4432 5.12-37.0688 14.0288-5.9392-2.4576-12.3904-3.7888-19.1488-3.7888-24.8832 0-45.1584 18.0224-45.1584 40.2432 0 15.0528 9.1136 28.3648 23.4496 35.328v1.3312c0 27.5456 25.3952 49.9712 56.5248 49.9712s56.7296-22.3232 56.7296-49.9712z m-22.1184-8.9088c1.1264 2.8672 1.7408 5.9392 1.7408 8.9088 0 16.2816-16.1792 29.4912-36.0448 29.4912-19.8656 0-36.0448-13.2096-36.0448-29.4912 0-1.9456 0.2048-3.7888 0.7168-5.7344 1.3312-5.4272-1.9456-10.8544-7.2704-12.288-10.0352-2.7648-16.896-10.24-16.896-18.7392 0-10.8544 11.0592-19.7632 24.6784-19.7632 5.8368 0 11.264 1.6384 15.7696 4.608 4.608 3.072 10.752 1.9456 14.0288-2.56 5.5296-7.5776 15.6672-12.3904 26.4192-12.3904 16.896 0 30.6176 11.1616 30.6176 24.8832 0 8.0896-4.9152 15.6672-13.1072 20.3776-4.608 2.6624-6.4512 7.9872-4.608 12.6976z m203.3664 260.4032c44.7488 0 85.2992-27.8528 95.8464-68.8128 5.632-21.7088 1.9456-44.4416-10.24-63.7952-13.6192-21.7088-36.864-37.376-63.8976-42.9056-22.016-4.5056-44.032-1.8432-63.0784 6.144-12.4928-20.5824-34.2016-35.5328-59.904-40.7552-48.8448-10.0352-97.792 17.8176-109.1584 61.952-5.2224 20.2752-1.8432 41.3696 9.5232 59.392 12.6976 20.2752 34.304 34.816 59.392 39.936 6.656 1.3312 13.4144 2.048 20.1728 2.048 10.9568 0 21.8112-1.7408 32.0512-5.2224 1.2288 2.3552 2.4576 4.608 3.8912 6.8608 13.6192 21.7088 36.864 37.376 63.8976 42.9056 7.168 1.536 14.4384 2.2528 21.504 2.2528z m-137.3184-68.9152c-19.6608-3.9936-36.4544-15.1552-46.08-30.72-8.2944-13.312-10.752-28.672-6.9632-43.52 8.6016-33.6896 46.8992-54.784 85.1968-47.0016 19.6608 3.9936 36.352 15.1552 45.9776 30.5152-8.192 5.632-15.5648 12.4928-21.504 20.2752l-23.2448-9.6256c-0.8192-0.3072-1.2288-0.8192-1.2288-1.1264l-1.3312-27.0336c-0.1024-1.7408-1.2288-3.2768-2.9696-3.7888s-3.4816 0.2048-4.5056 1.6384L394.8544 626.688c-0.3072 0.512-1.3312 1.1264-2.7648 1.1264l-34.7136 1.024c-1.9456 0.1024-3.584 1.4336-3.8912 3.3792-0.3072 1.9456 0.7168 3.7888 2.4576 4.5056l30.72 12.6976c0.8192 0.3072 1.2288 0.8192 1.2288 1.1264l1.3312 27.0336c0.1024 1.7408 1.2288 3.2768 2.9696 3.7888 0.4096 0.1024 0.7168 0.2048 1.1264 0.2048 1.3312 0 2.56-0.6144 3.3792-1.8432l16.2816-23.9616c0.4096-0.512 1.3312-1.1264 2.7648-1.1264l21.4016-0.6144c-3.1744 5.9392-5.7344 12.288-7.4752 18.944-3.1744 12.4928-3.3792 25.2928-0.6144 37.6832-13.2096 4.4032-27.5456 5.3248-41.2672 2.4576z m43.2128-66.9696l-15.5648 0.512c-3.8912 0.1024-7.3728 1.8432-9.3184 4.7104l-9.4208 13.824-0.7168-14.848c-0.2048-3.584-2.56-6.7584-6.3488-8.2944l-13.0048-5.4272 15.5648-0.512c3.8912-0.1024 7.3728-1.8432 9.3184-4.7104l9.4208-13.824 0.7168 14.848c0.2048 3.584 2.56 6.7584 6.3488 8.2944l13.0048 5.4272z m26.0096 79.872c-9.1136-14.6432-11.8784-31.6416-7.68-47.9232 4.7104-18.3296 17.3056-33.1776 33.9968-42.5984 0 0 0.1024 0 0.1024-0.1024 0.6144-0.3072 1.2288-0.6144 1.7408-1.024 11.8784-6.2464 25.6-9.728 39.936-9.728 5.8368 0 11.776 0.6144 17.7152 1.8432 21.504 4.4032 39.936 16.6912 50.5856 33.6896 9.1136 14.6432 11.8784 31.6416 7.68 47.9232-8.192 31.8464-40.2432 53.3504-75.776 53.3504-5.8368 0-11.776-0.6144-17.7152-1.8432-21.504-4.3008-39.936-16.5888-50.5856-33.5872z m80.9984-30.8224l37.6832-1.1264c1.9456-0.1024 3.584-1.4336 3.8912-3.3792s-0.7168-3.7888-2.4576-4.5056l-33.28-13.824c-1.024-0.4096-1.536-1.1264-1.536-1.536l-1.4336-29.3888c-0.1024-1.7408-1.2288-3.2768-2.9696-3.7888s-3.4816 0.2048-4.5056 1.6384l-17.6128 26.0096c-0.4096 0.7168-1.6384 1.3312-3.2768 1.4336l-37.6832 1.1264c-1.9456 0.1024-3.584 1.4336-3.8912 3.3792-0.3072 1.9456 0.7168 3.7888 2.4576 4.5056l33.28 13.824c1.024 0.4096 1.536 1.1264 1.536 1.536l1.4336 29.3888c0.1024 1.7408 1.2288 3.2768 2.9696 3.7888 0.4096 0.1024 0.7168 0.2048 1.1264 0.2048 1.3312 0 2.56-0.6144 3.3792-1.8432l17.6128-26.0096c0.512-0.7168 1.6384-1.4336 3.2768-1.4336z m-10.0352-3.1744l-10.752 15.872-0.8192-17.2032c-0.2048-3.6864-2.7648-7.0656-6.656-8.704l-15.6672-6.4512 18.5344-0.512c4.096-0.1024 7.7824-1.9456 9.8304-5.0176l10.752-15.872 0.8192 17.2032c0.2048 3.6864 2.7648 7.0656 6.656 8.704l15.6672 6.4512-18.5344 0.512c-4.096 0.1024-7.7824 1.9456-9.8304 5.0176z m-14.2336 32.3584z m168.1408-174.08c0 34.5088 28.0576 62.464 62.464 62.464 34.5088 0 62.464-28.0576 62.464-62.464s-28.0576-62.464-62.464-62.464-62.464 27.9552-62.464 62.464z m104.5504 0c0 23.1424-18.8416 41.984-41.984 41.984s-41.984-18.8416-41.984-41.984 18.8416-41.984 41.984-41.984c23.04 0 41.984 18.8416 41.984 41.984z m-94.3104-256.3072c-34.4064 0-62.3616 27.9552-62.3616 62.3616 0 31.9488 24.1664 58.368 55.1936 61.952 6.0416 20.7872 25.2928 36.1472 48.128 36.1472 27.648 0 50.0736-22.4256 50.0736-50.0736 0-19.968-11.6736-37.1712-28.5696-45.2608 0-0.9216 0.1024-1.8432 0.1024-2.7648-0.2048-34.4064-28.16-62.3616-62.5664-62.3616zM650.24 356.352c0-23.1424 18.8416-41.8816 41.8816-41.8816 22.4256 0 40.7552 17.7152 41.8816 39.8336h-1.024c-25.1904 0-46.1824 18.7392-49.5616 43.1104-18.944-4.096-33.1776-20.8896-33.1776-41.0624z m82.7392 77.6192c-16.2816 0-29.5936-13.312-29.5936-29.5936s13.312-29.5936 29.5936-29.5936c16.2816 0 29.5936 13.312 29.5936 29.5936s-13.312 29.5936-29.5936 29.5936z m259.1744 23.9616v108.1344c0 16.384-13.312 29.696-29.696 29.696h-55.808c-39.2192 185.6512-203.776 319.5904-394.5472 319.5904S156.672 781.5168 117.5552 595.7632H61.5424c-16.384 0-29.696-13.312-29.696-29.696V457.9328c0-16.384 13.312-29.696 29.696-29.696h55.9104c39.1168-185.6512 203.776-319.5904 394.5472-319.5904 45.9776 0 91.0336 7.68 133.9392 22.7328 41.472 14.6432 80.1792 35.84 114.8928 63.1808 4.4032 3.4816 5.2224 9.9328 1.7408 14.336-3.4816 4.4032-9.9328 5.2224-14.336 1.7408-67.8912-53.3504-149.6064-81.5104-236.2368-81.5104-183.808 0-342.016 130.8672-376.1152 311.1936-0.9216 5.12-5.5296 8.6016-10.6496 8.2944H61.5424c-5.12 0-9.216 4.096-9.216 9.216v108.1344c0 5.12 4.096 9.216 9.216 9.216h63.7952c5.0176-0.2048 9.5232 3.2768 10.4448 8.2944C169.984 763.904 328.192 894.7712 512 894.7712S854.016 763.904 888.1152 583.5776c0.9216-5.12 5.5296-8.6016 10.6496-8.2944h63.6928c5.12 0 9.216-4.096 9.216-9.216V457.9328c0-5.12-4.096-9.216-9.216-9.216h-63.7952c-5.0176 0.2048-9.5232-3.2768-10.4448-8.2944-13.7216-72.704-48.2304-139.4688-99.6352-193.2288-3.8912-4.096-3.7888-10.5472 0.3072-14.4384s10.5472-3.7888 14.4384 0.3072c52.224 54.4768 87.8592 121.856 103.3216 195.2768h55.808c16.384-0.1024 29.696 13.2096 29.696 29.5936z" p-id="1871"></path></svg>