<?xml version="1.0" standalone="no"?><!DOCTYPE svg PUBLIC "-//W3C//DTD SVG 1.1//EN" "http://www.w3.org/Graphics/SVG/1.1/DTD/svg11.dtd"><svg t="1723450288083" class="icon" viewBox="0 0 1580 1024" version="1.1" xmlns="http://www.w3.org/2000/svg" p-id="6093" data-spm-anchor-id="a313x.search_index.0.i26.9f9f3a81a77f69" xmlns:xlink="http://www.w3.org/1999/xlink" width="74.0625" height="48"><path d="M54.993477 66.732873m55.901883 0l1163.038674 0q55.901883 0 55.901883 55.901883l0 625.891456q0 55.901883-55.901883 55.901883l-1163.038674 0q-55.901883 0-55.901883-55.901883l0-625.891456q0-55.901883 55.901883-55.901883Z" fill="#e6e6e6" p-id="6094" data-spm-anchor-id="a313x.search_index.0.i18.9f9f3a81a77f69" class=""></path><path d="M1281.900053 860.190223H102.929342A102.999219 102.999219 0 0 1 0 757.330759V113.830209A103.069097 103.069097 0 0 1 102.929342 10.900867h1178.970711a102.999219 102.999219 0 0 1 102.859464 102.929342v643.50055a102.929342 102.929342 0 0 1-102.859464 102.859464zM102.929342 24.876338A89.023749 89.023749 0 0 0 13.975471 113.830209v643.50055a89.023749 89.023749 0 0 0 88.953871 88.883994h1178.970711a89.023749 89.023749 0 0 0 88.883993-88.883994V113.830209a89.023749 89.023749 0 0 0-88.883993-88.953871z" fill="#cdcdcd" p-id="6095" data-spm-anchor-id="a313x.search_index.0.i21.9f9f3a81a77f69" class=""></path><path d="M145.554528 854.390403m21.452347 0l155.896376 0q21.452348 0 21.452348 21.452348l0 0q0 21.452348-21.452348 21.452347l-155.896376 0q-21.452348 0-21.452347-21.452347l0 0q0-21.452348 21.452347-21.452348Z" fill="#707070" p-id="6096" data-spm-anchor-id="a313x.search_index.0.i23.9f9f3a81a77f69" class=""></path><path d="M262.45934 0m12.438169 0l835.034376 0q12.438169 0 12.438169 12.438169l0 0q0 12.438169-12.438169 12.438169l-835.034376 0q-12.438169 0-12.438169-12.438169l0 0q0-12.438169 12.438169-12.438169Z" fill="#8a8a8a" p-id="6097" data-spm-anchor-id="a313x.search_index.0.i24.9f9f3a81a77f69" class=""></path><path d="M1006.02426 853.202488m21.452348 0l155.896376 0q21.452348 0 21.452348 21.452348l0 0q0 21.452348-21.452348 21.452347l-155.896376 0q-21.452348 0-21.452348-21.452347l0 0q0-21.452348 21.452348-21.452348Z" fill="#707070" p-id="6098" data-spm-anchor-id="a313x.search_index.0.i25.9f9f3a81a77f69" class=""></path><path d="M1273.934034 832.379037H110.89536a83.852824 83.852824 0 0 1-83.852824-83.852825V122.634756a83.852824 83.852824 0 0 1 83.852824-83.852825h1163.038674a83.852824 83.852824 0 0 1 83.852825 83.852825v625.891456a83.852824 83.852824 0 0 1-83.852825 83.852825zM110.89536 94.683814a27.950941 27.950941 0 0 0-27.950941 27.950942v625.891456a27.950941 27.950941 0 0 0 27.950941 27.950942h1163.038674a27.950941 27.950941 0 0 0 27.950942-27.950942V122.634756a27.950941 27.950941 0 0 0-27.950942-27.950942z" fill="#8a8a8a" p-id="6099" data-spm-anchor-id="a313x.search_index.0.i22.9f9f3a81a77f69" class=""></path><path d="M258.126944 581.589214h-5.729943q-51.639364-3.354113-51.639364-56.530779v-59.954769q0.419264-34.938677 23.129404-44.931139c-13.975471-7.406999-20.613819-21.38247-20.963206-41.926412v-50.870713a83.852824 83.852824 0 0 1 1.397547-15.442895q6.219084-40.109601 54.224826-40.109601h57.369308a109.358058 109.358058 0 0 1 15.652527 0.978283q40.039724 6.987735 40.039724 54.574213v50.730959c0 20.33431-6.987735 34.309781-20.963206 41.926412 15.163386 6.428717 22.849895 21.452348 23.199281 44.931138v59.95477q-0.489141 55.901883-57.439185 56.530779zM237.583002 552.031094h100.62339c2.934849 0 4.75166-2.236075 5.310679-5.799821V440.995979c0-3.913132-1.746934-5.79982-5.310679-5.799821H237.583002a6.149207 6.149207 0 0 0-5.79982 5.799821v105.305172A6.149207 6.149207 0 0 0 237.583002 552.031094z m2.236076-144.506368H335.411297c3.563745 0 5.310679-1.886689 5.310679-5.79982V306.621828A6.149207 6.149207 0 0 0 335.411297 300.472621H239.469691c-3.284236 0-5.240802 2.37583-5.79982 6.288961v95.033201a6.149207 6.149207 0 0 0 5.79982 5.799821zM497.177371 581.589214h-5.79982q-51.569487-3.354113-51.639365-56.530779v-59.954769c0-23.199281 8.035896-38.153035 23.199282-44.931139-13.975471-7.406999-20.963206-21.38247-20.963206-41.926412v-50.870713a90.141786 90.141786 0 0 1 1.32767-15.442895q6.288962-40.109601 54.364581-40.109601h57.369307a107.681002 107.681002 0 0 1 15.58265 0.978283q40.179478 6.987735 40.109601 54.574213v50.730959c-0.349387 20.33431-6.987735 34.309781-20.963206 41.926412 15.163386 6.428717 22.849895 21.452348 23.199281 44.931138v59.95477q-0.489141 55.901883-57.439185 56.530779z m-20.963206-29.488243h100.623389c2.934849 0 4.681783-2.236075 5.310679-5.79982V440.995979c0-3.913132-1.746934-5.79982-5.310679-5.799821H476.284042a6.149207 6.149207 0 0 0-5.79982 5.799821v105.305172a6.149207 6.149207 0 0 0 5.79982 5.729943z m2.236075-144.506367h96.221116c3.563745 0 5.310679-1.886689 5.310679-5.799821V306.621828a6.219084 6.219084 0 0 0-5.310679-6.288962H478.520118c-3.284236 0-5.240802 2.37583-5.799821 6.288962V401.794783a6.149207 6.149207 0 0 0 5.799821 5.799821zM675.224868 439.528554v-46.887704h33.890517v46.887704z m0 127.106907v-46.887705h33.890517v46.887705zM828.815292 581.589214h-5.799821q-51.569487-3.354113-51.639364-56.530779v-59.954769c0-23.199281 8.035896-38.153035 23.199281-44.931139-13.975471-7.406999-20.963206-21.38247-20.963206-41.926412v-50.870713a90.141786 90.141786 0 0 1 1.32767-15.442895q6.288962-40.109601 54.294704-40.109601h57.439184a107.681002 107.681002 0 0 1 15.58265 0.978283q40.039724 6.987735 40.109601 54.574213v50.730959c-0.349387 20.33431-7.337122 34.309781-20.963206 41.926412 15.163386 6.428717 22.849895 21.452348 23.129404 44.931138v59.95477q-0.419264 55.901883-57.369307 56.530779z m-20.963207-29.488243H908.405597c3.004726 0 4.75166-2.236075 5.380557-5.79982V440.995979c0-3.913132-1.816811-5.79982-5.380557-5.799821h-100.483634a6.07933 6.07933 0 0 0-5.799821 5.799821v105.305172a6.149207 6.149207 0 0 0 5.799821 5.729943z m2.236076-144.506367h96.221116c3.563745 0 5.310679-1.886689 5.310679-5.799821V306.621828a6.219084 6.219084 0 0 0-5.310679-6.288962h-96.151239c-3.284236 0-5.240802 2.37583-5.79982 6.288962V401.794783a6.149207 6.149207 0 0 0 5.79982 5.799821zM1067.865718 581.589214H1062.135775q-51.569487-3.354113-51.639364-56.530779v-59.954769q0.419264-34.938677 23.199281-44.931139c-13.975471-7.406999-20.963206-21.38247-20.963206-41.926412v-50.870713a90.141786 90.141786 0 0 1 1.32767-15.442895q6.288962-40.109601 54.294704-40.109601h57.439185a107.681002 107.681002 0 0 1 15.582649 0.978283q40.039724 6.987735 40.039724 54.574213v50.730959c0 20.33431-6.987735 34.309781-20.963206 41.926412 15.163386 6.428717 22.849895 21.452348 23.129404 44.931138v59.95477q-0.419264 55.901883-57.369307 56.530779z m-20.963206-29.488243h100.553512c3.004726 0 4.75166-2.236075 5.380556-5.79982V440.995979c0-3.913132-1.816811-5.79982-5.380556-5.799821h-100.483634a6.07933 6.07933 0 0 0-5.799821 5.799821v105.305172a6.149207 6.149207 0 0 0 5.799821 5.729943z m2.166198-144.506367h96.221116c3.493868 0 5.310679-1.886689 5.310679-5.799821V306.621828a6.219084 6.219084 0 0 0-5.310679-6.288962h-96.151238c-3.214358 0-5.170924 2.37583-5.729943 6.288962V401.794783a6.149207 6.149207 0 0 0 5.729943 5.799821z" fill="#2c2c2c" p-id="6100" data-spm-anchor-id="a313x.search_index.0.i20.9f9f3a81a77f69" class=""></path></svg>