<?xml version="1.0" standalone="no"?><!DOCTYPE svg PUBLIC "-//W3C//DTD SVG 1.1//EN" "http://www.w3.org/Graphics/SVG/1.1/DTD/svg11.dtd"><svg t="1686643109382" class="icon" viewBox="0 0 1024 1024" version="1.1" xmlns="http://www.w3.org/2000/svg" p-id="1704" xmlns:xlink="http://www.w3.org/1999/xlink" width="32" height="32"><path d="M324.266667 599.466667c-6.4-4.266667-12.8-8.533333-14.933334-17.066667s-6.4-17.066667-6.4-27.733333h32c0 6.4 2.133333 10.666667 4.266667 14.933333s6.4 4.266667 10.666667 4.266667 8.533333-2.133333 10.666666-4.266667 4.266667-6.4 4.266667-12.8v-27.733333c0-4.266667-2.133333-8.533333-4.266667-10.666667s-4.266667-6.4-8.533333-6.4-6.4 0-8.533333 2.133333-4.266667 4.266667-4.266667 8.533334h-32v-102.4h87.466667v32h-55.466667v34.133333c2.133333-2.133333 6.4-4.266667 8.533333-6.4s8.533333-2.133333 10.666667-2.133333c8.533333 0 14.933333 2.133333 19.2 6.4s10.666667 8.533333 12.8 17.066666c2.133333 6.4 4.266667 14.933333 4.266667 25.6V554.666667c0 10.666667-2.133333 19.2-6.4 25.6-4.266667 6.4-8.533333 12.8-17.066667 17.066666s-14.933333 6.4-25.6 6.4c-6.4 2.133333-14.933333 0-21.333333-4.266666zM437.333333 593.066667c-8.533333-8.533333-12.8-19.2-12.8-34.133334V469.333333c0-14.933333 4.266667-27.733333 12.8-34.133333s19.2-12.8 36.266667-12.8 27.733333 4.266667 36.266667 12.8 12.8 19.2 12.8 34.133333v89.6c0 14.933333-4.266667 27.733333-12.8 36.266667s-19.2 12.8-36.266667 12.8c-17.066667-2.133333-27.733333-6.4-36.266667-14.933333z m46.933334-25.6c2.133333-4.266667 4.266667-8.533333 4.266666-14.933334v-81.066666c0-6.4-2.133333-10.666667-4.266666-14.933334s-6.4-4.266667-10.666667-4.266666-8.533333 2.133333-12.8 4.266666-4.266667 8.533333-4.266667 14.933334v81.066666c0 6.4 2.133333 10.666667 4.266667 14.933334s6.4 4.266667 10.666667 4.266666 10.666667 0 12.8-4.266666zM554.666667 490.666667c-4.266667-6.4-8.533333-12.8-8.533334-23.466667v-14.933333c0-10.666667 2.133333-17.066667 8.533334-23.466667s12.8-8.533333 21.333333-8.533333 17.066667 2.133333 21.333333 8.533333 8.533333 12.8 8.533334 23.466667v14.933333c0 10.666667-2.133333 17.066667-8.533334 23.466667s-12.8 8.533333-21.333333 8.533333-17.066667-2.133333-21.333333-8.533333z m32-10.666667c2.133333-2.133333 4.266667-6.4 4.266666-12.8V448c0-4.266667-2.133333-8.533333-4.266666-10.666667s-6.4-4.266667-10.666667-4.266666-8.533333 2.133333-10.666667 4.266666-4.266667 6.4-4.266666 10.666667v21.333333c0 4.266667 2.133333 8.533333 4.266666 12.8s6.4 4.266667 10.666667 4.266667 8.533333-4.266667 10.666667-6.4z m74.666666-59.733333h17.066667l-98.133333 181.333333h-17.066667l98.133333-181.333333z m-17.066666 177.066666c-4.266667-6.4-8.533333-12.8-8.533334-23.466666v-14.933334c0-10.666667 2.133333-17.066667 8.533334-23.466666s12.8-8.533333 21.333333-8.533334 17.066667 2.133333 21.333333 8.533334 8.533333 12.8 8.533334 23.466666v14.933334c0 10.666667-2.133333 17.066667-8.533334 23.466666s-12.8 8.533333-21.333333 8.533334-14.933333-4.266667-21.333333-8.533334z m34.133333-10.666666c2.133333-2.133333 4.266667-6.4 4.266667-12.8V554.666667c0-4.266667-2.133333-8.533333-4.266667-10.666667s-6.4-4.266667-10.666667-4.266667-8.533333 2.133333-10.666666 4.266667-4.266667 6.4-4.266667 10.666667v19.2c0 4.266667 2.133333 8.533333 4.266667 12.8s6.4 4.266667 10.666666 4.266666 8.533333-2.133333 10.666667-4.266666z" fill="#B0B0B0" p-id="1705"></path><path d="M512 85.333333C277.333333 85.333333 85.333333 277.333333 85.333333 512s192 426.666667 426.666667 426.666667 426.666667-192 426.666667-426.666667S746.666667 85.333333 512 85.333333z m0 768c-187.733333 0-341.333333-153.6-341.333333-341.333333S324.266667 170.666667 512 170.666667s341.333333 153.6 341.333333 341.333333-153.6 341.333333-341.333333 341.333333z" fill="#5CB87A" opacity=".6" p-id="1706"></path><path d="M853.333333 512c0 187.733333-153.6 341.333333-341.333333 341.333333v85.333334c234.666667 0 426.666667-192 426.666667-426.666667S746.666667 85.333333 512 85.333333v85.333334c187.733333 0 341.333333 153.6 341.333333 341.333333z" fill="#F5F7FA" p-id="1707"></path></svg>