<?xml version="1.0" standalone="no"?><!DOCTYPE svg PUBLIC "-//W3C//DTD SVG 1.1//EN" "http://www.w3.org/Graphics/SVG/1.1/DTD/svg11.dtd"><svg t="1694679965565" class="icon" viewBox="0 0 1024 1024" version="1.1" xmlns="http://www.w3.org/2000/svg" p-id="5973" data-spm-anchor-id="a313x.search_index.0.i0.302d3a81znorV6" xmlns:xlink="http://www.w3.org/1999/xlink" width="100" height="100"><path d="M148.1 154.9H110c-4.4 0-8-3.6-8-8V109c0-4.4 3.6-8 8-8h38.1c4.4 0 8 3.6 8 8v37.9c-0.1 4.4-3.6 8-8 8zM275.7 154.9h-38.1c-4.4 0-8-3.6-8-8V109c0-4.4 3.6-8 8-8h38.1c4.4 0 8 3.6 8 8v37.9c0 4.4-3.6 8-8 8zM403.4 154.9h-38.1c-4.4 0-8-3.6-8-8V109c0-4.4 3.6-8 8-8h38.1c4.4 0 8 3.6 8 8v37.9c0 4.4-3.6 8-8 8zM658.7 154.9h-38.1c-4.4 0-8-3.6-8-8V109c0-4.4 3.6-8 8-8h38.1c4.4 0 8 3.6 8 8v37.9c0 4.4-3.6 8-8 8zM786.3 154.9h-38.1c-4.4 0-8-3.6-8-8V109c0-4.4 3.6-8 8-8h38.1c4.4 0 8 3.6 8 8v37.9c0 4.4-3.5 8-8 8zM914 154.9h-38.1c-4.4 0-8-3.6-8-8V109c0-4.4 3.6-8 8-8H914c4.4 0 8 3.6 8 8v37.9c0 4.4-3.6 8-8 8zM148.1 921H110c-4.4 0-8-3.6-8-8v-37.9c0-4.4 3.6-8 8-8h38.1c4.4 0 8 3.6 8 8V913c-0.1 4.4-3.6 8-8 8zM275.7 921h-38.1c-4.4 0-8-3.6-8-8v-37.9c0-4.4 3.6-8 8-8h38.1c4.4 0 8 3.6 8 8V913c0 4.4-3.6 8-8 8zM403.4 921h-38.1c-4.4 0-8-3.6-8-8v-37.9c0-4.4 3.6-8 8-8h38.1c4.4 0 8 3.6 8 8V913c0 4.4-3.6 8-8 8zM658.7 921h-38.1c-4.4 0-8-3.6-8-8v-37.9c0-4.4 3.6-8 8-8h38.1c4.4 0 8 3.6 8 8V913c0 4.4-3.6 8-8 8zM786.3 921h-38.1c-4.4 0-8-3.6-8-8v-37.9c0-4.4 3.6-8 8-8h38.1c4.4 0 8 3.6 8 8V913c0 4.4-3.5 8-8 8zM914 921h-38.1c-4.4 0-8-3.6-8-8v-37.9c0-4.4 3.6-8 8-8H914c4.4 0 8 3.6 8 8V913c0 4.4-3.6 8-8 8z" p-id="5974" data-spm-anchor-id="a313x.search_index.0.i2.302d3a81znorV6" class="selected" fill="red"></path><path d="M922 874.7v37.9c0 4.4-3.6 8-8 8h-38.1c-4.4 0-8-3.6-8-8v-37.9c0-4.4 3.6-8 8-8H914c4.4 0 8 3.6 8 8zM922 747.5v37.9c0 4.4-3.6 8-8 8h-38.1c-4.4 0-8-3.6-8-8v-37.9c0-4.4 3.6-8 8-8H914c4.4 0 8 3.5 8 8zM922 620.2v37.9c0 4.4-3.6 8-8 8h-38.1c-4.4 0-8-3.6-8-8v-37.9c0-4.4 3.6-8 8-8H914c4.4 0 8 3.6 8 8zM922 365.7v37.9c0 4.4-3.6 8-8 8h-38.1c-4.4 0-8-3.6-8-8v-37.9c0-4.4 3.6-8 8-8H914c4.4 0 8 3.6 8 8zM922 238.5v37.9c0 4.4-3.6 8-8 8h-38.1c-4.4 0-8-3.6-8-8v-37.9c0-4.4 3.6-8 8-8H914c4.4 0 8 3.6 8 8zM922 111.2v37.9c0 4.4-3.6 8-8 8h-38.1c-4.4 0-8-3.6-8-8v-37.9c0-4.4 3.6-8 8-8H914c4.4 0 8 3.6 8 8zM156.7 874.7v37.9c0 4.4-3.6 8-8 8h-38.1c-4.4 0-8-3.6-8-8v-37.9c0-4.4 3.6-8 8-8h38.1c4.4 0 8 3.6 8 8zM156.7 747.5v37.9c0 4.4-3.6 8-8 8h-38.1c-4.4 0-8-3.6-8-8v-37.9c0-4.4 3.6-8 8-8h38.1c4.4 0 8 3.5 8 8zM156.7 620.2v37.9c0 4.4-3.6 8-8 8h-38.1c-4.4 0-8-3.6-8-8v-37.9c0-4.4 3.6-8 8-8h38.1c4.4 0 8 3.6 8 8zM156.7 365.7v37.9c0 4.4-3.6 8-8 8h-38.1c-4.4 0-8-3.6-8-8v-37.9c0-4.4 3.6-8 8-8h38.1c4.4 0 8 3.6 8 8zM156.7 238.5v37.9c0 4.4-3.6 8-8 8h-38.1c-4.4 0-8-3.6-8-8v-37.9c0-4.4 3.6-8 8-8h38.1c4.4 0 8 3.6 8 8zM156.7 111.2v37.9c0 4.4-3.6 8-8 8h-38.1c-4.4 0-8-3.6-8-8v-37.9c0-4.4 3.6-8 8-8h38.1c4.4 0 8 3.6 8 8zM914 485H539V109c0-4.4-3.6-8-8-8h-38c-4.4 0-8 3.6-8 8v376H110c-4.4 0-8 3.6-8 8v37.9c0 4.4 3.6 8 8 8h375V913c0 4.4 3.6 8 8 8h38c4.4 0 8-3.6 8-8V538.8h374.9c4.4 0 8-3.6 8-8V493c0.1-4.5-3.5-8-7.9-8z" p-id="5975" data-spm-anchor-id="a313x.search_index.0.i1.302d3a81znorV6" class="selected" fill="#8a8a8a"></path></svg>