<?xml version="1.0" standalone="no"?><!DOCTYPE svg PUBLIC "-//W3C//DTD SVG 1.1//EN" "http://www.w3.org/Graphics/SVG/1.1/DTD/svg11.dtd"><svg t="1694565340397" class="icon" viewBox="0 0 1024 1024" version="1.1" xmlns="http://www.w3.org/2000/svg" p-id="2034" data-spm-anchor-id="a313x.manage_type_myprojects.0.i0.1adc3a817YTpYl" xmlns:xlink="http://www.w3.org/1999/xlink" width="100" height="100"><path d="M662.186667 853.333333H362.666667a21.333333 21.333333 0 0 1 0-42.666666c35.285333 0 64-28.714667 64-64V341.333333H277.333333C242.048 341.333333 213.333333 370.048 213.333333 405.333333a21.333333 21.333333 0 0 1-42.666666 0v-213.333333a21.333333 21.333333 0 0 1 21.333333-21.333333h640a21.333333 21.333333 0 0 1 21.333333 21.333333v213.333333a21.333333 21.333333 0 0 1-42.666666 0c0-35.285333-28.714667-64-64-64H597.333333v405.333334c0 35.285333 28.714667 64 64 64h0.853334a21.333333 21.333333 0 0 1 0 42.666666z m-214.229334-42.666666h128.085334A106.197333 106.197333 0 0 1 554.666667 746.666667v-426.666667a21.333333 21.333333 0 0 1 21.333333-21.333333h170.666667c24.021333 0 46.165333 7.978667 64 21.376V213.333333H213.333333v106.709334A106.282667 106.282667 0 0 1 277.333333 298.666667h170.666667a21.333333 21.333333 0 0 1 21.333333 21.333333v426.666667c0 24.021333-7.978667 46.165333-21.376 64zM320 85.333333h-85.333333a21.333333 21.333333 0 0 1 0-42.666666h85.333333a21.333333 21.333333 0 0 1 0 42.666666zM554.666667 85.333333h-85.333334a21.333333 21.333333 0 0 1 0-42.666666h85.333334a21.333333 21.333333 0 0 1 0 42.666666zM789.333333 85.333333h-85.333333a21.333333 21.333333 0 0 1 0-42.666666h85.333333a21.333333 21.333333 0 0 1 0 42.666666zM320 981.333333h-85.333333a21.333333 21.333333 0 0 1 0-42.666666h85.333333a21.333333 21.333333 0 0 1 0 42.666666zM554.666667 981.333333h-85.333334a21.333333 21.333333 0 0 1 0-42.666666h85.333334a21.333333 21.333333 0 0 1 0 42.666666zM789.333333 981.333333h-85.333333a21.333333 21.333333 0 0 1 0-42.666666h85.333333a21.333333 21.333333 0 0 1 0 42.666666zM64 810.666667a21.333333 21.333333 0 0 1-21.333333-21.333334v-85.333333a21.333333 21.333333 0 0 1 42.666666 0v85.333333a21.333333 21.333333 0 0 1-21.333333 21.333334zM64 576A21.333333 21.333333 0 0 1 42.666667 554.666667v-85.333334a21.333333 21.333333 0 0 1 42.666666 0v85.333334a21.333333 21.333333 0 0 1-21.333333 21.333333zM64 341.333333a21.333333 21.333333 0 0 1-21.333333-21.333333v-85.333333a21.333333 21.333333 0 0 1 42.666666 0v85.333333a21.333333 21.333333 0 0 1-21.333333 21.333333zM960 810.666667a21.333333 21.333333 0 0 1-21.333333-21.333334v-85.333333a21.333333 21.333333 0 0 1 42.666666 0v85.333333a21.333333 21.333333 0 0 1-21.333333 21.333334zM960 576a21.333333 21.333333 0 0 1-21.333333-21.333333v-85.333334a21.333333 21.333333 0 0 1 42.666666 0v85.333334a21.333333 21.333333 0 0 1-21.333333 21.333333zM960 341.333333a21.333333 21.333333 0 0 1-21.333333-21.333333v-85.333333a21.333333 21.333333 0 0 1 42.666666 0v85.333333a21.333333 21.333333 0 0 1-21.333333 21.333333zM1002.666667 128h-85.333334a21.333333 21.333333 0 0 1-21.333333-21.333333v-85.333334a21.333333 21.333333 0 0 1 21.333333-21.333333h85.333334a21.333333 21.333333 0 0 1 21.333333 21.333333v85.333334a21.333333 21.333333 0 0 1-21.333333 21.333333zM938.666667 85.333333h42.666666V42.666667h-42.666666v42.666666zM106.666667 128h-85.333334a21.333333 21.333333 0 0 1-21.333333-21.333333v-85.333334A21.333333 21.333333 0 0 1 21.333333 0h85.333334a21.333333 21.333333 0 0 1 21.333333 21.333333v85.333334a21.333333 21.333333 0 0 1-21.333333 21.333333zM42.666667 85.333333h42.666666V42.666667H42.666667v42.666666zM1002.666667 1024h-85.333334a21.333333 21.333333 0 0 1-21.333333-21.333333v-85.333334a21.333333 21.333333 0 0 1 21.333333-21.333333h85.333334a21.333333 21.333333 0 0 1 21.333333 21.333333v85.333334a21.333333 21.333333 0 0 1-21.333333 21.333333zM938.666667 981.333333h42.666666v-42.666666h-42.666666v42.666666zM106.666667 1024h-85.333334a21.333333 21.333333 0 0 1-21.333333-21.333333v-85.333334a21.333333 21.333333 0 0 1 21.333333-21.333333h85.333334a21.333333 21.333333 0 0 1 21.333333 21.333333v85.333334a21.333333 21.333333 0 0 1-21.333333 21.333333zM42.666667 981.333333h42.666666v-42.666666H42.666667v42.666666z" p-id="2035" data-spm-anchor-id="a313x.manage_type_myprojects.0.i1.1adc3a817YTpYl" class="selected" fill="#aaa"></path></svg>