<?xml version="1.0" standalone="no"?><!DOCTYPE svg PUBLIC "-//W3C//DTD SVG 1.1//EN"
        "http://www.w3.org/Graphics/SVG/1.1/DTD/svg11.dtd">
<svg t="1695365351755" class="icon" viewBox="0 0 1027 1024" version="1.1" xmlns="http://www.w3.org/2000/svg" p-id="1529"
     xmlns:xlink="http://www.w3.org/1999/xlink" width="24.0703125" height="24">
    <path d="M747.52 238.933333    H276.48    C122.88 238.933333 0 361.813333 0 512    s122.88 273.066667 276.48 273.066667    H750.933333    c150.186667 0 276.48-122.88 276.48-273.066667    s-126.293333-273.066667-279.893333-273.066667z"
          fill="white" fill-opacity=".01" p-id="1537"
          data-spm-anchor-id="a313x.manage_type_myprojects.0.i0.1adc3a81uCnBP5"/>
    <path d="M747.52 238.933333    H276.48    C122.88 238.933333 0 361.813333 0 512    s122.88 273.066667 276.48 273.066667    H750.933333    c150.186667 0 276.48-122.88 276.48-273.066667    s-126.293333-273.066667-279.893333-273.066667z    m0 512    H276.48    C143.36 750.933333 34.133333 645.12 34.133333 512s109.226667-238.933333 242.346667-238.933333    H750.933333c133.12 0 242.346667 105.813333 242.346667 238.933333s-112.64 238.933333-245.76 238.933333z"
          fill="#2c2c2c" p-id="1531" data-spm-anchor-id="a313x.manage_type_myprojects.0.i0.1adc3a81uCnBP5"/>
    <path d="M273.066667 341.333333c-95.573333 0-170.666667 75.093333-170.666667 170.666667s75.093333 170.666667 170.666667 170.666667 170.666667-75.093333 170.666666-170.666667-75.093333-170.666667-170.666666-170.666667z"
          fill="#bfbfbf" p-id="1530" data-spm-anchor-id="a313x.manage_type_myprojects.0.i0.1adc3a81KYNNkt"></path>
    <path d="M580.266667 409.6c-37.546667 0-68.266667 27.306667-68.266667 61.44v85.333333c0 34.133333 30.72 61.44 68.266667 61.44s68.266667-27.306667 68.266666-61.44v-85.333333c0-34.133333-30.72-61.44-68.266666-61.44z m34.133333 146.773333c0 13.653333-17.066667 27.306667-34.133333 27.306667s-34.133333-10.24-34.133334-27.306667v-85.333333c0-13.653333 17.066667-27.306667 34.133334-27.306667s34.133333 10.24 34.133333 27.306667v85.333333zM904.533333 409.6h-68.266666c-10.24 0-17.066667 6.826667-17.066667 17.066667v170.666666c0 10.24 6.826667 17.066667 17.066667 17.066667s17.066667-6.826667 17.066666-17.066667V512h17.066667c10.24 0 17.066667-6.826667 17.066667-17.066667s-6.826667-17.066667-17.066667-17.066666H853.333333v-34.133334h51.2c10.24 0 17.066667-6.826667 17.066667-17.066666s-6.826667-17.066667-17.066667-17.066667zM768 409.6h-68.266667c-10.24 0-17.066667 6.826667-17.066666 17.066667v170.666666c0 10.24 6.826667 17.066667 17.066666 17.066667s17.066667-6.826667 17.066667-17.066667V512h17.066667c10.24 0 17.066667-6.826667 17.066666-17.066667s-6.826667-17.066667-17.066666-17.066666H716.8v-34.133334h51.2c10.24 0 17.066667-6.826667 17.066667-17.066666s-6.826667-17.066667-17.066667-17.066667z"
          fill="#707070" p-id="1532" data-spm-anchor-id="a313x.manage_type_myprojects.0.i2.1adc3a81KYNNkt"></path>
</svg>